<?xml version="1.0" encoding="utf-8"?>
<!-- Generator: Adobe Illustrator 23.0.5, SVG Export Plug-In . SVG Version: 6.00 Build 0)  -->
<svg version="1.1" id="Layer_1" xmlns="http://www.w3.org/2000/svg" xmlns:xlink="http://www.w3.org/1999/xlink" x="0px" y="0px"
	 viewBox="0 0 1080 1080" style="enable-background:new 0 0 1080 1080;" xml:space="preserve">
<style type="text/css">
	.st0{clip-path:url(#SVGID_2_);fill:url(#SVGID_3_);}
	.st1{clip-path:url(#SVGID_5_);fill:url(#SVGID_6_);}
	.st2{fill:#8D540B;}
</style>
<g>
	<defs>
		<rect id="SVGID_1_" x="-420" width="1920" height="1080"/>
	</defs>
	<clipPath id="SVGID_2_">
		<use xlink:href="#SVGID_1_"  style="overflow:visible;"/>
	</clipPath>
	
		<linearGradient id="SVGID_3_" gradientUnits="userSpaceOnUse" x1="-419.9992" y1="1080" x2="-418.9992" y2="1080" gradientTransform="matrix(632.378 0 0 -632.378 265822.5625 683370.5)">
		<stop  offset="0" style="stop-color:#C58C3A"/>
		<stop  offset="6.825407e-02" style="stop-color:#C1852E"/>
		<stop  offset="0.1361" style="stop-color:#BF8229"/>
		<stop  offset="0.1702" style="stop-color:#C1852D"/>
		<stop  offset="0.2012" style="stop-color:#C68E38"/>
		<stop  offset="0.231" style="stop-color:#CF9D4A"/>
		<stop  offset="0.26" style="stop-color:#DBB164"/>
		<stop  offset="0.2883" style="stop-color:#EBCC85"/>
		<stop  offset="0.2903" style="stop-color:#ECCE88"/>
		<stop  offset="0.3415" style="stop-color:#E7C67E"/>
		<stop  offset="0.4284" style="stop-color:#DAAF63"/>
		<stop  offset="0.5397" style="stop-color:#C48A38"/>
		<stop  offset="0.54" style="stop-color:#C48A38"/>
		<stop  offset="0.5458" style="stop-color:#C18736"/>
		<stop  offset="0.5998" style="stop-color:#AA7123"/>
		<stop  offset="0.658" style="stop-color:#9A6115"/>
		<stop  offset="0.7227" style="stop-color:#90570E"/>
		<stop  offset="0.8071" style="stop-color:#8D540B"/>
		<stop  offset="0.854" style="stop-color:#935A10"/>
		<stop  offset="0.9171" style="stop-color:#A46B1E"/>
		<stop  offset="0.9891" style="stop-color:#C08736"/>
		<stop  offset="1" style="stop-color:#C58C3A"/>
	</linearGradient>
	<path class="st0" d="M851.2,402.3h4.5C855.7,576.6,714.4,718,540,718c-174.4,0-315.7-141.3-315.7-315.7
		c0-174.4,141.3-315.7,315.7-315.7c174.4,0,315.7,141.3,315.7,315.7H851.2h-4.5C846.4,232.9,709.4,95.9,540,95.6
		c-169.4,0.3-306.4,137.3-306.7,306.7C233.6,571.7,370.6,708.7,540,709c169.4-0.3,306.4-137.3,306.7-306.7H851.2z"/>
</g>
<g>
	<defs>
		<path id="SVGID_4_" d="M523.3,133.1L523.3,133.1l-3.6,9.9l-21.2,58.7L471.3,277c-3.1,7.6-5,15.8-5.4,24.4c0,0.6-0.1,1.3-0.1,1.9
			c-0.1,2.2-0.1,4.3-0.1,6.5c0,35.9,9.7,69.5,26.7,98.4c1.2,1.9,2.4,3.8,3.5,5.7c11.2,19.1,19.3,40.3,23.5,62.8
			c1.6,8.4,2.6,17,3,25.7h-11.1c-0.5-11.2-2-22.2-4.3-32.8c-14.4-65.3-61.6-118.3-123.5-140.8c-0.3-0.1-0.6-0.2-0.9-0.3
			c-7.7-2.7-16-4.2-24.7-4.2c-27.5,0-51.6,15-64.4,37.3c-0.1,0.2-0.2,0.4-0.3,0.6c-0.4,0.7-0.7,1.4-1.1,2.2
			c-0.4,1.1-0.8,2.2-1.2,3.3c-4.3,12.4-6.7,25.7-6.7,39.6c0,0.2,0,0.3,0,0.5c0.1,15.2,2.9,29.7,8.2,43.1c12.1,31,36.7,55.7,67.5,68
			c0,0,0,0,0,0c0.8,0.3,1.7,0.5,2.6,0.5c3.7,0,6.7-3,6.7-6.7c0-1.4-0.4-2.7-1.1-3.7c0,0,0,0,0,0c-0.1-0.2-0.2-0.3-0.4-0.5
			c0,0,0,0,0,0c-5.5-7.6-8.8-16.9-8.8-27c0-3,0.3-5.9,0.8-8.7c4.1-21.2,22.7-37.2,45-37.2c5.5,0,10.8,1,15.7,2.8
			c2.8,1,5.4,2.3,7.9,3.8c0.1,0,0.2,0.1,0.3,0.2c22.6,13.6,40.3,34.4,50,59.3c0.2,0.5,0.4,1.1,0.6,1.6c-8.7,2.1-15.1,8.8-15.1,16.8
			c0,9.7,9.4,17.5,21,17.5h1.4c0.2,2.5,0.2,5.1,0.2,7.7c0,0.8,0,1.6,0,2.4c0,0.4,0,0.8,0,1.2c0,0.3,0,0.5,0,0.8
			c0,0.9-0.1,1.7-0.2,2.6c-1.7,14-13.6,24.9-28.1,24.9c-15.7,0-28.3-12.7-28.3-28.3c0-1.7,0.1-3.3,0.4-4.9c0,0,0,0,0,0
			c0.1-0.3,0.1-0.5,0.1-0.8c0-2.3-1.9-4.1-4.1-4.1c-0.9,0-1.7,0.3-2.3,0.7c0,0,0,0,0,0c-11.9,8.3-19.8,22.1-19.8,37.7
			c0,25.3,20.5,45.9,45.9,45.9c2.9,0,5.7-0.3,8.4-0.8c14.1-2.6,25.9-11.6,32.3-23.9c0.1-0.2,0.2-0.4,0.3-0.6
			c0.2-0.4,0.4-0.7,0.5-1.1c9-18.3,15.1-38.3,17.9-59.3H521c-1.5,11.4-3.9,22.5-7.3,33.2c-0.4,1.3-0.8,2.6-1.3,3.9
			c-0.5,2.2-0.8,4.4-0.8,6.8c0,1.8,0.2,3.6,0.5,5.3h0l17,87.2h0c0.5,5.5,5.1,9.9,10.8,9.9s10.3-4.3,10.8-9.9l17-86.7l0.1-0.5
			c0.3-1.7,0.5-3.5,0.5-5.3c0-2.4-0.3-4.7-0.9-7c-0.4-1.2-0.8-2.4-1.1-3.5c-3.4-10.7-5.9-21.9-7.3-33.4h11.2c2.8,21,9,41,17.9,59.3
			c0.2,0.4,0.3,0.7,0.5,1.1c0.1,0.2,0.2,0.4,0.3,0.6c6.4,12.3,18.2,21.3,32.3,23.9c2.7,0.5,5.5,0.8,8.4,0.8
			c25.3,0,45.9-20.5,45.9-45.9c0-15.6-7.8-29.4-19.8-37.7c0,0,0,0,0,0c-0.7-0.4-1.5-0.7-2.3-0.7c-2.3,0-4.1,1.9-4.1,4.1
			c0,0.3,0,0.6,0.1,0.8c0,0,0,0,0,0c0.3,1.6,0.4,3.2,0.4,4.9c0,15.7-12.7,28.3-28.3,28.3c-14.5,0-26.5-10.9-28.1-24.9
			c-0.1-0.9-0.2-1.7-0.2-2.6c0-0.3,0-0.5,0-0.8c0-0.4,0-0.8,0-1.2c0-0.8,0-1.6,0-2.4c0-2.6,0.1-5.1,0.2-7.7h1.4
			c11.6,0,21-7.8,21-17.5c0-8-6.4-14.7-15.1-16.8c0.2-0.5,0.4-1.1,0.6-1.6c9.7-24.8,27.4-45.7,50-59.3c0.1-0.1,0.2-0.1,0.3-0.2
			c2.5-1.5,5.1-2.8,7.9-3.8c4.9-1.8,10.2-2.8,15.7-2.8c22.4,0,41,16,45,37.2c0.5,2.8,0.8,5.7,0.8,8.7c0,10.1-3.3,19.4-8.8,27
			c0,0,0,0,0,0c-0.1,0.2-0.2,0.3-0.4,0.5c0,0,0,0,0,0c-0.7,1.1-1.1,2.3-1.1,3.7c0,3.7,3,6.7,6.7,6.7c0.9,0,1.8-0.2,2.6-0.5
			c0,0,0,0,0,0c30.9-12.3,55.5-37,67.5-68c5.2-13.4,8.1-27.9,8.2-43.1c0-0.2,0-0.4,0-0.5c0-13.9-2.3-27.2-6.7-39.6
			c-0.4-1.1-0.8-2.2-1.2-3.3c-0.3-0.7-0.7-1.5-1.1-2.2c-0.1-0.2-0.2-0.4-0.3-0.6c-12.8-22.3-36.8-37.3-64.4-37.3
			c-8.6,0-16.9,1.5-24.7,4.2c-0.3,0.1-0.6,0.2-0.9,0.3c-61.9,22.4-109.1,75.5-123.5,140.8c-2.3,10.6-3.8,21.6-4.3,32.8h-11.1
			c0.4-8.7,1.4-17.3,3-25.7c4.3-23.4,12.8-45.3,24.7-64.9c0.3-0.5,0.6-1,0.9-1.5c7.3-12,13.2-24.8,17.8-38.2
			c0.4-1.3,0.9-2.6,1.3-3.9c5-15.8,8-32.5,8.7-49.8c0.1-1,0.1-2.1,0.1-3.1c0,0,0,0,0,0c0-1.8,0.1-3.6,0.1-5.4c0-1.8,0-3.5-0.1-5.3
			c0-1.4-0.1-2.8-0.2-4.3c-0.5-8.2-2.4-16-5.4-23.2l-27.1-75.2L560.3,143l-3.6-10.1l-0.4-1c-2.5-6.5-8.9-11.1-16.3-11.1
			C532.2,120.9,525.5,126,523.3,133.1"/>
	</defs>
	<clipPath id="SVGID_5_">
		<use xlink:href="#SVGID_4_"  style="overflow:visible;"/>
	</clipPath>
	
		<linearGradient id="SVGID_6_" gradientUnits="userSpaceOnUse" x1="-420" y1="1079.9993" x2="-419" y2="1079.9993" gradientTransform="matrix(400.9312 244.9582 244.9582 -400.9312 -95821.1172 536169.4375)">
		<stop  offset="0" style="stop-color:#849282"/>
		<stop  offset="0.5957" style="stop-color:#5C6868"/>
		<stop  offset="1" style="stop-color:#46505A"/>
	</linearGradient>
	<polygon class="st1" points="423.3,-106.6 1046.1,273.9 656.7,911.2 33.9,530.7 	"/>
</g>
<path d="M305.3,912.7h8.6V762.2h-8.6v-3.6H348c16.7,0,33.7,11.1,33.7,35v11.5c0,18.7-13.1,28.7-24,30c12.7,0.5,25.8,12.2,25.8,32
	v12.2c0,27.1-17.9,37-34.8,37h-43.4V912.7z M346,833.3c6.6,0,8.6-7,8.6-21.9v-25.3c0-16.7-1.8-23.9-9.3-23.9h-5.4v71.1H346z
	 M356.4,858.8c0-15.6-2.9-21.9-9.7-21.9h-6.8v75.8h7.2c6.8,0,9.3-8.3,9.3-25.9V858.8z"/>
<path d="M407.7,796.7c0-21,17.7-39.5,38-39.5c20.4,0,38.5,18.1,38.5,39.5v80.3c0,22.3-17.9,40.6-38.2,40.6
	c-20.4,0-38.2-18.3-38.2-40.6V796.7z M435.1,897.1c0,11.3,2.5,16.9,10.9,16.9c8.6,0,10.9-5.4,10.9-16.9V778.7
	c0-10.4-2.3-17.8-10.9-17.8c-8.4,0-10.9,7.4-10.9,17.8V897.1z"/>
<path d="M736.5,757.2c6.8,0,12,2,15.8,5.9c2.5-0.4,2.7-1.8,2.7-4.5h3.6v36.1h-3.6v-13.1c0-11.5-7-20.8-17.7-20.8
	c-9.5,0-12,6.8-12,18.3v119.4c0,9.9,3.2,15.6,9.7,15.6c5,0,7.7-3.2,7.7-8.8v-46.9h-7.2v-3.6h39.1v3.6h-7v58h-3.8
	c0-6.1-1.4-8.1-3.4-8.1c-5.2,0-13.6,9.5-26,9.5c-16.7,0-36.2-17.4-36.2-40.8v-81.9C698.3,777.8,714.1,757.2,736.5,757.2"/>
<path d="M502.8,761.5v-3.6H547v3.6h-8.4V894c0,14,2.3,19.2,11.1,19.2c6.8,0,19.7-3.6,19.7-28.2V761.5H561v-3.6h20.6v3.6H573v121.6
	c0,20.3-5.4,33.8-26.7,33.8c-15.6,0-34.9-7.2-34.9-31.8V761.5H502.8z"/>
<path d="M595,912.7h8.6V762.2H595v-3.6h44.6c19.9,0,34.2,16.7,34.2,33.2v14.4c0,14.9-11.1,30.2-28.5,32.7c7,0.9,21.7,6.1,24.9,24.6
	l7.2,49.2h9.1v3.6h-36.2l-8.8-59.3c-2.3-15.3-4.1-17.6-9.5-17.6h-1.1v73.3h8.4v3.6H595V912.7z M646.6,778.9c0-7.4-1.8-16.7-9.1-16.7
	h-6.8v73.6h7.5c5.7,0,8.4-6.3,8.4-16.7V778.9z"/>
<path class="st2" d="M326.7,959.7c-2.3-1.9-5.5-2.9-9.6-2.9h-11.9v31.9h3.4v-10.1h8.6c4.1,0,7.3-1,9.6-2.9s3.5-4.6,3.5-8
	C330.2,964.3,329.1,961.6,326.7,959.7 M324.3,973.5c-1.7,1.4-4.1,2.1-7.2,2.1h-8.5v-15.9h8.5c3.2,0,5.6,0.7,7.2,2.1
	c1.7,1.4,2.5,3.4,2.5,5.9C326.8,970.2,326,972.1,324.3,973.5"/>
<path class="st2" d="M360.6,974c1.3-1.7,1.9-3.8,1.9-6.3c0-3.4-1.2-6.1-3.5-8c-2.3-1.9-5.5-2.9-9.6-2.9h-11.9v31.9h3.4v-10.1h8.6
	c0.9,0,1.7,0,2.6-0.1l7.3,10.2h3.7l-7.8-10.9C357.5,976.9,359.3,975.7,360.6,974 M349.3,975.6h-8.5v-16h8.5c3.2,0,5.6,0.7,7.2,2.1
	c1.7,1.4,2.5,3.4,2.5,5.9c0,2.5-0.8,4.5-2.5,5.9C354.9,974.9,352.5,975.6,349.3,975.6"/>
<polygon class="st2" points="373.8,973.9 390.3,973.9 390.3,971 373.8,971 373.8,959.7 392.3,959.7 392.3,956.8 370.4,956.8 
	370.4,988.6 393,988.6 393,985.7 373.8,985.7 "/>
<polygon class="st2" points="417.5,980.4 403.7,956.8 400.9,956.8 400.9,988.6 404.1,988.6 404.1,963.3 416.6,984.6 418.2,984.6 
	430.7,963.1 430.7,988.6 434,988.6 434,956.8 431.2,956.8 "/>
<rect x="444.4" y="956.8" class="st2" width="3.4" height="31.9"/>
<path class="st2" d="M480.7,974.9c0,3.7-0.8,6.5-2.5,8.3c-1.7,1.8-4.1,2.7-7.3,2.7c-3.2,0-5.6-0.9-7.2-2.7c-1.7-1.8-2.5-4.6-2.5-8.3
	v-18.1h-3.4V975c0,4.5,1.2,8,3.5,10.3c2.3,2.4,5.5,3.5,9.7,3.5s7.3-1.2,9.6-3.5c2.3-2.4,3.4-5.8,3.4-10.3v-18.3h-3.3V974.9z"/>
<polygon class="st2" points="510.8,980.4 496.9,956.8 494.2,956.8 494.2,988.6 497.4,988.6 497.4,963.3 509.9,984.6 511.5,984.6 
	524,963.1 524,988.6 527.3,988.6 527.3,956.8 524.5,956.8 "/>
<polygon class="st2" points="544.6,959.7 555.8,959.7 555.8,988.6 559.1,988.6 559.1,959.7 570.3,959.7 570.3,956.8 544.6,956.8 "/>
<path class="st2" d="M597.7,958.6c-2.5-1.4-5.4-2.1-8.5-2.1c-3.2,0-6,0.7-8.6,2.1c-2.6,1.4-4.6,3.3-6,5.8c-1.4,2.5-2.2,5.2-2.2,8.3
	c0,3.1,0.7,5.8,2.2,8.3c1.4,2.5,3.4,4.4,6,5.8c2.6,1.4,5.4,2.1,8.6,2.1c3.2,0,6-0.7,8.5-2.1c2.5-1.4,4.5-3.3,6-5.8
	c1.5-2.5,2.2-5.2,2.2-8.3c0-3.1-0.7-5.8-2.2-8.3C602.3,961.9,600.3,960,597.7,958.6 M600.8,979.4c-1.2,2-2.7,3.6-4.8,4.7
	c-2,1.1-4.3,1.7-6.8,1.7c-2.5,0-4.8-0.6-6.9-1.7c-2-1.1-3.7-2.7-4.8-4.7c-1.2-2-1.8-4.3-1.8-6.8c0-2.5,0.6-4.7,1.8-6.8
	c1.2-2,2.8-3.6,4.8-4.7c2-1.1,4.3-1.7,6.9-1.7c2.5,0,4.8,0.6,6.8,1.7c2,1.1,3.6,2.7,4.8,4.7c1.2,2,1.7,4.3,1.7,6.8
	C602.5,975.2,602,977.4,600.8,979.4"/>
<path class="st2" d="M633.5,972.2c1.5-0.6,2.7-1.5,3.6-2.8c0.9-1.2,1.3-2.7,1.3-4.5c0-2.6-1-4.6-2.9-6.1s-4.7-2.1-8.3-2.1h-13.8
	v31.9h14.7c3.9,0,6.9-0.7,8.9-2.2c2-1.5,3-3.6,3-6.3c0-2.1-0.6-3.9-1.7-5.2C637.3,973.5,635.6,972.6,633.5,972.2 M616.8,959.5H627
	c2.6,0,4.6,0.5,6,1.5c1.4,1,2.1,2.4,2.1,4.3c0,1.9-0.7,3.3-2.1,4.3c-1.4,1-3.4,1.5-6,1.5h-10.2V959.5z M634.5,984.4
	c-1.5,1-3.6,1.5-6.5,1.5h-11.2v-12h11.2c5.8,0,8.7,2,8.7,6C636.7,981.9,636,983.4,634.5,984.4"/>
<path class="st2" d="M657.3,956.8l-14.6,31.9h3.5l3.8-8.5h17.8l3.8,8.5h3.6l-14.6-31.9H657.3z M651.3,977.4l7.6-17.1l7.7,17.1H651.3
	z"/>
<path class="st2" d="M687.1,961.2c2.1-1.2,4.4-1.7,6.9-1.7c3.8,0,6.9,1.3,9.4,3.8l2.1-2.1c-1.4-1.5-3.1-2.7-5.1-3.5
	c-2-0.8-4.2-1.2-6.6-1.2c-3.2,0-6,0.7-8.6,2.1c-2.6,1.4-4.5,3.3-6,5.8c-1.4,2.5-2.2,5.2-2.2,8.3c0,3.1,0.7,5.8,2.2,8.3
	s3.4,4.4,6,5.8c2.5,1.4,5.4,2.1,8.5,2.1c2.4,0,4.6-0.4,6.6-1.2c2-0.8,3.7-2,5.1-3.5l-2.1-2.1c-2.5,2.5-5.6,3.8-9.4,3.8
	c-2.5,0-4.8-0.6-6.9-1.7c-2.1-1.2-3.7-2.7-4.9-4.7c-1.2-2-1.8-4.3-1.8-6.7c0-2.5,0.6-4.7,1.8-6.7C683.4,963.9,685,962.4,687.1,961.2
	"/>
<path class="st2" d="M719.1,961.2c2.1-1.2,4.4-1.7,6.9-1.7c3.8,0,6.9,1.3,9.4,3.8l2.1-2.1c-1.4-1.5-3.1-2.7-5.1-3.5
	c-2-0.8-4.2-1.2-6.6-1.2c-3.2,0-6,0.7-8.6,2.1c-2.6,1.4-4.5,3.3-6,5.8c-1.4,2.5-2.2,5.2-2.2,8.3c0,3.1,0.7,5.8,2.2,8.3
	c1.4,2.5,3.4,4.4,6,5.8c2.5,1.4,5.4,2.1,8.5,2.1c2.4,0,4.6-0.4,6.6-1.2c2-0.8,3.7-2,5.1-3.5l-2.1-2.1c-2.5,2.5-5.6,3.8-9.4,3.8
	c-2.5,0-4.8-0.6-6.9-1.7c-2.1-1.2-3.7-2.7-4.9-4.7c-1.2-2-1.8-4.3-1.8-6.7c0-2.5,0.6-4.7,1.8-6.7
	C715.5,963.9,717.1,962.4,719.1,961.2"/>
<path class="st2" d="M772.6,964.4c-1.5-2.5-3.5-4.4-6-5.8c-2.5-1.4-5.4-2.1-8.5-2.1c-3.2,0-6,0.7-8.6,2.1c-2.6,1.4-4.6,3.3-6,5.8
	s-2.2,5.2-2.2,8.3c0,3.1,0.7,5.8,2.2,8.3c1.4,2.5,3.4,4.4,6,5.8c2.6,1.4,5.4,2.1,8.6,2.1c3.2,0,6-0.7,8.5-2.1c2.5-1.4,4.5-3.3,6-5.8
	c1.5-2.5,2.2-5.2,2.2-8.3C774.7,969.6,774,966.9,772.6,964.4 M769.6,979.4c-1.2,2-2.7,3.6-4.8,4.7c-2,1.1-4.3,1.7-6.8,1.7
	c-2.5,0-4.8-0.6-6.9-1.7c-2.1-1.1-3.7-2.7-4.8-4.7c-1.2-2-1.8-4.3-1.8-6.8c0-2.5,0.6-4.7,1.8-6.8c1.2-2,2.8-3.6,4.8-4.7
	c2-1.1,4.3-1.7,6.9-1.7c2.5,0,4.8,0.6,6.8,1.7c2,1.1,3.6,2.7,4.8,4.7c1.2,2,1.7,4.3,1.7,6.8C771.4,975.2,770.8,977.4,769.6,979.4"/>
</svg>
