<?xml version="1.0" encoding="utf-8"?>
<!-- Generator: Adobe Illustrator 23.0.5, SVG Export Plug-In . SVG Version: 6.00 Build 0)  -->
<svg version="1.1" id="Layer_1" xmlns="http://www.w3.org/2000/svg" xmlns:xlink="http://www.w3.org/1999/xlink" x="0px" y="0px"
	 viewBox="0 0 1080 712" style="enable-background:new 0 0 1080 712;" xml:space="preserve">
<style type="text/css">
	.st0{fill:#061621;}
	.st1{clip-path:url(#SVGID_2_);fill:#C8A23C;}
	.st2{clip-path:url(#SVGID_4_);fill:url(#SVGID_5_);}
	.st3{clip-path:url(#SVGID_7_);fill:url(#SVGID_8_);}
	.st4{clip-path:url(#SVGID_10_);fill:url(#SVGID_11_);}
	.st5{clip-path:url(#SVGID_13_);fill:url(#SVGID_14_);}
	.st6{clip-path:url(#SVGID_16_);fill:url(#SVGID_17_);}
	.st7{clip-path:url(#SVGID_19_);fill:url(#SVGID_20_);}
</style>
<rect class="st0" width="1080" height="712"/>
<g>
	<defs>
		<rect id="SVGID_1_" width="1080" height="712"/>
	</defs>
	<clipPath id="SVGID_2_">
		<use xlink:href="#SVGID_1_"  style="overflow:visible;"/>
	</clipPath>
	<path class="st1" d="M809.2,318.5c1.8,1.1,3.9,1.7,6.2,1.7c3.2,0,6.2-1.2,8.9-3.5c2.7-2.3,4.1-4.7,4.1-7.2c0-2.5-0.7-4.2-2.2-5.2
		c-1.5-1-3.3-1.4-5.5-1.4c-3.3,0-6.6,1-9.6,3c-3.1,2-4.6,4.5-4.6,7.3C806.4,315.6,807.3,317.3,809.2,318.5"/>
</g>
<g>
	<defs>
		<path id="SVGID_3_" d="M877,391.5c-2.3-3.5-3.4-7.1-3.4-11.1c0-2.9,0.8-4.5,2.5-4.8c2.1,2.9,5.2,5.7,9.1,8.4
			c3.9,2.7,8.3,4.6,13.2,5.7c-1.2,2.3-2.8,4-4.8,5.2c-2,1.2-4.2,1.8-6.6,1.8C882.6,396.6,879.3,394.9,877,391.5 M887.2,378.2
			c-3.7-2.9-6.5-5.9-8.4-9.1c2.5-2.6,5.2-6.1,8-10.4c2.9-4.3,5.4-8.3,7.5-12c1.3,5.5,2.6,10.8,3.9,16.1c1.3,5.2,2,10.5,2.1,15.9
			c0,0.6,0,1.5-0.1,2.6c-0.1,1.1-0.2,2.1-0.4,2.9C895.1,383.1,890.9,381.1,887.2,378.2 M850.5,332.8c2.8-6.6,5.7-12.9,8.8-18.8
			c3-6,6-11.3,8.8-15.9c2.9-4.6,5.3-8.3,7.4-11c2.1-2.7,3.6-4,4.6-4v0.3v0.3c-0.1,2.4-0.8,5.6-2.1,9.6c-1.3,4-3,8.5-5.3,13.5
			c-2.3,5-4.9,10.2-8,15.5c-3,5.4-6.4,10.6-10,15.8c-3.6,5.2-7.5,10-11.5,14.4C845.3,345.9,847.7,339.4,850.5,332.8 M871.9,272.7
			c-3.6,4-7.6,9.3-11.9,16c-4.3,6.7-8.5,14.1-12.8,22.4c-4.2,8.3-8.1,16.7-11.6,25.4c-3.5,8.6-6.3,16.9-8.5,24.7
			c-0.9,3.3-1.6,6.4-2.1,9.3c-4,7-7.9,12.1-11.6,15.3c-4.8,4.1-9.2,6.1-13.2,6.1c-2.6,0-4.6-0.6-6-1.9c-1.4-1.3-2.1-3.8-2.1-7.6
			c0-3.9,0.9-8.1,2.8-12.4c1.8-4.3,4-8.5,6.4-12.6c2.4-4,4.6-7.6,6.4-10.7c1.8-3.1,2.8-5.4,2.8-7c0-1.8-0.5-3.1-1.6-3.9
			c-1.1-0.8-2.3-1.3-3.8-1.3c-2.6,0-5.2,1.3-7.9,3.8c-2.6,2.6-5.1,5.9-7.3,9.9c-2.3,4-4.3,8.4-6,13c-1.1,3-2.1,5.9-2.9,8.8
			c-4.3,7.2-8.5,12.5-12.7,15.9c-5.2,4.2-9.2,6.3-12.1,6.3c-1.9,0-3.3-0.7-4.1-2.1c-0.8-1.4-1.3-2.8-1.3-4.4c0-2,0.5-4.1,1.5-6.3
			c1-2.2,2.2-4.4,3.6-6.6c1.4-2.2,2.6-4.2,3.6-6.1c1-1.8,1.5-3.4,1.5-4.6c0-1.3-0.6-2.4-1.8-3.2c-1.2-0.8-2.5-1.5-3.8-1.9
			c-1.4-0.4-2.3-0.7-2.8-0.8c-0.6,0-1.1,0.3-1.4,0.9c-2.3,3-4.9,6.6-8,10.8c-3.1,4.2-6.3,8.4-9.7,12.4c-3.4,4-6.8,7.4-10.1,10.1
			c-3.3,2.7-6.4,4-9.1,4c-2.7,0-4.1-1.9-4.1-5.7c0-3.3,0.7-7.1,2.1-11.3c1.4-4.2,3.4-8.4,5.9-12.8c2.5-4.3,5.3-8.3,8.5-12
			c3.2-3.6,6.5-6.6,9.9-8.8c3.5-2.3,6.8-3.4,10.2-3.4c3.1,0,5.1,1,6.1,2.9c1,1.9,1.4,4,1.4,6.4c0,1.2-0.1,2.3-0.3,3.4
			c-0.2,1.1-0.4,2.1-0.6,3.2c3.1,0.6,5.8,0.2,8-1.3c2.3-1.4,3.4-3.8,3.4-7c0-4.3-1.8-7.7-5.4-10.4c-3.6-2.6-7.9-3.9-13-3.9
			c-4.9,0-9.8,1.2-14.7,3.6c-4.9,2.4-9.5,5.5-13.8,9.4c-4.3,3.9-8.1,8.2-11.4,13c-3.3,4.8-6,9.6-7.9,14.5c-1.9,4.9-2.9,9.4-2.9,13.6
			c0,5.2,1.5,9.2,4.4,11.8c2.9,2.6,6.3,3.9,10.3,3.9c4.5,0,8.8-1.7,12.8-5c4-3.3,8.4-7.9,13.1-13.6v0.4v0.5c0.2,3.6,1.5,6.9,3.9,10
			c2.4,3.1,6,4.6,10.9,4.6c4.5,0,9-1.4,13.4-4.2c4.4-2.8,8.6-6.7,12.6-11.6c0.4-0.5,0.8-1,1.2-1.5c0,0.5,0,1,0,1.5
			c0,4.4,1.3,8.2,3.9,11.3c2.6,3.1,6.6,4.6,11.8,4.6c7.4,0,14.3-2.9,20.7-8.8c3.3-3,6.3-6.6,8.9-10.7c0,0.2,0,0.4,0,0.6
			c0,5.1,1.1,9.6,3.3,13.3c2.2,3.8,6.1,5.6,11.7,5.6c6.9,0,13.5-3.1,19.8-9.2c1.9-1.8,3.7-3.9,5.5-6.1c0.4,2.1,1,4.1,1.8,6.1
			c1.5,3.8,4.1,6.8,7.8,9.3c3.6,2.4,8.4,3.7,14.4,3.7c5.5,0,10.4-1.2,14.7-3.6c4.3-2.4,7.5-6,9.4-10.9c5.7-1,10.7-3.5,15-7.6
			c4.3-4.1,7.6-9.6,9.8-16.3l-2.1-1.6c-3.2,6.2-6.6,10.9-10.2,14c-3.6,3.2-7.2,5.2-10.9,6.2c0.2-1.1,0.4-2.2,0.5-3.4
			c0.1-1.2,0.2-2.5,0.2-3.9c0-5.4-0.9-10.6-2.6-15.7c-1.7-5.1-3.5-10-5.2-14.6c-1.7-4.6-2.6-8.7-2.6-12.2c0-1.7,0.1-3,0.4-3.9
			c0.3-1,0.4-1.8,0.4-2.5c-0.1-1-0.5-1.8-1.2-2.5c-0.7-0.7-1.7-1.1-3.1-1.1c-2.1,0-4,1-5.6,2.9c-1.6,2-2.4,5.3-2.4,10.1v1.8
			c-2.3,5-5,9.6-8.1,13.7c-3.2,4.1-6.2,7.7-9.2,10.8c-0.4,0.4-1,0.8-1.8,1.2l-2.2-1.2c-0.4,0.9-0.9,1.9-1.4,2.8
			c-0.5,0.3-1,0.6-1.5,0.9c-1.4,0.9-2.6,2.3-3.6,4.2c-0.7,1.5-1.2,3.5-1.4,5.9c-2.9,4.2-5.8,7.7-8.9,10.4c-3.2,2.8-6.2,4.2-9.2,4.2
			c-2.3,0-4.1-1-5.5-2.9c-1.4-2-2.1-5.1-2.1-9.4c0-2.4,0.2-5,0.6-8c0.4-2.9,0.9-5.9,1.3-8.8c5.5-4.3,10.6-9.3,15.5-15.2
			c4.8-5.8,9.2-12,13.2-18.5c4-6.5,7.4-12.8,10.4-19c2.9-6.2,5.2-11.9,6.8-17.1c1.6-5.2,2.4-9.4,2.4-12.6c0-1.9-0.3-4-1-6.2
			c-0.7-2.2-1.5-4.1-2.6-5.7c-1.1-1.6-2.4-2.4-3.9-2.4C878.5,266.8,875.5,268.7,871.9,272.7"/>
	</defs>
	<clipPath id="SVGID_4_">
		<use xlink:href="#SVGID_3_"  style="overflow:visible;"/>
	</clipPath>
	
		<linearGradient id="SVGID_5_" gradientUnits="userSpaceOnUse" x1="1.265200e-06" y1="712" x2="1" y2="712" gradientTransform="matrix(241.2074 0 0 -241.2074 696.0087 172075.2969)">
		<stop  offset="0" style="stop-color:#A56C0B"/>
		<stop  offset="0.1705" style="stop-color:#DFC25B"/>
		<stop  offset="0.2527" style="stop-color:#F8E67D"/>
		<stop  offset="0.4575" style="stop-color:#D7B750"/>
		<stop  offset="0.5657" style="stop-color:#C9A33D"/>
		<stop  offset="0.6612" style="stop-color:#CEAB44"/>
		<stop  offset="0.8076" style="stop-color:#DDC059"/>
		<stop  offset="0.9858" style="stop-color:#F6E37A"/>
		<stop  offset="1" style="stop-color:#F8E67D"/>
	</linearGradient>
	<rect x="696" y="266.8" class="st2" width="241.2" height="137.8"/>
</g>
<g>
	<defs>
		<path id="SVGID_6_" d="M72,439V273c0-42.9,34.9-77.9,77.9-77.9h780.3c42.9,0,77.9,34.9,77.9,77.9v166c0,42.9-34.9,77.9-77.9,77.9
			H149.9C106.9,516.9,72,481.9,72,439 M149.9,183.2c-49.5,0-89.8,40.3-89.8,89.8v166c0,49.5,40.3,89.8,89.8,89.8h780.3
			c49.5,0,89.8-40.3,89.8-89.8V273c0-49.5-40.3-89.8-89.8-89.8H149.9z"/>
	</defs>
	<clipPath id="SVGID_7_">
		<use xlink:href="#SVGID_6_"  style="overflow:visible;"/>
	</clipPath>
	
		<linearGradient id="SVGID_8_" gradientUnits="userSpaceOnUse" x1="-6.278569e-07" y1="712" x2="1" y2="712" gradientTransform="matrix(959.9668 0 0 -959.9668 60.0166 683852.375)">
		<stop  offset="0" style="stop-color:#F8E67D"/>
		<stop  offset="2.950370e-03" style="stop-color:#F6E37A"/>
		<stop  offset="4.976287e-02" style="stop-color:#D3B04A"/>
		<stop  offset="9.062562e-02" style="stop-color:#BA8B28"/>
		<stop  offset="0.1236" style="stop-color:#AB7413"/>
		<stop  offset="0.1445" style="stop-color:#A56C0B"/>
		<stop  offset="0.1786" style="stop-color:#AA7312"/>
		<stop  offset="0.2297" style="stop-color:#B88825"/>
		<stop  offset="0.2914" style="stop-color:#CFA944"/>
		<stop  offset="0.3608" style="stop-color:#EED76F"/>
		<stop  offset="0.3808" style="stop-color:#F8E67D"/>
		<stop  offset="0.5176" style="stop-color:#F4E178"/>
		<stop  offset="0.6871" style="stop-color:#EAD169"/>
		<stop  offset="0.8732" style="stop-color:#D8B851"/>
		<stop  offset="1" style="stop-color:#C9A33D"/>
	</linearGradient>
	<rect x="60" y="183.2" class="st3" width="960" height="345.7"/>
</g>
<g>
	<defs>
		<path id="SVGID_9_" d="M470.3,437.2c-0.5-1.1-0.8-2.2-0.8-3.4c0-3,1.3-5.9,3.9-8.8c2.6-2.9,5.9-5.6,9.7-8.1
			c3.9-2.6,7.7-4.8,11.5-6.7c-4.2,9.5-8.3,16.7-12.3,21.4c-4.1,4.8-7.2,7.1-9.5,7.1C471.7,438.8,470.8,438.3,470.3,437.2
			 M266.7,365.2c-0.9-3.6-1.3-6.6-1.3-9.1c0-4.9,1.2-8.9,3.6-12.2c2.4-3.2,4.7-4.8,7-4.8c1.7,0,2.9,0.6,3.8,1.9
			c0.8,1.3,1.3,3.2,1.3,6c0,4.1-1,8.5-3,13.2c-2,4.8-4.5,9.2-7.3,13.4C268.9,371.6,267.6,368.8,266.7,365.2 M196.2,272.7
			c-7.3,3.9-14.2,9.1-20.6,15.8c-6.4,6.7-12.2,14.3-17.2,22.9c-5.1,8.6-9,17.6-11.9,27.1c-2.9,9.5-4.3,18.9-4.3,28.3
			c0,7.3,1.3,14.3,4,21.1c2.7,6.8,6.9,12.3,12.7,16.6c5.8,4.3,13.2,6.4,22.2,6.4c8.5,0,16.3-2,23.7-6c7.3-4,13.9-9.3,19.7-15.9
			c1.4-1.5,2.7-3.1,3.9-4.7c0,4.2,1,8,2.9,11.5c2,3.5,5.6,5.3,11,5.3c5.4,0,10.7-1.8,15.9-5.4c5.2-3.6,9.9-7.7,13.9-12.5
			c1.3,0.5,2.7,0.9,4.3,1.2c1.5,0.3,3.1,0.4,4.6,0.4c4.2,0,8.4-1.4,12.8-4.2c0.5-0.3,1-0.7,1.4-1c-1.1,2.9-2.1,5.5-3.1,7.8
			c-1.3,3-1.9,4.9-2.1,5.5c1.4,1.9,3.2,3.2,5.2,4c2,0.8,4.2,1.2,6.4,1.2c2.3-3.8,4.9-8.1,8-12.9c3.1-4.8,6.4-9.4,9.9-13.8
			c3.5-4.4,7.1-8.1,10.9-11c3.8-2.9,7.4-4.4,11-4.4c1.7,0,3.1,0.5,4.4,1.5c1.3,1,1.9,2.8,1.9,5.4c0,2.5-0.4,5.1-1.2,7.9
			c-0.8,2.7-1.7,5.4-2.5,8.1c-0.8,2.7-1.3,5.2-1.3,7.6c0,3.6,1.2,6.5,3.7,8.8c2.4,2.3,6,3.5,10.6,3.5c4.8,0,9.1-1.5,13-4.4
			c2.1-1.6,4.1-3.5,6-5.6c-0.8,2.1-1.3,3.4-1.4,3.9c1.4,1.9,3.2,3.2,5.2,4c2,0.8,4.2,1.2,6.4,1.2c2.3-3.8,4.9-8.1,8-12.9
			c3.1-4.8,6.4-9.4,9.9-13.8c3.5-4.4,7.1-8.1,10.9-11c3.8-2.9,7.4-4.4,11-4.4c1.7,0,3.1,0.5,4.4,1.5c1.3,1,1.9,2.8,1.9,5.4
			c0,2.5-0.4,5.1-1.3,7.9c-0.8,2.7-1.7,5.4-2.5,8.1c-0.8,2.7-1.3,5.2-1.3,7.6c0,3.6,1.2,6.5,3.7,8.8c2.4,2.3,6,3.5,10.6,3.5
			c4.8,0,9.1-1.5,13-4.4c3.9-2.9,7.4-6.8,10.5-11.6c0.2-0.3,0.4-0.7,0.6-1c0.3,2.4,1.1,4.4,2.2,6c1.6,2.2,3.6,3.8,6,4.6
			c2.4,0.9,4.6,1.3,6.8,1.3c5.1,0,9.8-2,13.9-5.9c4.2-3.9,8.1-8.5,11.8-13.6c-1.2,4.5-2.6,9.4-4.2,14.7c-1.6,5.3-3.1,9.7-4.4,13.1
			c-3.8,1.8-7.8,3.7-11.9,5.8c-4.1,2.1-8,4.4-11.5,7c-3.6,2.6-6.5,5.4-8.8,8.4c-2.3,3-3.4,6.5-3.4,10.3c0,4,1.3,7,3.8,8.8
			c2.6,1.8,5.3,2.8,8.3,2.8c4.8,0,9.2-1.9,13.4-5.8c4.2-3.9,8.1-9.1,11.9-15.6c3.8-6.6,7.2-13.7,10.5-21.4c4.6-2,9.2-4.6,13.8-7.7
			c4.5-3.1,8.6-6.8,12.2-11.3c3.6-4.4,6.3-9.6,8.1-15.5l-3-2.5c-3.3,8.7-7.7,15.4-13.1,20.1c-5.4,4.7-10.6,8.1-15.6,10.1
			c2.5-6.8,4.8-13.6,6.8-20.4c2-6.8,3.7-12.8,4.9-18c1.3-5.2,1.9-8.7,1.9-10.5c-1.2-0.2-2.2-0.4-3-0.5c-0.8-0.1-1.7-0.2-2.7-0.2
			c-2.7,0-4.9,0.8-6.3,2.5c-1.5,1.7-2.5,3.5-3.1,5.5c-0.6,1.9-1,3.8-1.3,5.5c-0.2,1.8-0.5,3.1-0.7,3.9c-2.1,3.5-4.6,6.9-7.2,10.2
			c-2.7,3.3-5.4,6.1-8.2,8.2c-2.8,2.1-5.5,3.2-8.1,3.2c-2,0-3.4-0.7-4.1-2c-0.7-1.3-1.1-2.9-1.1-4.6c0-2.3,0.4-4.9,1.2-8
			c0.8-3.1,1.8-6.3,2.9-9.6c1.2-3.3,2.4-6.3,3.8-8.9c1.3-2.7,2.5-4.7,3.6-6.2c-0.4-1.1-1.2-2.1-2.5-2.9c-1.3-0.9-2.7-1.6-4-2.1
			c-1.4-0.5-2.4-0.8-3.1-0.8c-1.4,0-3.1,1.4-5,4.2c-1.9,2.8-3.7,6.3-5.4,10.5c-1.7,4.2-3.2,8.5-4.3,13c-0.4,1.5-0.7,3-1,4.4
			c-1,1.7-2,3.3-3.1,5c-2.8,4.2-5.7,7.7-8.8,10.5c-3.1,2.7-6.1,4.1-8.9,4.1c-1.1,0-2.1-0.4-2.9-1.2c-0.9-0.8-1.3-2.1-1.3-4
			c0-2.6,0.6-5.3,1.7-8c1.1-2.7,2.3-5.7,3.5-8.8c1.2-3.1,1.8-6.4,1.8-10c0-4.2-1.2-8-3.7-11.4c-2.4-3.5-6.2-5.2-11.3-5.2
			c-4.1,0-8.1,1.2-12.1,3.5c-4,2.3-7.8,5.3-11.5,9c-3.7,3.7-7.1,7.6-10.2,11.8c1-3.6,1.7-6.8,2.2-9.6c0.5-2.8,0.8-4.9,0.8-6.3
			c0-3.6-2.1-5.4-6.3-5.4c-1.9,0-3.7,0.5-5.4,1.4c-1.7,1-3,1.9-3.8,2.9c0,3.8-0.6,8-1.8,12.7c-0.6,2.3-1.2,4.6-1.9,6.8
			c-1.4,2.4-2.8,4.8-4.4,7.2c-2.8,4.2-5.7,7.7-8.8,10.5c-3.1,2.7-6.1,4.1-8.9,4.1c-1.1,0-2.1-0.4-2.9-1.2c-0.9-0.8-1.3-2.1-1.3-4
			c0-2.6,0.6-5.3,1.7-8c1.1-2.7,2.3-5.7,3.5-8.8c1.2-3.1,1.8-6.4,1.8-10c0-4.2-1.2-8-3.7-11.4c-2.4-3.5-6.2-5.2-11.3-5.2
			c-4.1,0-8.1,1.2-12.1,3.5c-4,2.3-7.8,5.3-11.5,9c-3.7,3.7-7.1,7.6-10.2,11.8c1-3.6,1.7-6.8,2.2-9.6c0.5-2.8,0.8-4.9,0.8-6.3
			c0-3.6-2.1-5.4-6.3-5.4c-1.9,0-3.7,0.5-5.4,1.4c-1.7,1-3,1.9-3.8,2.9c0,3.8-0.6,8-1.8,12.7c-0.5,2-1,3.9-1.6,5.7
			c-1,1.5-2.2,2.9-3.6,4c-2.4,2-4.8,3.4-7.3,4.2c-2.5,0.8-4.6,1.3-6.4,1.3c-1.9,0-3.6-0.4-5-1.1c3.2-4.9,6-10.1,8.3-15.5
			c2.3-5.5,3.5-10.4,3.5-14.8c0-3.9-1-7.3-3.1-10.2c-2.1-2.9-5.7-4.3-10.8-4.3c-4.8,0-8.5,1.2-11.3,3.6c-2.8,2.4-4.8,5.2-6.1,8.4
			c-1.3,3.2-1.9,6.1-1.9,8.6c0,5.8,0.8,10.8,2.5,14.9c1.7,4.1,4.4,7.9,8.2,11.3c-2.9,3.3-5.9,6.3-9,8.8c-3.2,2.6-5.9,3.8-8.1,3.8
			c-2.3,0-3.8-0.8-4.7-2.3c-0.9-1.5-1.3-3.5-1.3-5.9c0-2.5,0.4-5.2,1.1-8.2c0.7-3,1.7-5.9,2.9-8.8c1.3-2.9,2.6-5.7,4.1-8.3
			c1.5-2.6,2.9-4.8,4.4-6.6c-0.5-0.6-1.3-1-2.4-1.3c-1.1-0.3-2.1-0.4-2.9-0.4c-2.6,0-5.2,1-7.8,3.1c-2.6,2.1-4.9,4.9-7,8.3
			c-2,3.3-3.6,6.8-4.7,10.6c-2.4,3.7-5.2,7.3-8.3,10.8c-5.3,5.8-11.1,10.5-17.5,14.1c-6.4,3.6-12.8,5.4-19.2,5.4
			c-6.2,0-11.2-1.6-15-4.9c-3.8-3.3-6.6-7.5-8.3-12.7c-1.7-5.2-2.6-10.6-2.6-16.3c0-7.7,1.2-15.9,3.6-24.6c2.4-8.6,5.6-17,9.7-25.2
			c4.1-8.2,8.7-15.5,13.8-22.2c5.1-6.6,10.5-11.9,16-15.8c5.5-3.9,10.9-5.9,16.2-5.9c3,0,5.1,0.6,6.3,1.9c1.2,1.3,1.8,2.9,1.8,5.1
			c0,2.4-0.7,5.2-2,8.3c-1.3,3.2-3,6.4-5,9.7c-2,3.3-4.2,6.4-6.4,9.3c-2.3,2.9-4.3,5.4-6.1,7.4c1.1,2,2.3,3.5,3.6,4.3
			c1.3,0.8,2.6,1.3,3.8,1.3c2.7,0,5.4-1.3,8-3.9c2.6-2.6,5-6,7.1-10.1c2.1-4.1,3.8-8.4,5-12.8c1.3-4.4,1.9-8.4,1.9-12
			c0-6-1.8-10.2-5.4-12.6c-3.6-2.4-8-3.7-13.2-3.7C210.8,266.9,203.5,268.9,196.2,272.7"/>
	</defs>
	<clipPath id="SVGID_10_">
		<use xlink:href="#SVGID_9_"  style="overflow:visible;"/>
	</clipPath>
	
		<linearGradient id="SVGID_11_" gradientUnits="userSpaceOnUse" x1="-3.412961e-07" y1="712" x2="1" y2="712" gradientTransform="matrix(402.3741 0 0 -402.3741 142.1191 286846.5625)">
		<stop  offset="0" style="stop-color:#A56C0B"/>
		<stop  offset="0.1705" style="stop-color:#DFC25B"/>
		<stop  offset="0.2527" style="stop-color:#F8E67D"/>
		<stop  offset="0.4575" style="stop-color:#D7B750"/>
		<stop  offset="0.5657" style="stop-color:#C9A33D"/>
		<stop  offset="0.6612" style="stop-color:#CEAB44"/>
		<stop  offset="0.8076" style="stop-color:#DDC059"/>
		<stop  offset="0.9858" style="stop-color:#F6E37A"/>
		<stop  offset="1" style="stop-color:#F8E67D"/>
	</linearGradient>
	<rect x="142.1" y="266.9" class="st4" width="402.4" height="178.5"/>
</g>
<g>
	<defs>
		<path id="SVGID_12_" d="M700.9,269.9c-2.3,2.2-4,4.3-5.1,6.2c-1.4,2.5-2.9,5.9-4.4,10.1c-1.5,4.2-3,9.1-4.6,14.6
			c-1.5,5.5-3.1,11.3-4.6,17.6c-1.5,6.3-3,12.7-4.6,19.2c-1.5,6.6-3.1,13-4.6,19.4c-1.5,6.4-2.9,12.4-4.4,18.1
			c-0.5-2.9-0.9-5.4-1.3-7.7c-0.4-2.3-0.9-5.1-1.4-8.4c-0.5-3.3-1.2-7.8-2.1-13.5c-0.8-5.7-2-13.2-3.4-22.8
			c-1.1-7.4-2.2-14.4-3.4-21.1c-1.2-6.7-2.7-12.6-4.4-17.9c-1.7-5.2-3.9-9.4-6.6-12.4c-2.7-3-6.1-4.6-10.3-4.6
			c-3.5,0-7.3,1-11.5,3.1c-4.2,2.1-8.3,4.8-12.1,8.2c-3.9,3.4-7.1,7.1-9.6,11.3c-2.5,4.1-3.8,8.2-3.8,12.2c0,3.3,1.1,6.1,3.2,8.3
			c2.1,2.2,5.8,3.3,11.1,3.3c-1.2-2.7-1.8-5.5-1.8-8.4c0-2.6,0.5-5.6,1.5-8.8c1-3.3,2.4-6.4,4.3-9.5c1.8-3,3.9-5.6,6.3-7.6
			c2.3-2,4.7-3,7.2-3c1,0,1.6,0.2,1.9,0.5c0.3,0.4,0.4,1,0.4,2c0,1.4-0.2,2.9-0.5,4.3c-0.4,1.4-0.6,2.3-0.7,2.7
			c-5.1,18-9.6,33.6-13.6,46.8c-3.9,13.2-7.4,24.6-10.4,34.2c-3,9.6-5.6,17.9-7.9,25c-2.3,7.1-4.3,13.6-6.1,19.6
			c2.7,0,5.2-0.9,7.5-2.7c2.3-1.8,4.5-5,6.8-9.6c2.3-4.6,4.8-11.2,7.7-19.7c2.9-8.5,6.2-19.5,10-33.1c3.8-13.5,8.4-30,13.8-49.6
			c0.6,2.9,1.4,7,2.3,12.4c1,5.4,2,11.6,3.2,18.4c1.2,6.9,2.4,13.8,3.8,21c1.3,7.1,2.6,14,3.8,20.5c1.2,6.5,2.3,12.1,3.2,16.9
			c1,4.8,1.7,8.2,2.1,10.2c1.4,6.1,3.5,10.2,6.3,12.2c2.8,2.1,6.4,3.1,10.8,3.1c0-4.6,0.6-10.7,1.7-18c1.1-7.4,2.6-15.6,4.6-24.6
			c1.9-9,4.1-18.3,6.5-27.9c2.4-9.6,5-19,7.6-28.2c2.6-9.2,5.2-17.8,7.8-25.7c2.6-7.9,4.9-14.6,6.9-19.9
			C706.4,266.6,703.2,267.7,700.9,269.9"/>
	</defs>
	<clipPath id="SVGID_13_">
		<use xlink:href="#SVGID_12_"  style="overflow:visible;"/>
	</clipPath>
	
		<linearGradient id="SVGID_14_" gradientUnits="userSpaceOnUse" x1="6.296761e-06" y1="712" x2="1" y2="712" gradientTransform="matrix(116.3173 0 0 -116.3173 593.9862 83156.6484)">
		<stop  offset="0" style="stop-color:#A56C0B"/>
		<stop  offset="0.1705" style="stop-color:#DFC25B"/>
		<stop  offset="0.2527" style="stop-color:#F8E67D"/>
		<stop  offset="0.4575" style="stop-color:#D7B750"/>
		<stop  offset="0.5657" style="stop-color:#C9A33D"/>
		<stop  offset="0.6612" style="stop-color:#CEAB44"/>
		<stop  offset="0.8076" style="stop-color:#DDC059"/>
		<stop  offset="0.9858" style="stop-color:#F6E37A"/>
		<stop  offset="1" style="stop-color:#F8E67D"/>
	</linearGradient>
	<rect x="594" y="266.6" class="st5" width="116.3" height="144.4"/>
</g>
<g>
	<defs>
		<path id="SVGID_15_" d="M142.8,425.1c-3.3,0-6,2.7-6,6c0,3.3,2.7,6,6,6h305.8c3.3,0,6-2.7,6-6c0-3.3-2.7-6-6-6H142.8z"/>
	</defs>
	<clipPath id="SVGID_16_">
		<use xlink:href="#SVGID_15_"  style="overflow:visible;"/>
	</clipPath>
	
		<linearGradient id="SVGID_17_" gradientUnits="userSpaceOnUse" x1="6.242317e-07" y1="712" x2="1" y2="712" gradientTransform="matrix(317.7734 0 0 -317.7734 136.8008 226685.8125)">
		<stop  offset="0" style="stop-color:#A56C0B"/>
		<stop  offset="9.302011e-02" style="stop-color:#A8700F"/>
		<stop  offset="0.1927" style="stop-color:#B17D1B"/>
		<stop  offset="0.2955" style="stop-color:#BF932F"/>
		<stop  offset="0.4003" style="stop-color:#D4B14B"/>
		<stop  offset="0.5059" style="stop-color:#EED76F"/>
		<stop  offset="0.5429" style="stop-color:#F8E67D"/>
		<stop  offset="0.6065" style="stop-color:#F4E178"/>
		<stop  offset="0.6853" style="stop-color:#EAD169"/>
		<stop  offset="0.7718" style="stop-color:#D8B851"/>
		<stop  offset="0.8308" style="stop-color:#C9A33D"/>
		<stop  offset="0.8735" style="stop-color:#C49B36"/>
		<stop  offset="0.9391" style="stop-color:#B68622"/>
		<stop  offset="1" style="stop-color:#A56C0B"/>
	</linearGradient>
	<rect x="136.8" y="425.1" class="st6" width="317.8" height="12"/>
</g>
<g>
	<defs>
		<path id="SVGID_18_" d="M511.1,425.1c-3.3,0-6,2.7-6,6c0,3.3,2.7,6,6,6h426.8c3.3,0,6-2.7,6-6c0-3.3-2.7-6-6-6H511.1z"/>
	</defs>
	<clipPath id="SVGID_19_">
		<use xlink:href="#SVGID_18_"  style="overflow:visible;"/>
	</clipPath>
	
		<linearGradient id="SVGID_20_" gradientUnits="userSpaceOnUse" x1="6.955315e-07" y1="712" x2="1" y2="712" gradientTransform="matrix(438.7666 0 0 -438.7666 505.0977 312832.9375)">
		<stop  offset="0" style="stop-color:#A56C0B"/>
		<stop  offset="9.302011e-02" style="stop-color:#A8700F"/>
		<stop  offset="0.1927" style="stop-color:#B17D1B"/>
		<stop  offset="0.2955" style="stop-color:#BF932F"/>
		<stop  offset="0.4003" style="stop-color:#D4B14B"/>
		<stop  offset="0.5059" style="stop-color:#EED76F"/>
		<stop  offset="0.5429" style="stop-color:#F8E67D"/>
		<stop  offset="0.6065" style="stop-color:#F4E178"/>
		<stop  offset="0.6853" style="stop-color:#EAD169"/>
		<stop  offset="0.7718" style="stop-color:#D8B851"/>
		<stop  offset="0.8308" style="stop-color:#C9A33D"/>
		<stop  offset="0.8735" style="stop-color:#C49B36"/>
		<stop  offset="0.9391" style="stop-color:#B68622"/>
		<stop  offset="1" style="stop-color:#A56C0B"/>
	</linearGradient>
	<rect x="505.1" y="425.1" class="st7" width="438.8" height="12"/>
</g>
</svg>
