<?xml version="1.0" encoding="utf-8"?>
<!-- Generator: Adobe Illustrator 23.0.5, SVG Export Plug-In . SVG Version: 6.00 Build 0)  -->
<svg version="1.1" id="Layer_1" xmlns="http://www.w3.org/2000/svg" xmlns:xlink="http://www.w3.org/1999/xlink" x="0px" y="0px"
	 viewBox="0 0 1080 1080" style="enable-background:new 0 0 1080 1080;" xml:space="preserve">
<style type="text/css">
	.st0{fill:#FDCAE1;}
	.st1{clip-path:url(#SVGID_2_);fill:#81338E;}
	.st2{clip-path:url(#SVGID_2_);fill:#92C6FF;}
	.st3{clip-path:url(#SVGID_2_);fill:#77DD77;}
	.st4{clip-path:url(#SVGID_2_);fill:#FFFA4A;}
	.st5{clip-path:url(#SVGID_2_);fill:none;stroke:#9B2690;stroke-width:10;stroke-miterlimit:10;}
	.st6{clip-path:url(#SVGID_2_);fill:none;stroke:#FFFA4A;stroke-width:10;stroke-miterlimit:10;}
	.st7{clip-path:url(#SVGID_2_);fill:none;stroke:#D1052A;stroke-width:10;stroke-miterlimit:10;}
</style>
<rect class="st0" width="1080" height="1080"/>
<g>
	<defs>
		<rect id="SVGID_1_" width="1080" height="1080"/>
	</defs>
	<clipPath id="SVGID_2_">
		<use xlink:href="#SVGID_1_"  style="overflow:visible;"/>
	</clipPath>
	<path class="st1" d="M1011,295.8c-5.3-11.9-14-22-25.7-29.9c-10.8-7.3-23.8-12.1-38.5-14.2c-5-0.7-10-1.1-14.9-1.1
		c-8,0-15.8,0.9-23.4,2.8c-4.1,1-8.1,2.3-11.8,3.9c0.4-2.1,0.7-4.1,1-6.2c2.3-20.8-5.6-34.8-12.7-42.8c-9.5-10.8-22.7-17.4-38.2-19
		c-2.3-0.2-4.6-0.4-6.9-0.4c-11.7,0-22.7,3.3-31.7,9.6c-12.2,8.5-19.8,21.3-21.2,36c-0.4,4.1-0.4,8.1,0,12
		c-6.2-3.2-13.5-5.2-21.6-5.8c-2-0.2-3.9-0.2-5.7-0.2c-5,0-9.7,0.6-14,1.7c-7.8-3.3-16.1-5.2-24.9-5.8c-2.3-0.1-4.5-0.2-6.7-0.2
		c-15.4,0-29.8,3.3-42.8,9.9c-7.4,3.8-14.1,8.4-20.1,13.9c-0.9-1.4-1.8-2.8-2.8-4.1c-9.9-12.7-28.2-27.8-59.8-28.3l-1.6,0
		c-11.6,0-22.2,2-31.4,5.9c-6.8-4-14.4-6.2-22.3-6.2c-11,0.1-21.6,3.7-31.5,11c-2.1,1.5-3.9,3.1-5.6,4.7c-8.3-6.3-18.6-9.5-30.7-9.5
		c-0.7,0-1.4,0-2.1,0c-7.3,0.2-13.8,1.4-19.5,3.5c-7-2.1-14.3-3.2-21.8-3.2c-1.2,0-2.4,0-3.6,0.1c-18,0.8-34.2,5.8-48.2,14.8
		c-4.1,2.6-7.8,5.5-11.3,8.7c1-5,1.3-10.1,0.9-15.4c-1.2-15.3-8.3-28.8-20.2-38.1c-9.8-7.7-21.8-11.7-34.9-11.7
		c-1.8,0-3.7,0.1-5.6,0.2c-15.3,1.3-28.4,7.5-38.1,17.9c-6.9,7.5-11.3,16.6-13.1,26.4c-3-2.2-6.1-4.2-9.3-6.2
		c-22.3-13.1-51.1-19.7-85.4-19.7c-1.3,0-2.6,0-3.9,0c-5.2-2.1-11.5-3.4-19-3.4c-3.2,0-6.7,0.3-10.2,0.8c-8.9,1.3-16.7,4-23.1,8
		c-10.2,2.9-19,8.9-25.2,17.4c-5.2,7.2-10.9,19.5-8,37.5c2.6,16.7,10.9,26.3,17.3,31.4c0.8,0.7,1.7,1.3,2.6,1.9
		c3.7,20.5,7.5,41,11.2,61.4c-1.2,1.4-2.3,2.9-3.3,4.5c-4.3,6.8-9,18.3-6.4,34.7c3.4,21.4,16,31.3,23.1,35.3c7.2,4,15.6,6,25,6
		c3.8,0,7.6-0.3,11.9-0.9c6.1-0.9,9.2-1.4,15.4-2.3c25.8-3.7,48.5-11.3,67.5-22.5c13.6-8,25.1-17.7,34.4-28.8
		c3.1,10.5,9.9,19.5,19.6,25.5c4.7,2.9,9.8,5,15.2,6.3c-2.1,1.6-4.1,3.4-6,5.4c-5.8,6.2-12.8,17.3-12.8,35c0,16.5,6.2,27.1,11.4,33
		c0.7,0.9,1.5,1.7,2.3,2.5l1.7,63.2c-1.3,1.2-2.6,2.5-3.8,3.8c-5.2,6-11.4,16.6-11.4,33c0,18.4,7.9,29.7,14.2,35.7
		c-1.2,0-2.5-0.1-3.7-0.1c-16,0-31.5,3.8-46.1,11.2c-17.6,8.9-32.7,22.2-44.7,39.5c-11.8,17-19.5,36.6-22.9,58.1
		c-3.5,22.1-1.2,42.9,6.8,61.8c8.2,19.4,21.6,35.3,39.8,47.4c17.2,11.4,37.7,18.6,60.8,21.3c5.8,0.7,11.7,1,17.3,1
		c13.5,0,26.5-2,38.7-5.8c8.8-2.8,16.9-6.5,24.2-11c3.4,6.8,8.6,12.8,15.4,17.6c9.3,6.5,20.1,10.2,32,10.9c1.4,0.1,2.7,0.1,4,0.1
		c8.5,0,16.4-1.7,23.6-4.9c11.6-5.3,20.2-14.9,24.5-27c0.8-2.4,1.6-4.5,2.3-6.5c1,0,2,0.1,3,0.1c0.6,2.2,2,7.7,2,7.7l0.2,0.6
		c3.5,11.5,11.3,21.1,22.1,27c8.2,4.5,17.4,6.9,27.5,7l0.8,0c11.6,0,22.3-2.8,31.7-8.4c4.5-2.7,8.4-5.9,11.6-9.6c1,1.1,2,2.1,2.9,3
		c6.6,6.1,18.2,13.4,36.5,13.4c0.6,0,1.2,0,1.9,0c18.2-0.5,29.6-8,35.9-14.3c3.8-3.8,6.9-8.1,9.3-12.8c7,3.5,14.5,7.2,23.5,11.6
		c4.5,2.4,9.4,4.1,15.1,5.3c4.5,1,8.9,1.4,13.3,1.4c1.4,0,2.8-0.1,4.2-0.2c13.7-1,25.6-6.7,34.4-16.6c7.1,4.7,15.6,7.4,25.1,7.6
		c3.5,0.1,6.8,0.1,10,0.1c8.6,0,16.8-0.2,24.4-0.7c9.4-0.6,19.3-1.5,29.4-2.8c3.4-0.4,5.1-0.6,8.4-1.1c23.1-3,39.4-6.2,49.7-9.8
		c24.2-8.4,37.4-29.5,33.6-53.8c-2.1-13.6-9.2-25.3-20-32.7c-3.1-2.1-6.4-3.9-9.8-5.3c2.8-7.9,3.6-16.7,2.1-26.2
		c-1.2-8.4-3.7-15.3-7-20.9c3.7-3.1,6.9-6.9,9.5-11.2c6-10,8.1-21.9,6.1-34.3c-2.3-14.2-9.7-25.9-20.8-32.9c-8-5-17.4-7.6-28.1-7.6
		c-0.9,0-1.8,0-2.8,0.1c-11.7,0.5-28.1,2.1-48.9,4.7c-23.9,3.1-36.8,4.8-45.4,6.7c0,0-0.1,0-0.1,0c-1.3-3.4-2.3-7.3-3.1-11.7
		c5.7-6.8,11.3-17.4,11.3-32.7l-0.5-45.1c0.5-0.4,0.9-0.8,1.4-1.3c8-7.3,14.7-15.2,20.1-23.4c3.7-5.6,8-13.3,13.6-24.3
		c5.6-11,8.9-18.1,10.8-22.9l0.2-0.6c2.5-6.9,3.7-12.8,3.7-18.5c0-15.6-7.4-29.6-20.2-38.4c-1.6-1.1-3.3-2.1-5-3
		c5.7-2.5,10.8-6.2,15.1-11.1c6.9-7.9,11.1-17.8,12.1-28.7c0.9-10.7-0.9-20.1-5.4-27.9c3.8,3.2,9.5,6.3,17.5,6.3
		c14,0,19.5-7.1,20.8-9.4c-2.6,4.7-4.3,9.9-4.9,15.3c-0.7,5.9-0.2,12.1,1.7,18.9l0.2,0.7c4.6,15.7,13.9,29.1,27.4,39.7
		c12.6,9.9,27.6,16.1,44.4,18.5c4.8,0.7,9.7,1,14.6,1c6.3,0,12.8-0.6,19.2-1.7c13.8-2.4,26.2-8.1,36.8-17
		c12.2-10.2,20.1-24.5,22.7-41.4c1.8-11.5,1-22.1-2.3-31.8c4.1-5.8,6.8-12.7,8-20.3C1018.2,320.5,1016.5,307.9,1011,295.8
		 M848.8,350.7L848.8,350.7c0,0,0,0.1-0.1,0.1C848.8,350.8,848.8,350.7,848.8,350.7"/>
	<path class="st2" d="M368.2,775.4c3.2,3.3,4.6,7.5,4.2,12.6c-0.9,11.6-5.2,21.9-12.9,30.6c-7.7,8.7-18,15.2-30.7,19.3
		c-12.8,4.1-26.9,5.2-42.1,3.5c-18-2.1-33.5-7.5-46.2-15.9c-12.8-8.5-21.9-19.4-27.5-32.6c-5.6-13.2-7.1-27.8-4.6-43.6
		c2.7-16.7,8.5-31.5,17.4-44.3c8.9-12.8,19.6-22.4,32.3-28.7c12.7-6.4,25.8-8.7,39.7-7c18.4,2.2,32,8,41.1,17.6
		c0-0.5,0.1-0.7,0.1-1.2c0.3-3,2.1-5.5,5.4-7.4c3.3-1.9,7.2-2.7,11.8-2.3c5.4,0.5,9.6,2.2,12.4,5.1c2.8,2.9,4,6.8,3.6,11.7
		c-0.9,9.2-1.3,13.8-2.2,22.9c-1.5,14-8,20.5-19.5,19.5c-2.6-0.2-5.2-1-7.6-2.2c-2.5-1.2-4.3-2.7-5.4-4.6c-3.7-6-6.7-10.6-9-13.7
		c-2.3-3.1-5.5-6-9.5-8.5c-4-2.5-9.1-4.1-15.2-4.8c-8.3-1-16.6,0.8-25.2,5.1c-8.6,4.4-16,10.8-22.2,19.2c-6.3,8.4-10.2,18-11.7,28.8
		c-1.3,9.5-0.2,18.3,3.4,26.4c3.6,8.1,9.2,14.8,16.7,20c7.5,5.2,16.1,8.4,25.7,9.6c7.3,0.9,14.3,0.3,20.9-1.5c6.6-1.9,12-5,16.3-9.3
		c4.3-4.3,6.7-9.4,7.3-15.3c0.5-4.8,2.4-8.5,5.9-11.2c3.5-2.7,8-3.8,13.7-3.3C360.4,770.2,365,772.1,368.2,775.4"/>
	<path class="st2" d="M537.5,829.4c1.2,3.7,1.8,5.6,3.1,9.4c0.5,1.6,0.8,3.1,0.8,4.6c0,4.6-2.1,8.2-6.4,10.8
		c-4.3,2.5-9.3,3.8-15,3.7c-4.5,0-8.4-1-11.7-2.8c-3.3-1.8-5.4-4.3-6.4-7.6c-3.3-12.4-4.9-18.7-8.1-31.1c-20.9-0.6-31.4-1-52.3-2.1
		c-4.2,12-6.3,18-10.5,30c-1.2,3.6-3.5,6.2-6.8,7.7c-3.3,1.5-7.2,2.1-11.7,1.9c-5.7-0.3-10.7-2-14.9-4.9c-4.2-2.9-6.1-6.5-5.8-10.9
		c0.1-1.6,0.5-3.2,1.1-4.7c14.2-32.3,21-48.5,34.3-81.1c6.5-16.1,9.7-24.1,15.9-40.3c4.3-10.7,8.7-18.2,13.2-22.6
		c4.5-4.4,10.5-6.4,17.9-6.2c7.1,0.2,12.6,2.4,16.6,6.6c4,4.2,7.6,11.5,10.8,22c8.4,28,16,52.8,22.7,74.5c2.7,0,4.1,0,6.8,0.1
		c8.3,0.1,12.4,5.1,12.4,15.2c0,10.2-3.2,15.4-9.5,15.3c-0.1,0-0.2,0-0.3,0C535.2,821.9,536,824.4,537.5,829.4 M485.9,785.2
		c-1.2-4.5-1.8-6.8-3-11.4c-2.3-8.5-3.4-12.8-5.6-21.3c-0.9-3.4-1.3-5.1-2.2-8.5c-0.9-3.5-1.6-6.1-2.2-7.8c-0.6-1.6-1.2-2.4-1.9-2.5
		c-0.8,0-1.5,0.7-2.1,2.1c-0.5,1.4-1.4,4-2.5,7.6c-0.9,2.8-1.3,4.1-2.2,6.9c-4.6,13.4-6.9,20.1-11.6,33.4
		C465.9,784.5,472.5,784.7,485.9,785.2"/>
	<path class="st2" d="M716.7,822.4c1.8,1.8,2.8,4.3,3.1,7.5c0.4,4.6-0.9,8.6-3.9,12c-3,3.4-7,5.2-12,5.6c-2.6,0.2-5.3,0-8.1-0.6
		c-2.8-0.6-5.1-1.4-6.9-2.4c-27.7-13.5-41.3-20.5-68.1-34.8c0.4,12.2,0.6,18.3,1.1,30.5c0.2,4.6-1.3,8.5-4.3,11.4
		c-3,3-7.5,4.6-13.4,4.7c-6.4,0.2-11.3-1.3-14.7-4.5c-3.4-3.1-5.1-7.5-5.2-13.1c-0.4-23-1.1-48.8-2.1-77.3
		c-0.4-9.7-0.6-14.5-0.9-24.2c-0.7,0.2-1,0.3-1.7,0.5c-1,0.3-1.7,0.5-2.2,0.5c-6.9,0.1-10.4-5.6-10.6-17.1c0-3.7,1.2-6.8,3.6-9.4
		c2.4-2.6,5.8-5.1,10.1-7.6c0-0.9,0-1.3,0-2.2c-0.2-10.6,6.7-15.9,20.7-16.3c4.7-0.1,8,0.2,9.9,1c2,0.8,3,1.8,3.2,2.9
		c0,0.5,0.1,0.8,0.3,1c11.3-3.6,19.8-5.6,25.4-5.8c14.5-0.7,27.1,0.8,38.1,4.6c11,3.8,19.7,9.4,26.2,17c6.5,7.6,10.2,16.6,11,26.9
		c1.3,15.8-4.4,28.6-17.2,38.4c-12.9,9.7-30.2,15.4-51.8,16.8c24.9,12.1,37.6,18,63.2,29.3C712.4,819.1,714.9,820.6,716.7,822.4
		 M617.1,721.8c0.6,7.3,1.2,20.2,1.8,38.6c0,0.7,0,1,0.1,1.7c4.7,0.5,11.8,0.5,21.3,0.1c11.2-0.5,19.8-3.1,25.9-7.6
		c6.1-4.5,8.9-10.5,8.4-17.8c-0.4-6.9-3.6-12.2-9.3-15.9c-5.8-3.8-13.6-5.4-23.6-4.9C634,716.4,625.8,718.3,617.1,721.8"/>
	<path class="st2" d="M869.6,796c5.1-0.8,9.3,0,12.6,2.3c3.3,2.3,5.4,5.8,6.1,10.6c1.3,8.2-2.6,14-11.6,17.1
		c-7.5,2.6-21.9,5.5-43.1,8.3c-3.3,0.4-5,0.6-8.3,1.1c-9.5,1.2-18.6,2.1-27.2,2.6c-8.6,0.5-19.3,0.8-31.8,0.5
		c-7.7-0.2-12-4.6-12.8-13.2c-0.4-4.1,0.1-7.7,1.6-10.6c1.4-2.9,3.9-4.8,7.5-5.4c1-0.1,1.5-0.2,2.6-0.3c0.7-13.1,0.3-25.6-1.3-37.5
		c-0.7,0.1-1.1,0.1-1.8,0.2c-4,0.4-7.1-0.6-9.3-3.1c-2.2-2.4-3.5-6.3-4-11.5c-0.4-4.5,0.2-8.2,1.8-11.3c1.6-3.1,4.3-4.8,8.1-5.1
		c0.8-0.1,1.2-0.1,2-0.2c-0.4-5.9,1.2-28.4-3.2-33.7c-1.7-2-9-5.9-9.6-12.8c-0.5-5.1,0.5-8.9,3-11.5c2.5-2.6,6.6-4.5,12.3-5.7
		c7.7-1.7,22-3.6,42.6-6.2c20-2.6,35.4-4,46-4.5c4.8-0.2,8.8,0.6,11.8,2.4c3,1.9,4.9,5.2,5.6,9.9s0.2,8.8-1.8,12.1
		c-2,3.3-5.1,5.1-9.3,5.4c-15,1.1-28.3,2.2-39.6,3.7c-5.2,0.7-11.8,1.7-19.9,3c-2.5,0.4-3.8,0.6-6.3,1c1.9,13.3,2.8,20,4.7,33.3
		c2.3-0.3,3.4-0.4,5.7-0.7c8.2-1,18.3-2.1,30.2-3.4c6.4-0.7,9.5-1,15.9-1.8c6.4-0.9,10.4,3.6,11.9,13.5c0.7,4.7,0.3,8.6-1.2,11.6
		c-1.5,3-4,4.7-7.5,5.2c-5,0.7-9.3,1.2-12.8,1.6c-13,1.7-19.6,2.5-32.6,4c-2.2,0.3-3.3,0.4-5.5,0.7c1.4,14.3,1.9,27.3,1.6,39
		c6.5-0.1,14.7-0.8,24.4-2.1c14.1-1.8,27.3-4.4,39.5-7.7C867.1,796.5,868.2,796.3,869.6,796"/>
	<path class="st3" d="M429.5,474.4c17,13.4,25.4,31.9,25.4,55.4c0,17.1-4.4,32.1-13.3,45c-8.9,12.9-21.4,22.9-37.7,30
		c-16.2,7.1-35.2,10.7-56.8,10.7h-15.6c-7,0-12.1-1.2-15.1-3.6c-3-2.4-4.6-6.5-4.6-12.2c0-5,1.1-8.7,3.2-11.2
		c2.2-2.5,5.6-3.7,10.2-3.7h2.4l-2.9-105.8h-1.4c-3.5,0-6.4-1.2-8.5-3.7c-2.2-2.5-3.2-6.2-3.2-11.2c0-5.4,1.2-9.5,3.7-12.1
		c2.5-2.6,5.6-4,9.5-4h3.1c2.7-2.7,7.2-4.1,13.4-4.1c7.2,0,12,1.8,14.4,5.5C388,452.6,412.6,460.9,429.5,474.4 M391.7,575
		c8.7-4.7,15.6-11,20.8-18.7c5.1-7.8,7.7-16.6,7.7-26.5c0-15-5.4-26.4-16.3-34c-10.9-7.6-25.6-12.6-44.2-15l2.9,103.2
		C373.3,582.8,383,579.8,391.7,575"/>
	<path class="st3" d="M616.2,590.8l2.9,9.4c0.5,1.6,0.7,3.1,0.7,4.6c0,4.6-2,8.2-5.9,10.8c-3.9,2.6-8.5,3.8-13.8,3.8
		c-4.2,0-7.8-0.9-10.8-2.6c-3-1.8-5-4.2-6-7.4l-8.2-31l-49-0.2l-8.4,30.5c-1,3.7-2.9,6.4-5.9,8c-3,1.7-6.5,2.5-10.7,2.5
		c-5.3,0-9.9-1.3-13.9-4c-4-2.6-6-6.1-6-10.4c0-1.6,0.2-3.2,0.7-4.8l27.6-83l13.4-41c3.7-10.9,7.7-18.6,12-23.2
		c4.3-4.6,10.2-6.8,17.5-6.8c7,0,12.6,2,16.7,6.1c4.1,4.1,7.8,11.3,11.2,21.7c8.8,27.8,16.5,52.6,23,74.2h6.5
		c7.8,0,11.8,5,11.8,15.1c0,10.2-3,15.4-8.9,15.4h-0.2L616.2,590.8z M567,547.3l-3.1-11.3l-6-21.1l-2.4-8.4c-1-3.5-1.8-6.1-2.4-7.7
		c-0.6-1.6-1.3-2.4-1.9-2.4c-0.8,0-1.4,0.7-1.9,2.2c-0.5,1.4-1.2,4-2.2,7.7l-1.9,7l-9.8,33.8L567,547.3z"/>
	<path class="st3" d="M700.7,612.1c-3-2.9-4.6-6.8-4.6-11.8l-0.7-63.4c-2.2,0-6.4-3.1-12.6-9.2c-6.2-6.2-11-11.9-14.5-17.2
		c-3-4.5-6.6-10.6-10.6-18.5c-4-7.8-7.6-15.8-10.8-24c-0.5-1.3-0.7-2.6-0.7-3.8c0-4,2-7.7,5.9-11c3.9-3.4,8.6-5,14-5
		c3.8,0,7,1,9.6,3c2.6,2,4.9,5.2,7,9.5c7.5,15.5,13.5,27.1,18,34.8c6.4,10.6,10.7,15.8,13,15.8c2.1,0,6-5.3,11.8-15.8l18.7-35.8
		c2.1-3.8,4.1-6.6,6.1-8.4c2-1.8,5.2-2.6,9.5-2.6c5.9,0,10.8,1.3,14.6,4c3.8,2.6,5.8,6.3,5.8,10.9c0,1.6-0.6,3.9-1.7,7
		c-1.4,3.7-4.6,10.4-9.5,20c-4.9,9.7-8.8,16.7-11.6,21c-3.8,5.9-8.8,11.6-14.8,17.2c-6,5.5-10.1,8.3-12.4,8.3l0.7,62.6
		c0,5.3-1.5,9.4-4.4,12.4c-3,3-7.2,4.4-12.8,4.4C708.1,616.4,703.8,615,700.7,612.1"/>
	<polygon class="st4" points="684,663 663.2,655.3 645.1,668 646,645.9 628.3,632.7 649.6,626.7 656.7,605.7 669,624.1 691.1,624.4 
		677.4,641.8 	"/>
	<polygon class="st4" points="474.8,471.5 465.3,451.4 443.5,447.9 459.6,432.7 456.3,410.8 475.7,421.5 495.5,411.5 491.3,433.3 
		506.9,449 484.9,451.8 	"/>
	<polygon class="st4" points="428.4,680.1 423.4,658.9 403.1,651 421.7,639.7 422.9,618 439.4,632.2 460.5,626.6 452.1,646.7 
		463.9,665 442.2,663.2 	"/>
	<polygon class="st4" points="697.3,443.4 704.6,429.2 697.1,415.1 712.8,417.7 723.9,406.2 726.3,421.9 740.7,428.9 726.4,436.1 
		724.3,451.9 713,440.6 	"/>
	<path class="st5" d="M859.1,451c0,8.1-6.6,14.7-14.7,14.7s-14.7-6.6-14.7-14.7c0-8.1,6.6-14.7,14.7-14.7S859.1,442.9,859.1,451z"/>
	<path class="st6" d="M843.2,328.4c0,8.1-6.6,14.7-14.7,14.7c-8.1,0-14.7-6.6-14.7-14.7c0-8.1,6.6-14.7,14.7-14.7
		C836.6,313.8,843.2,320.3,843.2,328.4z"/>
	<path class="st6" d="M415,725.8c0,8.1-6.6,14.7-14.7,14.7s-14.7-6.6-14.7-14.7s6.6-14.7,14.7-14.7S415,717.8,415,725.8z"/>
	<path class="st4" d="M222,259.3c19.4,11.3,30.1,28.8,32.5,52.2c1.8,17-1.2,32.4-8.8,46.2c-7.6,13.8-19.1,25.2-34.5,34.2
		c-15.4,9.1-33.8,15.1-55.3,18.2c-6.2,0.9-9.3,1.4-15.5,2.3c-7,1.1-12.2,0.7-15.6-1.2c-3.4-1.9-5.6-5.7-6.5-11.4
		c-0.8-4.9-0.3-8.7,1.5-11.5c1.8-2.8,5-4.6,9.7-5.3c1-0.1,1.4-0.2,2.4-0.4c-6.3-34.7-12.6-69.5-18.9-104.2c-0.6,0.1-0.9,0.1-1.5,0.2
		c-3.7,0.6-6.8-0.2-9.5-2.3c-2.6-2.1-4.4-5.6-5.1-10.5c-0.9-5.4-0.2-9.6,2-12.6c2.2-3,5.3-4.8,9.4-5.5c1.3-0.2,2-0.3,3.3-0.5
		c2.5-3.1,7-5.2,13.6-6.2c7.6-1.1,13,0,16,3.3C175.6,242.8,202.6,248,222,259.3 M195,364c8.2-5.8,14.5-12.9,18.8-21.2
		c4.3-8.3,5.9-17.4,4.7-27.3c-1.8-14.9-8.7-25.5-21-31.7c-12.3-6.1-28.3-9.1-48.1-8.8c5.8,33.9,11.5,67.9,17.2,101.8
		C177.4,374.1,186.8,369.8,195,364"/>
	<path class="st4" d="M288.5,263.5c-4.7-3.7-7.3-8.6-7.9-14.8c-0.6-6.2,1.1-11.5,5.1-15.8c4-4.3,9.5-6.8,16.4-7.3
		c6.8-0.6,12.5,0.9,17.1,4.5s7.1,8.4,7.5,14.5c0.5,6.2-1.3,11.6-5.2,16.1c-4,4.5-9.3,7-16,7.6C298.8,268.7,293.1,267.2,288.5,263.5
		 M299.5,389.1c-3.6-2.2-5.5-5.5-5.8-9.8c-2.5-35.3-3.7-53-6.2-88.4c-0.2-4.3,1.2-7.9,4.3-10.6c3.1-2.8,7.4-4.4,12.7-4.8
		c5.5-0.5,10.1,0.4,13.9,2.7c3.7,2.3,5.7,5.7,5.8,10.1c2,35.3,3,52.9,5,88.2c0.2,4.3-1.3,7.8-4.4,10.6c-3.1,2.7-7.2,4.3-12.3,4.8
		C307.5,392.3,303.1,391.4,299.5,389.1"/>
	<path class="st4" d="M492,360.5c1.7,1.7,2.6,4.8,2.7,9.3c0.1,3.8-0.9,7.1-2.8,9.9c-2,2.8-4.6,4.2-8,4.3c-6.9,0.2-12.2-0.5-16-2.1
		c-3.7-1.6-7.2-4.5-10.4-8.9c-3.4,5.4-8.1,9.3-14.1,11.7c-6,2.4-13.1,3.8-21.3,4.1c-18.1,0.8-32.2-3.6-42.3-13.4
		c-10.1-9.8-15.9-23.9-17.1-42.4c-0.8-12.1,1-23.1,5.6-32.8c4.5-9.7,11.3-17.5,20.3-23.3c9-5.8,19.5-9,31.6-9.5
		c6-0.3,11.7,0.6,17,2.7c5.3,2,9.3,4.9,12.1,8.4c0.2-1.3,0.2-1.9,0.4-3.1c0.3-2.3,1.5-4.2,3.8-5.8c2.3-1.6,6-2.5,11-2.6
		c5.4-0.2,9.3,0.8,11.9,2.8c2.6,2,3.9,4.6,4,7.8c0,1.1,0,2-0.2,2.6c-0.9,5.5-1.6,14.6-2.3,27.4c-0.3,5.9-0.4,13.5-0.2,22.8
		c0.1,4.8,0.2,7.2,0.3,12c0.1,4.6,0.6,8.2,1.5,10.6c0.9,2.5,2.7,3.9,5.5,4.3C487.8,357.7,490.2,358.7,492,360.5 M442.6,311.5
		c-0.2-5.4-2.2-9.8-6.1-13.1c-3.9-3.3-8.7-4.8-14.5-4.6c-7.5,0.3-13.5,3.9-17.9,10.8c-4.5,6.9-6.4,15.5-5.8,25.9
		c0.5,9.9,3.1,17.7,7.6,23.4c4.5,5.7,10.3,8.4,17.5,8.1c6.6-0.3,11.7-2.1,15.1-5.6c3.4-3.4,5.1-8.2,5.1-14.5
		C443.4,335.4,443.1,325.2,442.6,311.5"/>
	<path class="st4" d="M622.1,276.4c7.8,10.1,11.4,24.7,10.8,43.9c-0.8,21.7-1.2,32.5-1.9,54.2c-0.1,3.4-1.8,5.9-5.2,7.5
		c-3.3,1.7-7.4,2.4-12.2,2.3c-4.7-0.1-8.8-1-12.4-2.7c-3.6-1.7-5.4-3.9-5.3-6.8c0.5-22.3,0.8-33.4,1.3-55.7
		c0.2-11.7-1-19.9-3.5-24.5c-2.6-4.7-6.7-7.1-12.4-7.1c-4.8-0.1-8.7,2-11.5,6.1c-2.9,4.1-5.3,12.3-7.4,24.2
		c-1.2,6.7-1.8,14.1-1.8,22.3c0,12.4,0.1,18.6,0.1,31c0,4.2-1.6,7.3-4.8,9.5c-3.1,2.1-7.4,3.2-12.7,3.2c-5.5,0-9.8-1.1-12.9-3.3
		c-3.2-2.2-4.7-5.3-4.8-9.3c-0.3-33.3-0.9-59.2-2.1-77.7c-0.2-1.9-0.7-3.7-1.4-5.4c-0.8-1.7-1.7-3.2-2.7-4.7c-1-1.4-1.8-2.5-2.3-3.3
		c-1-1.7-1.5-3.5-1.6-5.3c0-3.4,2-6.5,6.1-9.5c4.1-3,8.1-4.5,11.9-4.5c1.8,0,3.7,0.5,5.4,1.7c1.8,1.1,3.8,3,5.9,5.5
		c1.8,2.2,3.2,4.2,4,6c0.8,1.8,1.3,3.8,1.2,6c0,0.9,0,1.3,0,2.2c3-6.1,7.6-11.1,13.7-15.2c6.1-4,14.3-6,24.3-5.9
		C602.9,261.1,614.2,266.3,622.1,276.4"/>
	<path class="st4" d="M780.5,370c1.5,1.9,2.1,5.1,1.7,9.5c-0.3,3.8-1.6,7-3.9,9.5c-2.2,2.5-5,3.7-8.4,3.4
		c-6.9-0.6-12.1-1.8-15.7-3.8c-3.6-2-6.7-5.3-9.4-10c-3.9,5-9,8.4-15.2,10.1c-6.2,1.7-13.4,2.4-21.6,1.9
		c-18.1-1.1-31.6-6.9-40.7-17.7c-9.1-10.8-13.3-25.5-12.6-44c0.5-12.1,3.4-22.8,9-32.1c5.5-9.2,13.1-16.3,22.6-21.1
		c9.5-4.8,20.4-6.9,32.4-6.1c6,0.4,11.6,1.8,16.6,4.4c5,2.6,8.7,5.8,11.2,9.7c0.3-1.2,0.4-1.8,0.7-3.1c0.5-2.2,2-4,4.4-5.3
		c2.5-1.3,6.2-1.8,11.2-1.4c5.4,0.4,9.2,1.8,11.5,4c2.3,2.3,3.4,5,3.1,8.2c-0.1,1.1-0.2,2-0.5,2.6c-1.4,5.3-3.1,14.4-5.2,27
		c-1,5.8-1.8,13.4-2.6,22.7c-0.4,4.8-0.6,7.2-1,12c-0.4,4.6-0.3,8.2,0.4,10.7c0.6,2.5,2.3,4.2,5,4.9
		C776.6,366.8,778.9,368.1,780.5,370 M736.5,316c0.4-5.4-1.2-10-4.7-13.7c-3.5-3.7-8.2-5.7-14-6.1c-7.5-0.5-13.8,2.5-19,8.9
		c-5.2,6.4-8,14.8-8.5,25.1c-0.5,9.9,1.2,17.9,5.1,24.1c3.9,6.1,9.4,9.4,16.5,9.8c6.6,0.4,11.8-0.9,15.6-3.9c3.8-3,6-7.7,6.6-13.9
		C734.8,339.9,735.6,329.8,736.5,316"/>
	<path class="st4" d="M859.9,230.1c3.9,4.4,5.4,10.2,4.7,17.2c-0.7,6.5-2.8,12.5-6.1,18c-3.3,5.5-8.6,10.7-15.9,15.5
		c-2.9,2-5.4,2.8-7.6,2.6c-2.7-0.3-5-1.3-6.9-3.1c-1.9-1.8-2.8-3.9-2.5-6.3c0.2-2.4,1.4-4.6,3.5-6.7c0.4-0.4,1.3-1.3,2.7-2.5
		c1.4-1.2,3.2-3,5.5-5.4c-4.8-1-9-3.2-12.6-6.7c-3.6-3.5-5.1-8.6-4.4-15.3c0.5-4.9,2.8-8.9,7.1-11.9c4.2-3,9.6-4.1,16.1-3.5
		C850.4,223.1,856,225.7,859.9,230.1 M836,244.7c1,1.4,2.6,2.2,5,2.4c2.5,0.3,4.4-0.2,5.6-1.3c1.2-1.2,1.9-2.6,2.1-4.4
		c0.4-4-1.8-6.2-6.7-6.7c-1.9-0.2-3.5,0.2-4.9,1.3c-1.4,1.1-2.2,2.4-2.3,4C834.6,241.8,835,243.4,836,244.7"/>
	<path class="st4" d="M893.3,399.8c-8-6.3-13.3-13.9-16-22.9c-0.7-2.5-0.9-4.5-0.7-6.1c0.4-3.3,2.6-6.3,6.5-8.9
		c3.9-2.6,8-3.6,12.3-3.1c2.4,0.3,4.3,1.1,5.6,2.3c1.3,1.2,2.3,2.3,3,3.3c0.7,1,1.1,1.6,1.2,2c4,6,7.4,10.3,10.1,13
		c2.8,2.6,6.3,4.3,10.7,4.9c4,0.6,7.6,0.2,10.7-1c3.1-1.2,4.9-3.4,5.4-6.4c0.5-3.3-0.8-6.2-4-8.6c-3.1-2.4-8.5-5.3-15.6-8.7
		c-8-3.9-14.6-7.6-19.5-10.8c-5-3.2-9.1-7.6-12.5-13.1c-3.4-5.5-4.6-12.1-3.7-19.9c1-7.8,4.1-14.2,9.4-19.3
		c5.4-5.1,12.1-8.6,20.3-10.6c8.2-2,16.8-2.4,25.8-1.1c9.7,1.4,17.8,4.3,24.4,8.8c6.6,4.5,11.2,9.8,14,16c2.8,6.2,3.6,12.4,2.6,18.8
		c-0.7,4.3-2.4,7.3-5.2,9.1c-2.8,1.8-7.1,2.3-12.8,1.4c-5.1-0.8-8.4-2.1-10.1-3.9c-1.6-1.9-2.6-4.3-2.6-7.2c0-3.9-0.7-7.4-2.4-10.1
		c-1.7-2.7-5.6-4.5-11.8-5.3c-4.6-0.6-8.3-0.3-11.1,0.9c-2.8,1.2-4.4,3.3-4.7,6.1c-0.5,3.5,0.9,6.4,4.2,8.8
		c3.3,2.4,8.8,5.2,16.2,8.6c8,3.6,14.5,7.2,19.5,10.5c5,3.3,9.1,7.6,12.2,13.1c3.1,5.4,4.1,12.1,2.8,20c-1.4,9-5.2,16-11.2,21.1
		c-6,5.1-13.1,8.3-21.1,9.7c-8,1.4-15.9,1.6-23.5,0.5C910.7,409.9,901.3,406,893.3,399.8"/>
	<path class="st4" d="M856.4,240.5c0,8.1-6.6,14.7-14.7,14.7s-14.7-6.6-14.7-14.7c0-8.1,6.6-14.7,14.7-14.7S856.4,232.4,856.4,240.5
		"/>
	<path class="st7" d="M261.8,603.7c0,8.1-6.6,14.7-14.7,14.7s-14.7-6.6-14.7-14.7s6.6-14.7,14.7-14.7S261.8,595.6,261.8,603.7z"/>
	<path class="st7" d="M269.6,437.3c0,8.1-6.6,14.7-14.7,14.7s-14.7-6.6-14.7-14.7c0-8.1,6.6-14.7,14.7-14.7S269.6,429.2,269.6,437.3
		z"/>
	<path class="st5" d="M826,598.7c0,8.1-6.6,14.7-14.7,14.7c-8.1,0-14.7-6.6-14.7-14.7s6.6-14.7,14.7-14.7
		C819.4,584,826,590.6,826,598.7z"/>
	
		<ellipse transform="matrix(0.9239 -0.3827 0.3827 0.9239 -137.4644 368.0443)" class="st7" cx="856.4" cy="529.6" rx="14.7" ry="14.7"/>
	<path class="st5" d="M244.4,519.8c0,8.1-6.6,14.7-14.7,14.7s-14.7-6.6-14.7-14.7c0-8.1,6.6-14.7,14.7-14.7S244.4,511.7,244.4,519.8
		z"/>
</g>
</svg>
