<?xml version="1.0" encoding="utf-8"?>
<!-- Generator: Adobe Illustrator 23.0.5, SVG Export Plug-In . SVG Version: 6.00 Build 0)  -->
<svg version="1.1" id="Layer_1" xmlns="http://www.w3.org/2000/svg" xmlns:xlink="http://www.w3.org/1999/xlink" x="0px" y="0px"
	 viewBox="0 0 600 238.2" style="enable-background:new 0 0 600 238.2;" xml:space="preserve">
<style type="text/css">
	.st0{clip-path:url(#SVGID_2_);fill:url(#SVGID_3_);}
</style>
<g>
	<g>
		<path d="M254.6,38.2c-0.2-0.2-0.3-0.4-0.3-0.6V10.2c0-0.2,0.1-0.5,0.3-0.6c0.2-0.2,0.5-0.3,0.8-0.3h8.4c4.8,0,8.5,1.2,11.2,3.7
			c2.6,2.5,3.9,6.1,3.9,10.8c0,4.7-1.3,8.3-3.9,10.8c-2.6,2.5-6.3,3.8-11.2,3.8h-8.4C255,38.5,254.8,38.4,254.6,38.2 M273.7,33.5
			c2.1-2.2,3.2-5.5,3.2-9.7c0-8.7-4.4-13-13.2-13H256v26.1h7.7C268.2,36.9,271.5,35.8,273.7,33.5"/>
		<path d="M302.1,34.8c0.1,0.2,0.2,0.3,0.2,0.5c0,0.3-0.1,0.5-0.3,0.8c-0.2,0.3-0.6,0.6-1.2,0.9c-2.1,1.2-4.3,1.8-6.5,1.8
			c-3.2,0-5.7-0.9-7.5-2.8c-1.8-1.8-2.7-4.4-2.7-7.6c0-2.1,0.4-3.9,1.2-5.5c0.8-1.6,2-2.8,3.5-3.7c1.5-0.9,3.2-1.3,5.1-1.3
			c2.7,0,4.8,0.8,6.3,2.5c1.5,1.7,2.3,3.9,2.3,6.8c0,0.5-0.1,0.9-0.3,1.1c-0.2,0.2-0.6,0.3-1.1,0.3h-15.1c0,2.7,0.8,4.8,2.2,6.3
			c1.4,1.5,3.4,2.2,6,2.2c1.4,0,2.6-0.2,3.5-0.5c0.9-0.4,1.8-0.8,2.7-1.4c0.6-0.4,1-0.6,1.2-0.6C301.8,34.5,302,34.6,302.1,34.8
			 M288.5,21.5c-1.4,1.3-2.2,3.1-2.4,5.5h14.7c-0.1-2.4-0.7-4.2-1.9-5.5c-1.2-1.3-2.9-1.9-5-1.9C291.7,19.5,289.9,20.2,288.5,21.5"
			/>
		<path d="M311.7,38.3c-1.1-0.3-2.2-0.8-3.1-1.3c-0.6-0.4-1-0.7-1.2-0.9c-0.2-0.2-0.3-0.5-0.3-0.8c0-0.2,0.1-0.4,0.2-0.5
			c0.1-0.2,0.3-0.2,0.5-0.2c0.1,0,0.3,0.1,0.6,0.2s0.4,0.3,0.5,0.3c0.8,0.6,1.7,1.1,2.6,1.4c0.9,0.4,2.1,0.6,3.5,0.6
			c1.9,0,3.4-0.3,4.4-1c1-0.7,1.5-1.6,1.5-2.8c0-0.7-0.2-1.3-0.5-1.8c-0.4-0.5-1-0.9-1.8-1.2c-0.8-0.3-2-0.7-3.6-1
			c-2.6-0.6-4.4-1.3-5.5-2.1c-1.1-0.9-1.7-2-1.7-3.4c0-1.7,0.7-3.1,2.1-4.2c1.4-1.1,3.2-1.6,5.5-1.6c1.1,0,2.1,0.1,3.1,0.4
			c1,0.3,1.9,0.7,2.6,1.2c0.6,0.4,1,0.7,1.2,1c0.2,0.3,0.4,0.6,0.4,0.9c0,0.2-0.1,0.4-0.2,0.5c-0.1,0.2-0.3,0.2-0.5,0.2
			c-0.2,0-0.6-0.2-1.1-0.6c-0.8-0.6-1.6-1-2.4-1.4c-0.8-0.4-1.9-0.5-3.1-0.5c-1.6,0-3,0.4-4,1.1c-1,0.7-1.5,1.7-1.5,2.9
			c0,0.7,0.2,1.3,0.5,1.8c0.3,0.5,0.9,0.8,1.6,1.2c0.8,0.3,1.9,0.6,3.3,1c2,0.5,3.6,0.9,4.6,1.4c1.1,0.5,1.8,1.1,2.3,1.7
			c0.5,0.7,0.7,1.5,0.7,2.6c0,1.7-0.7,3-2.2,4c-1.4,1-3.4,1.5-5.8,1.5C313.9,38.7,312.8,38.6,311.7,38.3"/>
		<path d="M329.1,12.6c-0.3-0.3-0.5-0.6-0.5-1.1c0-0.5,0.2-0.8,0.5-1.1c0.3-0.3,0.7-0.4,1.2-0.4c0.5,0,0.9,0.1,1.2,0.4
			c0.3,0.3,0.5,0.6,0.5,1.1c0,0.4-0.2,0.8-0.5,1.1c-0.3,0.3-0.7,0.4-1.1,0.4C329.8,13,329.4,12.9,329.1,12.6 M329.5,38.4
			c-0.2-0.2-0.2-0.4-0.2-0.7V18.9c0-0.3,0.1-0.5,0.2-0.7c0.2-0.2,0.4-0.2,0.7-0.2c0.3,0,0.5,0.1,0.7,0.2c0.2,0.2,0.2,0.4,0.2,0.7
			v18.8c0,0.3-0.1,0.5-0.2,0.7c-0.2,0.2-0.4,0.2-0.7,0.2C329.9,38.7,329.7,38.6,329.5,38.4"/>
		<path d="M355.8,18.2c0.2,0.2,0.3,0.4,0.3,0.7v18.6c0,2.9-0.7,5-2.1,6.5c-1.4,1.5-3.6,2.2-6.4,2.2c-1.6,0-3-0.1-4.2-0.4
			c-1.2-0.3-2.4-0.7-3.5-1.4c-0.6-0.3-0.9-0.6-1.2-0.9c-0.2-0.3-0.4-0.5-0.4-0.8c0-0.2,0.1-0.4,0.2-0.5c0.1-0.1,0.3-0.2,0.6-0.2
			c0.1,0,0.5,0.2,1.1,0.5c1,0.6,2.1,1.1,3.2,1.4c1.1,0.4,2.5,0.6,4.2,0.6c2.2,0,3.8-0.6,4.9-1.7c1.1-1.1,1.7-2.8,1.7-5v-4.3
			c-0.6,1.4-1.6,2.5-2.9,3.3c-1.3,0.8-2.9,1.1-4.7,1.1c-1.9,0-3.5-0.4-5-1.2c-1.4-0.8-2.6-2-3.4-3.5c-0.8-1.5-1.2-3.3-1.2-5.2
			s0.4-3.7,1.2-5.2c0.8-1.5,1.9-2.7,3.4-3.5c1.4-0.8,3.1-1.2,5-1.2c1.8,0,3.4,0.4,4.6,1.1c1.3,0.7,2.2,1.8,2.9,3.2v-3.3
			c0-0.6,0.3-1,0.9-1C355.4,18,355.6,18.1,355.8,18.2 M352.2,33.9c1.3-1.5,2-3.5,2-6.1c0-2.6-0.7-4.6-2-6c-1.3-1.5-3.2-2.2-5.5-2.2
			c-2.3,0-4.2,0.7-5.5,2.2c-1.4,1.5-2,3.5-2,6c0,2.6,0.7,4.6,2,6.1c1.4,1.5,3.2,2.2,5.5,2.2C349,36.1,350.9,35.4,352.2,33.9"/>
		<path d="M380.4,25.5v12.2c0,0.6-0.3,1-0.9,1c-0.3,0-0.5-0.1-0.7-0.2c-0.2-0.2-0.2-0.4-0.2-0.7v-12c0-2.1-0.5-3.7-1.4-4.7
			c-0.9-1-2.4-1.5-4.4-1.5c-2.2,0-4.1,0.7-5.4,2c-1.4,1.3-2,3.1-2,5.2v10.9c0,0.3-0.1,0.5-0.2,0.7c-0.2,0.2-0.4,0.2-0.7,0.2
			s-0.5-0.1-0.7-0.2c-0.2-0.2-0.2-0.4-0.2-0.7V18.9c0-0.6,0.3-1,0.9-1c0.3,0,0.5,0.1,0.7,0.2c0.1,0.2,0.2,0.4,0.2,0.7V22
			c0.6-1.3,1.6-2.3,2.9-3c1.3-0.7,2.8-1.1,4.4-1.1C377.8,17.9,380.4,20.5,380.4,25.5"/>
		<path d="M390.9,38.3c-1.1-0.3-2.2-0.8-3.1-1.3c-0.6-0.4-1-0.7-1.2-0.9c-0.2-0.2-0.3-0.5-0.3-0.8c0-0.2,0.1-0.4,0.2-0.5
			c0.1-0.2,0.3-0.2,0.5-0.2c0.1,0,0.3,0.1,0.6,0.2s0.4,0.3,0.5,0.3c0.8,0.6,1.7,1.1,2.6,1.4c0.9,0.4,2.1,0.6,3.5,0.6
			c1.9,0,3.4-0.3,4.4-1c1-0.7,1.5-1.6,1.5-2.8c0-0.7-0.2-1.3-0.5-1.8c-0.4-0.5-1-0.9-1.8-1.2c-0.8-0.3-2-0.7-3.6-1
			c-2.6-0.6-4.4-1.3-5.5-2.1c-1.1-0.9-1.7-2-1.7-3.4c0-1.7,0.7-3.1,2.1-4.2c1.4-1.1,3.2-1.6,5.5-1.6c1.1,0,2.1,0.1,3.1,0.4
			c1,0.3,1.9,0.7,2.6,1.2c0.6,0.4,1,0.7,1.2,1c0.2,0.3,0.4,0.6,0.4,0.9c0,0.2-0.1,0.4-0.2,0.5c-0.1,0.2-0.3,0.2-0.5,0.2
			c-0.2,0-0.6-0.2-1.1-0.6c-0.8-0.6-1.6-1-2.4-1.4c-0.8-0.4-1.9-0.5-3.1-0.5c-1.6,0-3,0.4-4,1.1c-1,0.7-1.5,1.7-1.5,2.9
			c0,0.7,0.2,1.3,0.5,1.8c0.3,0.5,0.9,0.8,1.6,1.2c0.8,0.3,1.9,0.6,3.3,1c2,0.5,3.6,0.9,4.6,1.4c1.1,0.5,1.8,1.1,2.3,1.7
			c0.5,0.7,0.7,1.5,0.7,2.6c0,1.7-0.7,3-2.2,4c-1.4,1-3.4,1.5-5.8,1.5C393.2,38.7,392,38.6,390.9,38.3"/>
		<path d="M422.8,37.8c-2-0.7-3.6-1.6-4.7-2.7c-0.3-0.2-0.4-0.6-0.4-1c0-0.2,0.1-0.4,0.2-0.6c0.1-0.2,0.3-0.2,0.4-0.2
			c0.2,0,0.5,0.1,0.8,0.3c2.9,2.3,6.2,3.5,9.9,3.5c2.8,0,5-0.5,6.5-1.6c1.5-1.1,2.3-2.6,2.3-4.7c0-1.2-0.4-2.1-1.1-2.8
			c-0.8-0.7-1.7-1.3-2.8-1.6c-1.1-0.4-2.6-0.8-4.5-1.2c-2.5-0.6-4.5-1.1-5.8-1.5c-1.3-0.4-2.5-1.2-3.6-2.3c-1.1-1.1-1.6-2.5-1.6-4.4
			c0-1.6,0.4-3,1.3-4.2c0.9-1.2,2.1-2.2,3.8-2.8c1.6-0.7,3.5-1,5.6-1c2,0,3.9,0.3,5.7,1c1.8,0.7,3.2,1.6,4.4,2.7
			c0.3,0.3,0.4,0.6,0.4,1c0,0.2-0.1,0.4-0.2,0.6c-0.1,0.2-0.3,0.2-0.5,0.2c-0.3,0-0.5-0.1-0.7-0.3c-1.7-1.4-3.2-2.3-4.5-2.8
			c-1.3-0.5-2.9-0.7-4.6-0.7c-2.8,0-4.9,0.6-6.5,1.7c-1.5,1.1-2.3,2.7-2.3,4.8c0,1.2,0.3,2.2,1,3c0.7,0.8,1.6,1.4,2.6,1.8
			c1.1,0.4,2.4,0.9,4,1.2l1.9,0.4c2.1,0.4,3.8,0.9,5.1,1.3c1.3,0.5,2.4,1.2,3.3,2.1c0.9,1,1.4,2.3,1.4,3.9c0,1.5-0.4,2.9-1.3,4.1
			c-0.9,1.2-2.1,2.1-3.8,2.8c-1.6,0.7-3.5,1-5.6,1C426.8,38.8,424.8,38.5,422.8,37.8"/>
		<path d="M448.6,37.5c-1.4-0.9-2.5-2.1-3.3-3.6c-0.8-1.6-1.2-3.4-1.2-5.5c0-2.1,0.4-3.9,1.2-5.5c0.8-1.6,1.9-2.8,3.3-3.6
			c1.4-0.9,3.1-1.3,4.9-1.3c1.9,0,3.5,0.4,4.9,1.3c1.4,0.9,2.5,2.1,3.3,3.6c0.8,1.6,1.2,3.4,1.2,5.5c0,2.1-0.4,3.9-1.2,5.5
			c-0.8,1.6-1.9,2.8-3.3,3.6c-1.4,0.9-3.1,1.3-4.9,1.3C451.7,38.7,450,38.3,448.6,37.5 M459.1,34.8c1.3-1.5,1.9-3.7,1.9-6.5
			c0-2.7-0.7-4.9-2-6.4c-1.3-1.5-3.2-2.3-5.5-2.3c-2.3,0-4.2,0.8-5.5,2.3c-1.3,1.5-2,3.7-2,6.4c0,2.8,0.6,5,1.9,6.5
			c1.3,1.5,3.1,2.3,5.5,2.3C455.9,37,457.8,36.3,459.1,34.8"/>
		<path d="M469.2,38.4c-0.2-0.2-0.2-0.4-0.2-0.7V10c0-0.3,0.1-0.5,0.2-0.7c0.2-0.2,0.4-0.2,0.7-0.2c0.3,0,0.5,0.1,0.7,0.3
			c0.2,0.2,0.3,0.4,0.3,0.7v27.7c0,0.3-0.1,0.5-0.3,0.7c-0.2,0.2-0.4,0.3-0.7,0.3C469.6,38.7,469.4,38.6,469.2,38.4"/>
		<path d="M494.4,18.2c0.2,0.2,0.2,0.4,0.2,0.7v18.8c0,0.6-0.3,1-0.9,1c-0.3,0-0.5-0.1-0.6-0.3c-0.2-0.2-0.2-0.4-0.2-0.7v-3
			c-0.7,1.3-1.6,2.3-2.9,3c-1.3,0.7-2.7,1.1-4.3,1.1c-2.5,0-4.3-0.6-5.6-1.9c-1.3-1.3-1.9-3.2-1.9-5.7V18.9c0-0.3,0.1-0.5,0.2-0.7
			c0.2-0.2,0.4-0.2,0.7-0.2c0.3,0,0.5,0.1,0.7,0.2c0.2,0.2,0.2,0.4,0.2,0.7v12c0,2.1,0.5,3.6,1.4,4.6s2.3,1.5,4.2,1.5
			c2.2,0,3.9-0.7,5.3-2c1.3-1.3,2-3.1,2-5.2V18.9c0-0.3,0.1-0.5,0.2-0.7c0.2-0.2,0.4-0.2,0.7-0.2C494.1,18,494.3,18.1,494.4,18.2"/>
		<path d="M511.8,37.9c0,0.6-0.4,0.9-1.3,0.8l-1.1-0.1c-2.2-0.1-3.8-0.8-4.8-1.9c-1-1.1-1.5-2.9-1.5-5.2V19.9h-3.6
			c-0.2,0-0.4-0.1-0.5-0.2c-0.1-0.1-0.2-0.3-0.2-0.5c0-0.2,0.1-0.4,0.2-0.6c0.1-0.2,0.3-0.2,0.5-0.2h3.6v-5.5c0-0.3,0.1-0.5,0.3-0.7
			c0.2-0.2,0.4-0.2,0.7-0.2c0.3,0,0.5,0.1,0.7,0.2c0.2,0.2,0.3,0.4,0.3,0.7v5.5h5.8c0.2,0,0.4,0.1,0.5,0.2c0.1,0.2,0.2,0.3,0.2,0.6
			c0,0.2-0.1,0.4-0.2,0.5c-0.1,0.1-0.3,0.2-0.5,0.2h-5.8v11.6c0,1.9,0.4,3.2,1.2,4c0.8,0.8,2,1.3,3.6,1.4l1.2,0.1
			C511.4,37.1,511.8,37.4,511.8,37.9"/>
		<path d="M515.7,12.6c-0.3-0.3-0.5-0.6-0.5-1.1c0-0.5,0.2-0.8,0.5-1.1c0.3-0.3,0.7-0.4,1.2-0.4c0.5,0,0.9,0.1,1.2,0.4
			c0.3,0.3,0.5,0.6,0.5,1.1c0,0.4-0.2,0.8-0.5,1.1c-0.3,0.3-0.7,0.4-1.1,0.4C516.4,13,516,12.9,515.7,12.6 M516.1,38.4
			c-0.2-0.2-0.2-0.4-0.2-0.7V18.9c0-0.3,0.1-0.5,0.2-0.7c0.2-0.2,0.4-0.2,0.7-0.2c0.3,0,0.5,0.1,0.7,0.2c0.2,0.2,0.2,0.4,0.2,0.7
			v18.8c0,0.3-0.1,0.5-0.2,0.7c-0.2,0.2-0.4,0.2-0.7,0.2C516.5,38.7,516.3,38.6,516.1,38.4"/>
		<path d="M528.2,37.5c-1.4-0.9-2.5-2.1-3.3-3.6c-0.8-1.6-1.2-3.4-1.2-5.5c0-2.1,0.4-3.9,1.2-5.5c0.8-1.6,1.9-2.8,3.3-3.6
			c1.4-0.9,3.1-1.3,4.9-1.3c1.9,0,3.5,0.4,4.9,1.3c1.4,0.9,2.5,2.1,3.3,3.6c0.8,1.6,1.2,3.4,1.2,5.5c0,2.1-0.4,3.9-1.2,5.5
			c-0.8,1.6-1.9,2.8-3.3,3.6c-1.4,0.9-3.1,1.3-4.9,1.3C531.3,38.7,529.7,38.3,528.2,37.5 M538.7,34.8c1.3-1.5,1.9-3.7,1.9-6.5
			c0-2.7-0.7-4.9-2-6.4c-1.3-1.5-3.2-2.3-5.5-2.3c-2.3,0-4.2,0.8-5.5,2.3c-1.3,1.5-2,3.7-2,6.4c0,2.8,0.6,5,1.9,6.5
			c1.3,1.5,3.1,2.3,5.5,2.3C535.6,37,537.4,36.3,538.7,34.8"/>
		<path d="M565.5,25.5v12.2c0,0.6-0.3,1-0.9,1c-0.3,0-0.5-0.1-0.7-0.2c-0.2-0.2-0.2-0.4-0.2-0.7v-12c0-2.1-0.5-3.7-1.4-4.7
			c-0.9-1-2.4-1.5-4.4-1.5c-2.2,0-4.1,0.7-5.4,2c-1.4,1.3-2,3.1-2,5.2v10.9c0,0.3-0.1,0.5-0.2,0.7c-0.2,0.2-0.4,0.2-0.7,0.2
			c-0.3,0-0.5-0.1-0.7-0.2c-0.2-0.2-0.2-0.4-0.2-0.7V18.9c0-0.6,0.3-1,0.9-1c0.3,0,0.5,0.1,0.7,0.2c0.1,0.2,0.2,0.4,0.2,0.7V22
			c0.6-1.3,1.6-2.3,2.9-3c1.3-0.7,2.8-1.1,4.4-1.1C562.9,17.9,565.5,20.5,565.5,25.5"/>
		<path d="M576,38.3c-1.1-0.3-2.2-0.8-3.1-1.3c-0.6-0.4-1-0.7-1.2-0.9c-0.2-0.2-0.3-0.5-0.3-0.8c0-0.2,0.1-0.4,0.2-0.5
			c0.1-0.2,0.3-0.2,0.5-0.2c0.1,0,0.3,0.1,0.6,0.2c0.2,0.2,0.4,0.3,0.5,0.3c0.8,0.6,1.7,1.1,2.6,1.4c0.9,0.4,2.1,0.6,3.5,0.6
			c1.9,0,3.4-0.3,4.4-1c1-0.7,1.5-1.6,1.5-2.8c0-0.7-0.2-1.3-0.5-1.8c-0.4-0.5-1-0.9-1.8-1.2c-0.8-0.3-2-0.7-3.6-1
			c-2.6-0.6-4.4-1.3-5.5-2.1c-1.1-0.9-1.7-2-1.7-3.4c0-1.7,0.7-3.1,2.1-4.2c1.4-1.1,3.2-1.6,5.5-1.6c1.1,0,2.1,0.1,3.1,0.4
			c1,0.3,1.9,0.7,2.6,1.2c0.6,0.4,1,0.7,1.2,1c0.2,0.3,0.4,0.6,0.4,0.9c0,0.2-0.1,0.4-0.2,0.5c-0.1,0.2-0.3,0.2-0.5,0.2
			c-0.2,0-0.6-0.2-1.1-0.6c-0.8-0.6-1.6-1-2.4-1.4c-0.8-0.4-1.9-0.5-3.1-0.5c-1.6,0-3,0.4-4,1.1c-1,0.7-1.5,1.7-1.5,2.9
			c0,0.7,0.2,1.3,0.5,1.8c0.3,0.5,0.9,0.8,1.6,1.2c0.8,0.3,1.9,0.6,3.3,1c2,0.5,3.6,0.9,4.6,1.4c1.1,0.5,1.8,1.1,2.3,1.7
			c0.5,0.7,0.7,1.5,0.7,2.6c0,1.7-0.7,3-2.2,4c-1.4,1-3.4,1.5-5.8,1.5C578.3,38.7,577.2,38.6,576,38.3"/>
		<path d="M361.9,87l-0.5,2.2c-4.8,1.2-8.7,2.6-11.8,4.4c-3.1,1.8-7.3,5-12.6,9.6c-14.1,12.3-26.3,21.7-36.7,28.3
			c3,3.7,5.6,7.8,7.7,12.4c2.1,4.6,5.8,15.1,11,31.7c4.7,14.8,9.5,24.7,14.4,29.9c4.9,5.2,9.9,7.8,14.9,7.8c4.9,0,8.2-2.6,10-7.8
			c1.1-3.1,2-4.9,2.7-5.6c1.1-0.9,2.2-1.4,3.5-1.4c1.4,0,2.6,0.5,3.6,1.5c1,1,1.5,2.1,1.5,3.5c0,3.5-2.1,6.9-6.3,10.2
			c-4.2,3.3-9.5,4.9-15.9,4.9c-5.5,0-10.8-1.4-15.8-4.2c-5-2.8-9.5-7.3-13.6-13.3c-4.1-6.1-8.3-15.4-12.6-28.1
			c-4-12-7.1-20.2-9.3-24.7c-2.2-4.4-5.2-9.1-9.1-14.1l-9.4,35.7c-1.9,7.2-3.1,12.4-3.5,15.5c4,1.7,7.6,2.6,10.8,2.6
			c0.8,0,1.9-0.1,3.3-0.2l-1.1,4.4c-1.2,0.1-1.9,0.1-2.2,0.1c-1.9,0-4.7-0.2-8.3-0.6c-3.8-0.4-6.8-0.6-9.2-0.6
			c-4.9,0-12.6,0.9-23.2,2.8l0.5-4.2c5.6-1.1,9.6-2.7,11.8-4.6c2.3-2,4.1-5.1,5.4-9.3c3.1-9.5,7.2-23.8,12.2-42.9L284.9,92
			c-11.6,0.7-20.8,3.4-27.6,7.9c-5.2,3.5-7.8,7.3-7.8,11.6c0,1.5,0.7,3.5,2.2,5.8c1.3,2.1,2,3.8,2,5.1c0,1.6-0.6,3-1.8,4.2
			c-1.2,1.2-2.5,1.8-4.1,1.8c-1.8,0-3.4-0.9-4.9-2.7c-1.4-1.8-2.1-4.2-2.1-7.2c0-8.2,4.1-15.5,12.2-22.1c8.1-6.6,22.3-9.8,42.4-9.8
			h5.7c-3.2,8.4-5.4,14.5-6.4,18.2l-7,26.7c4.4-1.6,9.4-4.5,15.2-8.4c5.8-4,11.4-8.2,16.7-12.7c9.8-8.2,15.4-13.2,16.8-15
			c0.4-0.6,0.6-1.1,0.6-1.5c0-0.5-0.6-0.9-1.8-1.3c-1.2-0.4-4.6-0.6-10.2-0.7l1.1-4.9c7.5,0.7,13.7,1.1,18.5,1.1
			C349.7,88.1,355.4,87.7,361.9,87"/>
		<path d="M419.8,115.4l5.8-1.2l-6.6,22.3c-2.6,8.9-5.1,19.1-7.5,30.7c-1.3,6.3-1.9,10.3-1.9,12.2s0.7,2.7,2.2,2.7
			c0.9,0,2.4-0.6,4.5-1.9c3.6-2.2,7.1-4.9,10.5-8.1l2.8,3.4c-6.7,6.1-11,9.8-12.9,11.1c-3.8,2.6-7.3,4.5-10.8,5.7
			c-2.2,0.8-4.4,1.2-6.5,1.2c-1.5,0-2.7-0.4-3.4-1.1c-0.8-0.7-1.1-1.7-1.1-3.1c0-0.9,0.2-2.1,0.7-3.6l3.5-12
			c-5.1,6.1-11.1,11.3-18.1,15.6c-4.3,2.7-8.2,4.1-11.8,4.1c-3.4,0-6-1.2-7.8-3.6c-2.5-3.2-3.7-7.5-3.7-12.7c0-6.2,1.7-13.2,5-20.8
			c3.3-7.6,7.8-14.6,13.4-20.8c5.6-6.2,11.5-10.8,17.6-13.8c4.8-2.2,10.9-3.4,18.3-3.4c1.9,0,3.8,0.1,5.7,0.4L419.8,115.4z
			 M408.9,128.9c-3.2-0.6-5.9-1-8-1c-5.3,0-9.9,1.5-13.8,4.4c-3.9,2.9-7.6,8.1-11,15.7c-3.4,7.6-5.1,15.1-5.1,22.6
			c0,4,0.7,6.9,2,8.6c1.4,1.8,3.1,2.6,5.3,2.6c4.1,0,8.4-2.2,13.1-6.6c4.6-4.4,8.1-10.7,10.2-18.9L408.9,128.9z"/>
		<path d="M451.8,191.1h-13.1l6.2-23.7c3-11.6,5.6-22.7,7.8-33.2c0.5-2.6,0.8-4.2,0.8-4.9c0-1.4-0.6-2.1-1.9-2.1
			c-0.9,0-2.2,0.6-4.1,1.8c-1.8,1.2-5.1,4.2-9.9,9l-2.7-3.1c5.6-6.1,11.3-10.6,16.9-13.6c5.6-3,9.9-4.5,12.9-4.5
			c1.1,0,1.9,0.3,2.5,0.7c0.6,0.5,0.9,1.1,0.9,1.9c0,0.8-0.4,2.8-1.2,6.1l-3.8,15.9c5.9-9.4,12.7-17.4,20.1-24.1
			c3.6-3.2,6.6-4.8,9-4.8c1.8,0,3.2,0.6,4.4,1.7c1.2,1.1,1.8,2.5,1.8,4c0,1.6-0.6,2.9-1.7,4.1c-1.1,1.1-4,2.4-8.6,4
			c-4.3,1.5-7.9,3.2-10.6,5.3c-2.7,2.1-5.7,5.2-9,9.4c-3.3,4.2-5.5,7.9-6.8,11.1c-1.3,3.1-3.3,10.4-5.9,21.9L451.8,191.1z"/>
		<path d="M526.4,169.8l3,3.2c-4.6,5.2-10,9.9-16.3,14.2c-6.3,4.3-11.4,6.4-15.5,6.4c-1.8,0-3.3-0.7-4.5-2.1
			c-1.2-1.4-1.8-3.3-1.8-5.7c0-4.7,1.8-14.5,5.5-29.3l9.5-38.7c3.5-14,6.4-23.4,8.7-28.1c3.6-7.2,8.8-12.8,15.5-16.8
			c6.7-4,13.7-6,21.1-6c2.5,0,4.5,0.6,5.9,1.8c1.4,1.2,2.2,2.7,2.2,4.4c0,1.9-0.7,3.5-2.1,4.7c-1.4,1.2-3.5,1.8-6.2,1.8
			c-1.8,0-4.2-0.3-7.5-0.9c-2.8-0.5-5.4-0.7-7.8-0.7c-2.4,0-4.2,0.5-5.4,1.5c-1.7,1.4-3.2,4.4-4.6,8.9c-1.4,4.5-3.6,13.4-6.7,26.7
			l-8.8,36.9c-4.4,18.5-6.5,28.2-6.5,29c0,1.9,0.7,2.8,2,2.8c1.3,0,3.2-0.8,5.6-2.3C516.6,178.5,521.5,174.6,526.4,169.8"/>
		<path d="M532.7,134.9l-2.8-4.1l6.5-4.4c6.3-4.4,10.8-7.1,13.4-8.4c1.5-0.7,2.8-1.1,4.1-1.1c1.2,0,2.4,0.7,3.5,2.1
			c5.2,6.5,9.5,15.3,13.1,26.4c3.5,11.1,5.3,21.8,5.3,32.2c0,1.4-0.1,3.4-0.2,6.2c9.9-18.3,14.9-32.8,14.9-43.6
			c0-2.2-0.5-5.2-1.5-8.9c-1.1-4.1-1.6-7.1-1.6-8.8c0-1.7,0.5-3.1,1.6-4.2c1.1-1.1,2.5-1.7,4.1-1.7c2.1,0,3.7,0.8,5,2.4
			c1.3,1.6,1.9,3.9,1.9,6.8c0,7.6-1.7,17-5.2,28.4c-3.5,11.3-8.9,23.5-16.4,36.5c-7.4,13-14.2,22.7-20.4,29
			c-6.1,6.3-12.1,10.8-17.8,13.6c-5.7,2.7-11.2,4.1-16.3,4.1c-3.9,0-6.8-0.7-8.8-2.2c-2-1.4-3-3.2-3-5.2c0-1.8,0.8-3.3,2.3-4.5
			c1.5-1.3,3.6-1.9,6.2-1.9c2,0,4.7,0.4,8.2,1.1c3.7,0.8,6.2,1.2,7.6,1.2c3.6,0,7.4-1.5,11.4-4.5c5.5-4.1,9.8-9,13-14.7
			c3.2-5.7,4.8-11.5,4.8-17.3c0-8.2-1.2-18-3.6-29.4c-2.4-11.5-5.7-20.2-10.1-26.3c-2.2-3.1-4.5-4.7-7-4.7
			C542.2,129.1,538.1,131,532.7,134.9"/>
	</g>
	<g>
		<defs>
			<path id="SVGID_1_" d="M37.5,213.2c0-18.5,0.1-37,0.1-55.6c0-2.2,0.6-3.6,3-4.4c12.3-4.7,24.6-9.5,36.9-14.4
				c8.4-3.3,16.7-6.8,25-10.2c0.2,0.2,0.5,0.4,0.7,0.7C81.5,158.1,59.9,187,38.2,216C37.1,215,37.5,214,37.5,213.2 M187.3,202.2
				c-3.6-1.9-6.6-4.7-9.5-7.5c-10.4-9.9-19.5-20.8-28.6-31.8c-10.2-12.4-19.9-25.1-29.6-37.8c-2.2-2.8-2-3.1,1.3-4.6
				c12.3-5.5,25-10.2,37.9-14.1c8.3-2.5,16.6-4.9,25.3-5.9c7.1-0.8,9.6,1.7,9.3,11.3c-0.4,6.1-2.5,13.7-3.9,21.4
				c-3.7,20.1-4.2,40.3-1.1,60.6c0.4,2.4,0.6,4.8,0.8,7.2c0.1,1.1-0.2,1.6-0.8,1.6C188.3,202.6,187.8,202.4,187.3,202.2 M37.6,148
				c0.1-14.7,0.1-29.4,0.3-44.1c0.3-23.9,0.1-47.8,0.2-71.8c0-1,0-2,0-3c0.3-0.1,0.5-0.2,0.8-0.2c2.3,3.3,4.6,6.6,7,9.9
				C57.4,55.1,69,71.3,80.6,87.5c7.5,10.4,15.2,20.7,22.8,31.1c2.1,2.9,1.9,3.8-1.4,5.2c-16.9,7.4-33.7,14.7-50.6,22.1
				c-3.4,1.5-6.8,2.9-10.2,4.3c-1,0.4-1.7,0.7-2.3,0.7C37.9,150.9,37.6,150.1,37.6,148 M29.3-0.1c-0.8,0.3-0.6,1.1-0.6,1.7
				c0.1,2.8,0.3,5.6,0.3,8.4c0.1,44.6,0.1,89.2,0.2,133.8c0,3,0,6,0,8.9c0,1.3-0.2,2.4-1.7,2.9c-8.5,2.8-17,4.6-25.6,0.3
				c-0.5-0.3-1.1-0.8-1.9-0.2c1.1,1.3,2.6,1.9,4.2,2.5c7.3,2.5,14.6,2.3,21.9,0.1c2.2-0.7,3.2-0.5,3.2,2.1c0,9.1,0.3,18.2,0.4,27.4
				c0.1,15.7,0.1,31.5,0.1,47.2c0,0.7,0,1.5,0,2.2c0,0.5,0,1,0.6,1.1c0.6,0.2,0.9-0.3,1.1-0.6c1-1.4,2-2.7,3-4.1
				c10.1-14,20.3-28.1,30.4-42.1c9.8-13.6,19.6-27.2,29.3-40.8c4.8-6.7,9.6-13.3,14.4-20c1.4-1.9,2.4-2,3.8,0
				c6.7,9.1,13.8,18,20.9,26.9c9.9,12.3,19.9,24.4,30.9,35.8c5.6,5.7,11.2,11.5,18.3,15.6c3.7,2.1,7.8,3.8,11.8,1.2
				c3.9-2.5,3.5-6.5,3-10.4c-1.1-9.6-2.8-19.2-3.2-28.9c-0.7-16.6,1.7-32.9,4.8-49.1c1.1-5.6,2.1-11.2,1.1-16.9
				c-1.2-6.1-4.8-9.5-11.2-10.4c-3.8-0.5-7.4,0.2-11,1c-18.9,4.1-36.8,10.7-54.3,18.4c-0.7,0.3-1.6,1.3-2.3,0.3
				c-0.5-0.7,0.3-1.4,0.7-2c8.5-11.9,17-23.9,25.5-35.8c14.1-19.9,28.3-39.8,42.4-59.7c0.5-0.7,1.2-1.3,0.8-2.7
				c-1.1,1.3-2,2.2-2.8,3.3c-13.4,17.6-26.8,35.3-40.2,52.9c-7.1,9.4-14.2,18.7-21.3,28.1c-3.8,5.1-7.7,10.1-11.5,15.1
				c-1.4,1.8-2.8,2-4-0.1c-1.6-2.9-4-5.3-5.9-7.9c-5.7-8-11.5-15.9-17.2-23.9C79.2,69.7,70.6,58,62.2,46.1
				c-10.6-15-21-30.1-31.5-45.1c-0.3-0.4-0.5-1.1-1.1-1.1C29.6-0.2,29.4-0.2,29.3-0.1"/>
		</defs>
		<clipPath id="SVGID_2_">
			<use xlink:href="#SVGID_1_"  style="overflow:visible;"/>
		</clipPath>
		
			<linearGradient id="SVGID_3_" gradientUnits="userSpaceOnUse" x1="817.9376" y1="237.6314" x2="818.6772" y2="237.6314" gradientTransform="matrix(271.277 0 0 -271.277 -221887.6875 64583.0898)">
			<stop  offset="0" style="stop-color:#8C489A"/>
			<stop  offset="1" style="stop-color:#53297B"/>
		</linearGradient>
		<rect y="-0.2" class="st0" width="201.3" height="238.7"/>
	</g>
</g>
</svg>
