<?xml version="1.0" encoding="utf-8"?>
<!-- Generator: Adobe Illustrator 23.0.5, SVG Export Plug-In . SVG Version: 6.00 Build 0)  -->
<svg version="1.1" id="Capa_1" xmlns="http://www.w3.org/2000/svg" xmlns:xlink="http://www.w3.org/1999/xlink" x="0px" y="0px"
	 viewBox="0 0 950 950" style="enable-background:new 0 0 950 950;" xml:space="preserve">
<style type="text/css">
	.st0{fill:#645394;}
	.st1{fill:#FFFFFF;}
</style>
<circle class="st0" cx="475" cy="475" r="426"/>
<g>
	<path class="st1" d="M260.4,547.4l-41.5-59.5c-2.6,0.3-5.2,0.3-7.8,0.3h-45.8v59.2h-37.7v-203h83.5c53.4,0,86.4,27.3,86.4,72.2
		c0,30.7-15.7,53.4-43.2,64.1l46.7,66.7H260.4z M209.3,376.2h-44.1v80.9h44.1c33.1,0,50.2-15.1,50.2-40.6
		C259.5,391,242.4,376.2,209.3,376.2z"/>
	<path class="st1" d="M323.3,469.9c0-46.4,34.8-79.2,82.4-79.2c48.2,0,82.7,32.8,82.7,79.2s-34.5,79.5-82.7,79.5
		C358.1,549.4,323.3,516.3,323.3,469.9z M451.8,469.9c0-29.6-19.7-48.4-46.1-48.4c-26.1,0-45.8,18.9-45.8,48.4s19.7,48.4,45.8,48.4
		C432.1,518.4,451.8,499.5,451.8,469.9z"/>
	<path class="st1" d="M505.4,532l13.9-27.6c13.6,9,34.5,15.4,53.9,15.4c22.9,0,32.5-6.4,32.5-17.1c0-29.6-95.7-1.7-95.7-63.5
		c0-29.3,26.4-48.4,68.2-48.4c20.6,0,44.1,4.9,58,13.3l-13.9,27.6c-14.8-8.7-29.6-11.6-44.4-11.6c-22,0-32.5,7.3-32.5,17.4
		c0,31.3,95.7,3.5,95.7,64.1c0,29-26.7,47.9-70.2,47.9C545.2,549.4,519.4,541.9,505.4,532z"/>
	<path class="st1" d="M822.5,392.5v131.4c0,56.3-28.1,81.8-80.3,81.8c-27.6,0-55.1-7.5-72.2-22l16.2-27.3
		c13.1,11.3,33.1,18.3,53.9,18.3c31.9,0,46.1-15.4,46.1-46.7v-7.3c-11.6,12.8-29,19.7-48.2,19.7c-39.7,0-66.7-21.5-66.7-68.5v-79.5
		h36.3v74.8c0,27.8,13.3,41.2,36.3,41.2c25.2,0,42.3-15.4,42.3-46.4v-69.6H822.5z"/>
</g>
<g>
	<path class="st1" d="M460.2,330.7l3.1-5.1c6.4,6.7,18.3,11.7,30.8,11.7c18.7,0,26.9-8.1,26.9-18.3c0-28-58.3-11.2-58.3-45.6
		c0-13.2,10.1-24.8,33.1-24.8c10.3,0,20.9,3.2,28.1,8.4l-2.5,5.5c-7.7-5.3-17.2-7.9-25.6-7.9c-18.1,0-26.3,8.4-26.3,18.7
		c0,28,58.3,11.5,58.3,45.4c0,13.2-10.5,24.7-33.6,24.7C480.3,343.3,467,338.1,460.2,330.7z"/>
	<path class="st1" d="M610.7,273.1v69.6h-6.5v-16.4c-5.5,10.8-16,16.9-28.5,16.9c-19.6,0-34.4-14.5-34.4-35.3
		c0-20.9,14.8-35.3,34.4-35.3c12.4,0,22.8,6.1,28.4,16.7v-16.1H610.7z M604,307.9c0-17.5-12-29.3-28-29.3s-28,11.9-28,29.3
		c0,17.5,12,29.3,28,29.3S604,325.3,604,307.9z"/>
	<path class="st1" d="M638.8,324.4v-80.7h6.7v79.9c0,8.9,4,13.9,12.3,13.9c2.7,0,5.1-0.7,6.7-1.3l0.5,5.6c-2.4,0.9-5.3,1.5-8,1.5
		C645.1,343.2,638.8,336,638.8,324.4z"/>
	<path class="st1" d="M669.6,307.9c0-20.7,14.8-35.3,34.8-35.3c20,0,34.8,14.7,34.8,35.3c0,20.7-14.8,35.3-34.8,35.3
		C684.4,343.2,669.6,328.5,669.6,307.9z M732.4,307.9c0-17.5-12-29.3-28-29.3s-28,11.9-28,29.3c0,17.5,12,29.3,28,29.3
		S732.4,325.3,732.4,307.9z"/>
	<path class="st1" d="M822.2,302v40.7h-6.7v-40.1c0-15.7-8.4-24-22.5-24c-16.4,0-26.4,10.5-26.4,27.1v37.1h-6.7v-69.6h6.4v15.1
		c4.7-9.7,14.4-15.6,27.6-15.6C810.8,272.5,822.2,282.5,822.2,302z"/>
</g>
<g>
	<path class="st1" d="M180.4,583.1v67.3h-1.9v-33.3h-49.1v33.3h-1.9v-67.3h1.9v32.2h49.1v-32.2H180.4z"/>
	<path class="st1" d="M238,617.8v32.6H236v-10.6c-3.2,6.6-9.6,10.9-19,10.9c-11.2,0-17.6-5.6-17.6-13.9c0-7.1,4.4-13.4,17.7-13.4
		H236v-5.5c0-10.4-5.5-15.7-15.8-15.7c-7.4,0-13.8,2.8-18.1,6.9l-1.3-1.3c4.7-4.5,11.8-7.4,19.3-7.4
		C231.7,600.4,238,606.5,238,617.8z M236,636.2v-11h-19c-11.3,0-15.7,4.8-15.7,11.4c0,7.5,5.8,12.2,15.7,12.2
		C226.7,648.9,232.8,644.3,236,636.2z"/>
	<path class="st1" d="M258,584.5c0-1.3,1.2-2.5,2.5-2.5s2.5,1.2,2.5,2.5c0,1.3-1.2,2.5-2.5,2.5S258,585.8,258,584.5z M259.5,600.7
		h1.9v49.7h-1.9V600.7z"/>
	<path class="st1" d="M305,600.4v1.9h-0.6c-11.9,0-19,8.2-19,21.4v26.7h-1.9v-49.7h1.9v12.9C288.3,605.2,295,600.4,305,600.4z"/>
	<path class="st1" d="M392.3,651.4l-10.4-11.4c-5.2,7.2-12.8,10.7-22.2,10.7c-12.2,0-20.9-6.5-20.9-16.4c0-7.4,4.4-13.3,18.2-21.5
		l-0.8-0.8c-6.8-7.4-8.5-11.1-8.5-16.2c0-7.8,5.6-13,14.5-13c8.3,0,13.6,4.5,13.6,12c0,6.4-3.8,10.9-16.1,18.3l22,24.1
		c2.4-3.8,4.1-8.8,5.3-14.6l1.6,0.4c-1.2,6.3-3.2,11.4-5.7,15.5l10.7,11.7L392.3,651.4z M380.7,638.8l-22.5-24.7
		c-13.6,8.3-17.5,13.2-17.5,20.2c0,8.9,7.8,14.8,19,14.8C368.7,649.1,375.8,645.7,380.7,638.8z M357.9,611.1l0.7,0.7
		c11.6-7,15.4-10.8,15.4-16.9s-4.2-10.2-11.7-10.2c-8,0-12.6,4.5-12.6,11.2C349.6,600.4,351.3,603.8,357.9,611.1z"/>
	<path class="st1" d="M484.1,583.1v67.3h-1.6l-49.4-63.8v63.8h-1.9v-67.3h1.6l49.4,63.8v-63.8H484.1z"/>
	<path class="st1" d="M541.6,617.8v32.6h-1.9v-10.6c-3.2,6.6-9.6,10.9-19,10.9c-11.2,0-17.6-5.6-17.6-13.9c0-7.1,4.4-13.4,17.7-13.4
		h18.9v-5.5c0-10.4-5.5-15.7-15.8-15.7c-7.4,0-13.8,2.8-18.1,6.9l-1.3-1.3c4.7-4.5,11.8-7.4,19.3-7.4
		C535.4,600.4,541.6,606.5,541.6,617.8z M539.7,636.2v-11h-19c-11.3,0-15.7,4.8-15.7,11.4c0,7.5,5.8,12.2,15.7,12.2
		C530.4,648.9,536.4,644.3,539.7,636.2z"/>
	<path class="st1" d="M561.6,584.5c0-1.3,1.2-2.5,2.5-2.5s2.5,1.2,2.5,2.5c0,1.3-1.2,2.5-2.5,2.5S561.6,585.8,561.6,584.5z
		 M563.2,600.7h1.9v49.7h-1.9V600.7z"/>
	<path class="st1" d="M587.2,579.1h1.9v71.4h-1.9V579.1z"/>
	<path class="st1" d="M603.3,643.9l1.2-1.5c3.6,3.5,10.3,6.5,18.3,6.5c11.8,0,16.5-4.5,16.5-11.1c0-16.6-34.1-5.3-34.1-24.6
		c0-6.6,5.3-12.8,17.6-12.8c6.2,0,12.7,2,16.4,5.1l-1.2,1.5c-3.9-3.2-9.7-4.8-15.3-4.8c-11,0-15.6,4.8-15.6,11
		c0,17.1,34,5.9,34,24.6c0,7.5-6.1,12.9-18.5,12.9C614.6,650.7,607,647.8,603.3,643.9z"/>
</g>
<g>
	<path class="st1" d="M339.9,148.6c0-5.1-4.2-9.3-9.3-9.3h-21.9c-5.1,0-9.3,4.2-9.3,9.3l-0.4,80.4h41.4L339.9,148.6z"/>
	<path class="st1" d="M352.1,259.7h-64.3c-0.7,0-1.3,0.3-1.8,0.8s-0.7,1.2-0.6,1.9l7.3,62.2c0.4,3.7,3.6,6.6,7.4,6.6h39.8
		c3.8,0,6.9-2.8,7.4-6.6l7.3-62.2c0.1-0.7-0.1-1.4-0.6-1.9S352.8,259.7,352.1,259.7z"/>
	<rect x="315.9" y="240.6" class="st1" width="9" height="17.5"/>
	<path class="st1" d="M343.4,240.6c-0.9-1.2-1.4-2.7-1.4-4.2l-0.5-87.8c0-6-4.9-10.9-10.9-10.9h-21.9c-6,0-10.9,4.9-10.9,10.9
		l-0.5,87.8c0,1.5-0.5,3-1.4,4.2l-10.8,14.8c-1.4,2-2.2,4.3-2.2,6.7v64.4c0,4.5,1.8,8.7,4.9,11.9c3.2,3.2,7.4,4.9,11.9,4.9h39.8
		c4.5,0,8.7-1.8,11.9-4.9c3.2-3.2,4.9-7.4,4.9-11.9v-64.4c0-2.4-0.8-4.8-2.2-6.7L343.4,240.6z M341.2,240c0.2,0.5,0.6,1.1,0.9,1.6
		l10.8,14.8c0.5,0.7,1,1.5,1.3,2.4c-0.6-0.4-1.4-0.6-2.1-0.6h-25.5v-17.5h14.6V240z M299.4,148.6c0-5.1,4.2-9.3,9.3-9.3h21.9
		c5.1,0,9.3,4.2,9.3,9.3l0.4,80.4h-41.4L299.4,148.6z M298.9,236.4l0-5.8h41.5l0,5.8c0,0.9,0.1,1.7,0.4,2.5h-42.3
		C298.8,238.1,298.9,237.3,298.9,236.4z M324.9,240.6v17.5h-9v-17.5H324.9z M286.4,256.3l10.8-14.8c0.2-0.3,0.4-0.7,0.6-1h16.5v17.5
		h-26.5c-1.1,0-2.1,0.4-2.9,1.2C285.2,258.3,285.7,257.3,286.4,256.3z M354.8,326.5c0,4.1-1.6,7.9-4.5,10.8
		c-2.9,2.9-6.7,4.5-10.8,4.5h-39.8c-4.1,0-7.9-1.6-10.8-4.5c-2.9-2.9-4.5-6.7-4.5-10.8v-57.8l6.6,56.1c0.5,4.6,4.4,8,9,8h39.8
		c4.6,0,8.5-3.4,9-8l6-51.5V326.5z M354.5,262.4l-7.3,62.2c-0.4,3.7-3.6,6.6-7.4,6.6H300c-3.8,0-6.9-2.8-7.4-6.6l-7.3-62.2
		c-0.1-0.7,0.1-1.4,0.6-1.9s1.1-0.8,1.8-0.8h64.3c0.7,0,1.3,0.3,1.8,0.8S354.6,261.7,354.5,262.4z"/>
</g>
<path class="st1" d="M429.5,240.7c-0.9-1.2-1.4-2.7-1.4-4.2l-0.5-87.4c0-6-4.9-10.8-10.9-10.8h-21.8c-6,0-10.9,4.9-10.9,10.8
	l-0.5,87.4c0,1.5-0.5,3-1.4,4.2l-10.8,14.7c-1.4,2-2.2,4.3-2.2,6.7v64c0,4.5,1.7,8.7,4.9,11.9c3.2,3.2,7.4,4.9,11.9,4.9h39.6
	c4.5,0,8.7-1.7,11.9-4.9c3.2-3.2,4.9-7.4,4.9-11.9v-64c0-2.4-0.8-4.7-2.2-6.7L429.5,240.7z M427.3,240c0.2,0.5,0.5,1.1,0.9,1.6
	l10.8,14.7c0.5,0.7,1,1.5,1.3,2.4c-0.6-0.4-1.4-0.6-2.1-0.6h-25.4v-17.4h14.6V240z M385.6,149.1c0-5.1,4.2-9.2,9.3-9.2h21.8
	c5.1,0,9.2,4.1,9.3,9.2l0.4,80h-41.2L385.6,149.1z M385.2,236.5l0-5.8h41.2l0,5.8c0,0.9,0.1,1.7,0.4,2.5h-42.1
	C385,238.2,385.2,237.3,385.2,236.5z M411.1,240.6v17.4h-9v-17.4H411.1z M372.7,256.3l10.8-14.7c0.2-0.3,0.4-0.6,0.6-1h16.4v17.4
	h-26.4c-1.1,0-2.1,0.4-2.8,1.2C371.6,258.2,372,257.2,372.7,256.3z M440.8,326.1c0,4.1-1.6,7.9-4.4,10.7c-2.9,2.9-6.7,4.4-10.7,4.4
	H386c-4.1,0-7.9-1.6-10.7-4.4c-2.9-2.9-4.4-6.7-4.4-10.7v-57.5l6.5,55.8c0.5,4.5,4.4,8,8.9,8h39.6c4.6,0,8.4-3.4,8.9-8l6-51.2V326.1
	z M440.5,262.3l-7.2,61.9c-0.4,3.7-3.6,6.5-7.3,6.5h-39.6c-3.7,0-6.9-2.8-7.3-6.5l-7.2-61.9c-0.1-0.7,0.1-1.3,0.6-1.9
	c0.4-0.5,1.1-0.8,1.8-0.8h64c0.7,0,1.3,0.3,1.8,0.8C440.3,261,440.5,261.7,440.5,262.3z"/>
<path class="st1" d="M307.3,726c-3.4-2.9-8.5-3-11.8,0c0,0-0.1,0.1-0.1,0.1c0,0,0,0,0,0l0,0c0,0-1.1,1-1.8,1.8
	c7.5,14.4,27.6,18.2,36.7,19.1c2.4,0.3,4.1,2.3,4.1,4.7c0,1,0,2,0,3c0.9,15.5,13.7,28,29.3,28.5c8.6,0.3,16.5-3,22.1-8.6
	c9.3-9.4,49.8,9.5,56.7,12.8c-10.4,4.9-46.4,20.8-54.8,12.5c-5.6-5.6-13.6-8.7-22.2-8.4c-8.4,0.3-16,4.2-21.3,10.1
	c-5.5,5.2-9.2,12.5-9.5,20.6c-0.8,17.5,13.1,31.8,30.4,31.8c8.9,0,17-3.9,22.5-10.1c5.8-5.5,9.4-13.2,9.5-21.8l0-0.3
	c0-2,0.7-3.9,1.8-5.5c0.7-0.5,1.5-1,2.4-1.3l42.3-10.7l206.2-12.3c1-0.1,1.8-0.4,2.6-0.9l0,0c0,0,0,0,0.1-0.1
	c0.3-0.2,0.6-0.4,0.8-0.7c0.6-0.6,1.4-1.3,2.2-2.2c0,0,0,0,0,0c0.2-0.2,0.4-0.5,0.5-0.8c0.4-0.7,0.6-1.5,0.6-2.4
	c0-2.7-2.2-5-4.9-5.1l-206.3-10.2l-42.5-10.3c-3.6-1.3-6-4.7-6.1-8.6l0-0.3c-0.3-16.6-13.8-29.8-30.4-29.8c-7.6,0-14.5,2.9-19.8,7.5
	c-7.6,6.7-18.3,8.8-27.7,4.9C313.9,731.1,310,728.4,307.3,726z M385.6,815.2c2.6,6.5,0.9,13.8-3.9,19.3c-2.1,1.9-4.5,3.5-7.4,4.6
	c-11.2,4.5-23.4,0.3-27.4-9.4c-2.6-6.5-0.9-13.8,3.9-19.3c2.1-1.9,4.6-3.5,7.4-4.6C369.4,801.3,381.7,805.5,385.6,815.2z M349,739.5
	c5.3-4.6,13.5-6.3,21.6-3.7c11.5,3.7,18.3,14.5,15.2,24.1c-0.6,2-1.6,3.8-2.9,5.3c-5.3,4.6-13.5,6.3-21.6,3.7
	c-11.5-3.7-18.3-14.5-15.2-24.1C346.7,742.8,347.7,741,349,739.5z"/>
<g>
	<path d="M494.3,784c-1.2,0-2.1,0.9-2.1,2.1c0,1.2,0.9,2.1,2.1,2.1c1.2,0,2.1-0.9,2.1-2.1C496.4,785,495.5,784,494.3,784z"/>
	<path d="M494.3,784.1c-1.1,0-2,0.9-2,2c0,1.1,0.9,2,2,2c1.1,0,2-0.9,2-2C496.3,785,495.4,784.1,494.3,784.1z"/>
	<path d="M494.3,784.2c-1,0-1.9,0.9-1.9,1.9c0,1,0.9,1.9,1.9,1.9c1,0,1.9-0.9,1.9-1.9C496.2,785.1,495.3,784.2,494.3,784.2z"/>
	<path d="M494.2,784.4c0,0,0-0.1,0-0.1c0,0,0.1,0,0.1,0c0,0,0.1,0,0.1,0c0,0,0,0.1,0,0.1c0.1,0.5,0.1,1.2,0.1,1.9
		c0,0.7,0,1.3-0.1,1.8c0,0-0.1,0-0.1,0c-0.1,0-0.1,0-0.1,0c-0.1-0.5-0.1-1.1-0.1-1.8C494.1,785.5,494.1,784.9,494.2,784.4z"/>
</g>
</svg>
