<?xml version="1.0" encoding="utf-8"?>
<!-- Generator: Adobe Illustrator 23.0.5, SVG Export Plug-In . SVG Version: 6.00 Build 0)  -->
<svg version="1.1" id="Layer_1" xmlns="http://www.w3.org/2000/svg" xmlns:xlink="http://www.w3.org/1999/xlink" x="0px" y="0px"
	 viewBox="0 0 1920 1080" style="enable-background:new 0 0 1920 1080;" xml:space="preserve">
<style type="text/css">
	.st0{fill:#010B12;}
	.st1{fill:#FFFFFF;}
	.st2{fill:#FF0000;}
	.st3{fill:#39FF14;}
</style>
<rect class="st0" width="1920" height="1080"/>
<g>
	<g>
		<g>
			<path class="st1" d="M353.9,868.6c-0.6,0-1-0.2-1.3-0.7s-0.4-1.1-0.3-1.8l11.2-64.4c0.1-0.7,0.4-1.3,0.9-1.8
				c0.5-0.5,1-0.7,1.5-0.7h7.5c0.8,0,1.4,0.2,1.7,0.6c0.3,0.4,0.5,0.8,0.5,1.1l14.5,41.5l7.1-40.8c0.1-0.7,0.4-1.3,0.9-1.8
				c0.5-0.5,1-0.7,1.5-0.7h8.3c0.6,0,1,0.2,1.3,0.7c0.3,0.5,0.4,1.1,0.3,1.8l-11.2,64.4c-0.1,0.7-0.4,1.2-0.9,1.7
				c-0.5,0.5-1,0.7-1.5,0.7h-7.4c-0.8,0-1.4-0.2-1.7-0.7s-0.5-0.8-0.6-1.1l-14.5-40.3l-7,39.6c-0.1,0.7-0.4,1.3-0.9,1.8
				c-0.5,0.5-1,0.7-1.6,0.7H353.9z"/>
			<path class="st1" d="M411.8,868.6c-0.6,0-1-0.2-1.3-0.7c-0.3-0.5-0.4-1.1-0.3-1.8l11.2-64.4c0.1-0.7,0.4-1.3,0.9-1.8
				c0.5-0.5,1-0.7,1.6-0.7h36.7c0.6,0,1,0.2,1.3,0.7c0.3,0.5,0.4,1.1,0.3,1.8l-1.3,7.9c-0.2,0.7-0.5,1.3-0.9,1.8
				c-0.5,0.5-1,0.7-1.6,0.7h-26.2l-2.8,15.5h24.5c0.6,0,1,0.2,1.3,0.7c0.3,0.5,0.4,1.1,0.3,1.8l-1.3,7.3c-0.1,0.7-0.4,1.2-0.9,1.7
				c-0.5,0.5-1,0.7-1.6,0.7h-24.5l-2.8,15.9h26.8c0.6,0,1,0.2,1.3,0.7c0.3,0.5,0.4,1.1,0.3,1.8l-1.4,7.9c-0.1,0.7-0.4,1.3-0.9,1.8
				s-1,0.7-1.6,0.7H411.8z"/>
			<path class="st1" d="M457.9,868.6c-0.6,0-1.1-0.4-1.4-1.1c-0.3-0.8-0.2-1.5,0.3-2.1l24.3-32.5l-12.4-30.4
				c-0.3-0.7-0.3-1.4,0.1-2.1c0.4-0.7,0.9-1,1.6-1h8.9c1,0,1.6,0.2,1.9,0.7c0.3,0.5,0.5,0.9,0.6,1.2l8.3,20.2l14.8-20.2
				c0.3-0.3,0.6-0.7,1.1-1.2c0.5-0.5,1.2-0.7,2.1-0.7h9.8c0.7,0,1.2,0.4,1.4,1.1c0.2,0.8,0.1,1.5-0.3,2.1L495.9,835l12.6,30.5
				c0.3,0.7,0.2,1.3-0.1,2c-0.4,0.7-0.9,1-1.7,1h-8.8c-0.9,0-1.6-0.2-1.9-0.7c-0.4-0.5-0.6-0.9-0.7-1.1l-8.4-20l-15.1,20
				c-0.2,0.3-0.6,0.6-1,1.1c-0.5,0.5-1.2,0.7-2.2,0.7H457.9z"/>
			<path class="st1" d="M530,868.6c-0.5,0-1-0.2-1.3-0.7c-0.3-0.5-0.4-1.1-0.3-1.8l9.2-53h-14.7c-0.6,0-1-0.2-1.3-0.7
				c-0.3-0.5-0.4-1.1-0.3-1.8l1.5-8.9c0.1-0.7,0.4-1.3,0.9-1.8c0.5-0.5,1-0.7,1.6-0.7h42.5c0.6,0,1,0.2,1.3,0.7
				c0.3,0.5,0.4,1.1,0.3,1.8l-1.5,8.9c-0.1,0.7-0.4,1.3-0.9,1.8c-0.5,0.5-1,0.7-1.6,0.7h-14.7l-9.3,53c-0.1,0.7-0.4,1.3-0.8,1.8
				c-0.4,0.5-0.9,0.7-1.5,0.7H530z"/>
		</g>
		<g>
			<path class="st1" d="M697.6,869.6c-5.1,0-9.2-1-12.5-3.1c-3.2-2.1-5.5-5.1-6.8-9.1c-1.3-4-1.5-8.8-0.7-14.5
				c0.4-2.8,0.9-5.9,1.5-9.1c0.6-3.2,1.1-6.3,1.7-9.2c1.1-5.5,3-10.3,5.6-14.2c2.7-3.9,6-6.9,10-9c4-2.1,8.5-3.1,13.5-3.1
				c4,0,7.4,0.6,10.3,1.9c2.8,1.3,5.1,2.9,6.8,4.9c1.7,2,2.9,4.2,3.5,6.6c0.6,2.4,0.8,4.7,0.5,6.9c-0.1,0.6-0.4,1.1-0.8,1.5
				c-0.4,0.4-0.9,0.6-1.3,0.6h-10.1c-0.5,0-0.9-0.1-1.2-0.4c-0.2-0.3-0.4-0.7-0.6-1.2c-0.1-1.1-0.5-2.3-1.1-3.6
				c-0.6-1.3-1.6-2.3-2.9-3.1c-1.3-0.8-3.1-1.2-5.3-1.2c-3.4,0-6.2,1.1-8.6,3.3c-2.4,2.2-4.1,5.7-5,10.6c-0.5,2.8-1.1,5.7-1.6,8.6
				c-0.5,2.9-1,5.8-1.4,8.7c-0.8,5.1-0.3,8.8,1.3,11c1.6,2.2,4.2,3.4,7.6,3.4c2.2,0,4.3-0.5,6.2-1.4c1.9-1,3.6-2.4,4.9-4.5
				s2.3-4.6,2.9-7.8l0.4-2.5h-8.8c-0.6,0-1-0.2-1.3-0.7c-0.3-0.5-0.4-1.1-0.2-1.7l1.1-6.3c0.1-0.7,0.4-1.3,0.9-1.8
				c0.5-0.5,1-0.7,1.6-0.7h19.9c0.6,0,1,0.2,1.3,0.7c0.3,0.5,0.4,1.1,0.3,1.8l-1.9,10.8c-1,5.7-2.9,10.5-5.6,14.6
				c-2.8,4-6.2,7.1-10.3,9.3C707.2,868.6,702.6,869.6,697.6,869.6"/>
			<path class="st1" d="M733.4,868.6c-0.6,0-1-0.2-1.3-0.7s-0.4-1.1-0.3-1.8l11.2-64.4c0.1-0.7,0.4-1.3,0.9-1.8
				c0.5-0.5,1-0.7,1.6-0.7h36.7c0.6,0,1,0.2,1.3,0.7c0.3,0.5,0.4,1.1,0.3,1.8l-1.3,7.9c-0.2,0.7-0.5,1.3-0.9,1.8
				c-0.5,0.5-1,0.7-1.6,0.7h-26.2l-2.8,15.5h24.5c0.6,0,1,0.2,1.3,0.7c0.3,0.5,0.4,1.1,0.3,1.8l-1.3,7.3c-0.1,0.7-0.4,1.2-0.9,1.7
				c-0.5,0.5-1,0.7-1.6,0.7h-24.5l-2.8,15.9H773c0.6,0,1,0.2,1.3,0.7c0.3,0.5,0.4,1.1,0.3,1.8l-1.4,7.9c-0.1,0.7-0.4,1.3-0.9,1.8
				c-0.5,0.5-1,0.7-1.6,0.7H733.4z"/>
			<path class="st1" d="M784.5,868.6c-0.6,0-1-0.2-1.3-0.7s-0.4-1.1-0.3-1.8l11.2-64.4c0.1-0.7,0.4-1.3,0.9-1.8
				c0.5-0.5,1-0.7,1.5-0.7h7.5c0.8,0,1.4,0.2,1.7,0.6c0.3,0.4,0.5,0.8,0.5,1.1l14.5,41.5l7.1-40.8c0.1-0.7,0.4-1.3,0.9-1.8
				c0.5-0.5,1-0.7,1.5-0.7h8.3c0.6,0,1,0.2,1.3,0.7c0.3,0.5,0.4,1.1,0.3,1.8l-11.2,64.4c-0.1,0.7-0.4,1.2-0.9,1.7
				c-0.5,0.5-1,0.7-1.5,0.7H819c-0.8,0-1.4-0.2-1.7-0.7c-0.3-0.5-0.5-0.8-0.6-1.1l-14.5-40.3l-7,39.6c-0.1,0.7-0.4,1.3-0.9,1.8
				c-0.5,0.5-1,0.7-1.6,0.7H784.5z"/>
			<path class="st1" d="M842.4,868.6c-0.6,0-1-0.2-1.3-0.7s-0.4-1.1-0.3-1.8l11.2-64.4c0.1-0.7,0.4-1.3,0.9-1.8
				c0.5-0.5,1-0.7,1.6-0.7h36.7c0.6,0,1,0.2,1.3,0.7c0.3,0.5,0.4,1.1,0.3,1.8l-1.3,7.9c-0.2,0.7-0.5,1.3-0.9,1.8
				c-0.5,0.5-1,0.7-1.6,0.7h-26.2l-2.8,15.5h24.5c0.6,0,1,0.2,1.3,0.7c0.3,0.5,0.4,1.1,0.3,1.8l-1.3,7.3c-0.1,0.7-0.4,1.2-0.9,1.7
				c-0.5,0.5-1,0.7-1.6,0.7h-24.5l-2.8,15.9h26.8c0.6,0,1,0.2,1.3,0.7c0.3,0.5,0.4,1.1,0.3,1.8l-1.4,7.9c-0.1,0.7-0.4,1.3-0.9,1.8
				c-0.5,0.5-1,0.7-1.6,0.7H842.4z"/>
			<path class="st1" d="M894.5,868.6c-0.5,0-1-0.2-1.3-0.7c-0.3-0.5-0.4-1.1-0.3-1.8l11.2-64.4c0.1-0.7,0.4-1.3,0.9-1.8
				c0.5-0.5,1-0.7,1.5-0.7h21.6c6.8,0,11.8,1.9,15,5.7c3.2,3.8,4.2,9.3,3,16.4c-0.9,4.8-2.5,8.9-5,12.1c-2.5,3.2-5.4,5.6-8.8,7.2
				l7.1,24.8c0.1,0.2,0.1,0.4,0.1,0.5c0,0.1,0,0.3-0.1,0.6c-0.1,0.5-0.3,1-0.7,1.4c-0.4,0.4-0.9,0.6-1.3,0.6h-9.1
				c-1,0-1.6-0.3-2-0.9c-0.4-0.6-0.6-1.2-0.8-1.7l-5.9-22.7h-9.8l-4,22.9c-0.1,0.7-0.4,1.3-0.9,1.8c-0.5,0.5-1,0.7-1.6,0.7H894.5z
				 M912.1,830.7h10.4c2.9,0,5.2-0.8,7-2.5c1.7-1.7,2.8-4,3.3-6.9c0.5-3,0.3-5.3-0.9-7c-1.1-1.7-3.1-2.6-6.1-2.6h-10.5L912.1,830.7z
				"/>
			<path class="st1" d="M943.5,868.6c-0.6,0-1.1-0.3-1.3-1c-0.2-0.7-0.2-1.3,0.1-2l30.3-63.7c0.3-0.7,0.8-1.4,1.3-1.9
				c0.5-0.5,1.2-0.8,2.1-0.8h10.9c0.9,0,1.5,0.3,1.9,0.8c0.4,0.5,0.6,1.2,0.7,1.9l8.2,63.7c0.2,0.9,0,1.7-0.4,2.2
				c-0.4,0.5-0.9,0.8-1.5,0.8h-8.4c-0.8,0-1.3-0.2-1.7-0.7c-0.4-0.5-0.6-1-0.6-1.6l-1.6-10.8h-22.9l-5.4,11.1
				c-0.2,0.5-0.6,0.9-1,1.3c-0.5,0.4-1.1,0.6-1.8,0.6H943.5z M966,842.8h16.8l-3.5-28.4L966,842.8z"/>
			<path class="st1" d="M1012.4,868.6c-0.5,0-1-0.2-1.3-0.7s-0.4-1.1-0.3-1.8l9.2-53h-14.7c-0.6,0-1-0.2-1.3-0.7
				c-0.3-0.5-0.4-1.1-0.3-1.8l1.5-8.9c0.1-0.7,0.4-1.3,0.9-1.8c0.5-0.5,1-0.7,1.6-0.7h42.5c0.6,0,1,0.2,1.3,0.7
				c0.3,0.5,0.4,1.1,0.3,1.8l-1.5,8.9c-0.1,0.7-0.4,1.3-0.8,1.8c-0.5,0.5-1,0.7-1.6,0.7h-14.7l-9.3,53c-0.1,0.7-0.4,1.3-0.8,1.8
				c-0.4,0.5-0.9,0.7-1.5,0.7H1012.4z"/>
			<path class="st1" d="M1049.7,868.6c-0.5,0-1-0.2-1.3-0.7c-0.3-0.5-0.4-1.1-0.3-1.8l11.3-64.4c0.1-0.7,0.4-1.3,0.8-1.8
				c0.4-0.5,0.9-0.7,1.5-0.7h9.2c0.6,0,1,0.2,1.3,0.7c0.3,0.5,0.4,1.1,0.3,1.8l-11.3,64.4c-0.1,0.7-0.4,1.3-0.8,1.8
				c-0.4,0.5-0.9,0.7-1.5,0.7H1049.7z"/>
			<path class="st1" d="M1096.4,869.6c-3.4,0-6.4-0.6-9.3-1.7c-2.8-1.1-5.2-2.8-7.1-5.1c-1.9-2.2-3.3-5.1-4.1-8.4
				c-0.8-3.4-0.9-7.3-0.2-11.9c0.4-2.8,0.8-5.7,1.3-8.5c0.5-2.8,1-5.7,1.6-8.6c1.8-8.9,5-15.7,9.6-20.3c4.6-4.6,10.7-6.9,18.4-6.9
				c3.4,0,6.5,0.6,9.3,1.7c2.8,1.2,5.1,2.9,7.1,5.2c1.9,2.3,3.3,5.2,4.1,8.5c0.8,3.4,0.9,7.3,0.2,11.8c-0.4,2.9-0.8,5.8-1.3,8.6
				c-0.5,2.8-1,5.6-1.6,8.5c-1.8,9.1-5.1,15.9-9.7,20.4C1110.1,867.4,1104,869.6,1096.4,869.6 M1097.3,856.7c3.2,0,6.1-1.2,8.6-3.5
				c2.5-2.3,4.2-6,5.2-11.2c0.6-2.9,1.1-5.6,1.6-8.2c0.5-2.5,0.9-5.2,1.3-8.1c0.8-5.2,0.4-8.9-1.1-11.2c-1.5-2.3-3.8-3.5-7.1-3.5
				c-3.2,0-6.1,1.2-8.5,3.5s-4.2,6-5.3,11.2c-0.5,2.8-1,5.5-1.5,8.1c-0.5,2.5-0.9,5.3-1.3,8.2c-0.8,5.2-0.4,8.9,1,11.2
				C1091.6,855.6,1094,856.7,1097.3,856.7"/>
			<path class="st1" d="M1132,868.6c-0.6,0-1-0.2-1.3-0.7c-0.3-0.5-0.4-1.1-0.3-1.8l11.2-64.4c0.1-0.7,0.4-1.3,0.9-1.8
				c0.5-0.5,1-0.7,1.5-0.7h7.5c0.8,0,1.4,0.2,1.7,0.6c0.3,0.4,0.5,0.8,0.5,1.1l14.5,41.5l7.1-40.8c0.1-0.7,0.4-1.3,0.9-1.8
				c0.5-0.5,1-0.7,1.5-0.7h8.3c0.6,0,1,0.2,1.3,0.7c0.3,0.5,0.4,1.1,0.3,1.8l-11.2,64.4c-0.1,0.7-0.4,1.2-0.9,1.7
				c-0.5,0.5-1,0.7-1.5,0.7h-7.4c-0.8,0-1.4-0.2-1.7-0.7c-0.3-0.5-0.5-0.8-0.6-1.1l-14.5-40.3l-7,39.6c-0.1,0.7-0.4,1.3-0.9,1.8
				s-1,0.7-1.6,0.7H1132z"/>
		</g>
		<g>
			<path class="st1" d="M1316.8,869.6c-5.2,0-9.4-0.9-12.8-2.7c-3.3-1.8-5.7-4.2-7.1-7.2c-1.4-3-1.9-6.2-1.5-9.6
				c0.1-0.6,0.3-1.1,0.6-1.5c0.4-0.4,0.8-0.6,1.3-0.6h8.9c0.7,0,1.2,0.2,1.5,0.5c0.3,0.3,0.6,0.8,0.8,1.3c0.2,1.2,0.6,2.3,1.3,3.4
				c0.7,1.1,1.7,1.9,3,2.6c1.3,0.7,3,1,5,1c3.5,0,6.3-0.7,8.4-2.1c2.1-1.4,3.3-3.3,3.7-5.6c0.3-1.7,0.1-3-0.6-4.1
				c-0.8-1.1-2.1-2-4-2.9c-1.9-0.9-4.4-1.8-7.6-2.7c-3.9-1.1-7.1-2.6-9.6-4.5c-2.5-1.8-4.2-4.2-5.1-7.1c-0.9-2.9-1.1-6.3-0.4-10.3
				c1-5.9,3.6-10.7,7.8-14.1c4.2-3.5,9.6-5.2,16.2-5.2c3.5,0,6.5,0.6,9.2,1.8c2.6,1.2,4.8,2.7,6.6,4.7c1.7,1.9,3,4,3.8,6.1
				c0.8,2.2,1,4.3,0.7,6.3c-0.1,0.6-0.2,1.1-0.6,1.5c-0.3,0.4-0.8,0.6-1.3,0.6h-9.3c-0.5,0-0.9-0.1-1.3-0.4
				c-0.4-0.3-0.7-0.7-0.9-1.4c0-1.8-0.7-3.3-2.1-4.6c-1.4-1.3-3.2-1.9-5.5-1.9c-2.6,0-4.9,0.6-6.7,1.7c-1.8,1.2-3,3-3.4,5.4
				c-0.3,1.6-0.1,2.9,0.5,4c0.6,1.1,1.8,2,3.4,2.9c1.7,0.8,4,1.7,7,2.6c4.6,1.2,8.2,2.7,10.9,4.6c2.6,1.9,4.4,4.2,5.4,7
				c0.9,2.8,1,6.2,0.3,10.2c-1.1,6.6-3.9,11.6-8.4,15C1330.2,867.9,1324.3,869.6,1316.8,869.6"/>
			<path class="st1" d="M1350.4,868.6c-0.6,0-1-0.2-1.3-0.7c-0.3-0.5-0.4-1.1-0.3-1.8l11.2-64.4c0.1-0.7,0.4-1.3,0.9-1.8
				c0.5-0.5,1-0.7,1.6-0.7h21.2c3.2,0,6.2,0.5,8.8,1.4c2.6,0.9,4.7,2.3,6.4,4.2c1.7,1.9,2.9,4.2,3.5,7c0.6,2.8,0.6,6.1,0,9.9
				c-1.3,7.5-4,13-8.1,16.6c-4.1,3.6-9.5,5.4-16.3,5.4h-11.9l-4,22.4c-0.1,0.7-0.4,1.3-0.8,1.8c-0.4,0.5-0.9,0.7-1.5,0.7H1350.4z
				 M1368,831.5h10.4c2.6,0,4.9-0.8,6.8-2.5c1.9-1.6,3.2-4.1,3.8-7.3c0.4-2,0.5-3.7,0.2-5.2c-0.2-1.5-0.9-2.7-1.9-3.5
				c-1.1-0.9-2.7-1.3-5.1-1.3h-10.9L1368,831.5z"/>
			<path class="st1" d="M1426,869.6c-3.4,0-6.4-0.6-9.3-1.7c-2.8-1.1-5.2-2.8-7.1-5.1c-1.9-2.2-3.3-5.1-4.1-8.4
				c-0.8-3.4-0.9-7.3-0.2-11.9c0.4-2.8,0.8-5.7,1.3-8.5c0.5-2.8,1-5.7,1.6-8.6c1.8-8.9,5-15.7,9.6-20.3c4.6-4.6,10.7-6.9,18.4-6.9
				c3.4,0,6.5,0.6,9.3,1.7c2.8,1.2,5.1,2.9,7.1,5.2c1.9,2.3,3.3,5.2,4.1,8.5c0.8,3.4,0.9,7.3,0.2,11.8c-0.4,2.9-0.8,5.8-1.3,8.6
				c-0.5,2.8-1,5.6-1.6,8.5c-1.8,9.1-5.1,15.9-9.7,20.4C1439.7,867.4,1433.6,869.6,1426,869.6 M1426.9,856.7c3.2,0,6.1-1.2,8.6-3.5
				c2.5-2.3,4.2-6,5.2-11.2c0.6-2.9,1.1-5.6,1.6-8.2c0.5-2.5,0.9-5.2,1.3-8.1c0.8-5.2,0.4-8.9-1.1-11.2s-3.8-3.5-7.1-3.5
				c-3.2,0-6.1,1.2-8.5,3.5c-2.4,2.3-4.2,6-5.3,11.2c-0.5,2.8-1,5.5-1.5,8.1c-0.5,2.5-0.9,5.3-1.3,8.2c-0.8,5.2-0.4,8.9,1,11.2
				C1421.1,855.6,1423.5,856.7,1426.9,856.7"/>
			<path class="st1" d="M1462.6,868.6c-0.5,0-1-0.2-1.3-0.7c-0.3-0.5-0.4-1.1-0.3-1.8l11.2-64.4c0.1-0.7,0.4-1.3,0.9-1.8
				c0.5-0.5,1-0.7,1.5-0.7h21.6c6.8,0,11.8,1.9,15,5.7c3.2,3.8,4.2,9.3,3,16.4c-0.9,4.8-2.5,8.9-5,12.1c-2.5,3.2-5.4,5.6-8.8,7.2
				l7.1,24.8c0.1,0.2,0.1,0.4,0.1,0.5c0,0.1,0,0.3-0.1,0.6c-0.1,0.5-0.3,1-0.7,1.4c-0.4,0.4-0.9,0.6-1.3,0.6h-9.1
				c-1,0-1.6-0.3-2-0.9c-0.4-0.6-0.6-1.2-0.8-1.7l-5.9-22.7h-9.8l-4,22.9c-0.1,0.7-0.4,1.3-0.9,1.8c-0.5,0.5-1,0.7-1.6,0.7H1462.6z
				 M1480.2,830.7h10.4c2.9,0,5.2-0.8,7-2.5c1.7-1.7,2.8-4,3.3-6.9c0.5-3,0.3-5.3-0.9-7c-1.1-1.7-3.1-2.6-6.1-2.6h-10.5
				L1480.2,830.7z"/>
			<path class="st1" d="M1528.3,868.6c-0.5,0-1-0.2-1.3-0.7c-0.3-0.5-0.4-1.1-0.3-1.8l9.2-53h-14.7c-0.6,0-1-0.2-1.3-0.7
				c-0.3-0.5-0.4-1.1-0.3-1.8l1.5-8.9c0.1-0.7,0.4-1.3,0.9-1.8c0.5-0.5,1-0.7,1.6-0.7h42.5c0.6,0,1,0.2,1.3,0.7
				c0.3,0.5,0.4,1.1,0.3,1.8l-1.5,8.9c-0.1,0.7-0.4,1.3-0.9,1.8c-0.5,0.5-1,0.7-1.6,0.7h-14.7l-9.3,53c-0.1,0.7-0.4,1.3-0.8,1.8
				c-0.4,0.5-0.9,0.7-1.5,0.7H1528.3z"/>
		</g>
		<path class="st2" d="M1241.4,815.6L1241.4,815.6c10.1,0,18.3,8.2,18.3,18.3c0,10.1-8.2,18.3-18.3,18.3c-10.1,0-18.3-8.2-18.3-18.3
			C1223.1,823.8,1231.3,815.6,1241.4,815.6"/>
		<path class="st3" d="M1241.4,815.6L1241.4,815.6c10.1,0,18.3,8.2,18.3,18.3s-8.2,18.3-18.3,18.3c-10.1,0-18.3-8.2-18.3-18.3
			S1231.3,815.6,1241.4,815.6"/>
		<path class="st3" d="M623.3,815.6L623.3,815.6c10.1,0,18.3,8.2,18.3,18.3s-8.2,18.3-18.3,18.3c-10.1,0-18.3-8.2-18.3-18.3
			S613.2,815.6,623.3,815.6"/>
	</g>
	<polygon class="st3" points="1477.9,210.4 1410.7,210.4 899.4,210.4 743.3,210.4 742.7,210.4 742.7,493.5 619.4,344.4 509.3,210.4 
		352.5,210.4 352.5,563.3 352.5,680.5 356.2,680.5 509.3,680.5 509.3,397.6 637.2,552.4 742.7,680.5 899.4,680.5 899.4,327.8 
		1410.7,327.8 1410.7,563 1176.7,563 1176.7,504.2 1371.6,504.2 1275,386.8 1020,386.8 1020,504.2 1020,563 1020,680.5 
		1176.7,680.5 1410.7,680.5 1520.7,680.5 1567.5,680.5 1567.5,210.4 	"/>
	<polygon class="st1" points="1035,665.5 1035,401.8 1267.9,401.8 1339.8,489.2 1161.7,489.2 1161.7,578 1425.7,578 1425.7,312.8 
		884.4,312.8 884.4,665.5 749.8,665.5 648.8,542.9 494.3,356 494.3,665.5 367.5,665.5 367.5,225.4 502.2,225.4 607.8,353.9 
		757.7,535.2 757.7,225.4 1552.5,225.4 1552.5,665.5 	"/>
</g>
</svg>
