<?xml version="1.0" encoding="utf-8"?>
<!-- Generator: Adobe Illustrator 23.0.5, SVG Export Plug-In . SVG Version: 6.00 Build 0)  -->
<svg version="1.1" id="Layer_1" xmlns="http://www.w3.org/2000/svg" xmlns:xlink="http://www.w3.org/1999/xlink" x="0px" y="0px"
	 viewBox="0 0 2000 500" style="enable-background:new 0 0 2000 500;" xml:space="preserve">
<style type="text/css">
	.st0{fill:#FFFFFF;}
	.st1{fill:#F24EA4;}
</style>
<g>
	<g>
		<g>
			<g>
				<path class="st0" d="M242.9,294.3l-77.7,5.9l2.9,109.2c0,10.7-6,16.1-18.1,16.1c-6.9,0-12-2.5-15.4-7.4
					c-1.6-2.6-2.5-5.5-2.7-8.7L129,301.2c-44.5,38.8-71.7,58.2-81.6,58.2c-3.9,0-7-1.6-9.3-5c-1.8-2.6-2.7-5.3-2.7-7.9
					c0-3.8,1.7-7.3,5.1-10.7c0.8-0.7,5.9-4.5,15.2-11.4c37.1-28.1,73.9-65.6,110.3-112.7l-123.8,8.4c-12.7,0.8-19.1-4.6-19.1-16.3
					c0-10.6,5.9-16.3,17.7-17.1l149.5-10.4c7-11.2,13.9-23.4,20.6-36.4c4.7-9.2,10.4-13.9,16.9-13.9c3.9,0,7.8,1.1,11.5,3.2
					c5.6,3,8.3,7.1,8.3,12.4c0,5.1-4.7,15.7-14,31.7l211.6-14.6c0.3,0,1.1,0,2.2,0c11.3,0,16.9,5.4,16.9,16.1
					c0,10.9-5.7,16.7-17.2,17.3L212,208.4c-15.4,21.6-31.6,41.5-48.8,59.4l0.2-0.2l79.4-6.2v-28.2c0-5.1,1.8-9.2,5.4-12.1
					c3.4-2.6,7.5-4,12.3-4c6,0,10.7,2.1,14,6.2c2.3,2.6,3.4,5.9,3.4,9.9v25.3l87.3-6.9c3.9-0.3,7.5-0.5,10.8-0.5
					c12.7,0,21.1,3.3,25,9.9c2.9,4.8,4.4,15,4.4,30.7c0,51.4-1.8,85.8-5.4,103.3c-4.3,20-14.1,30-29.7,30c-8.7,0-20.9-4.2-36.8-12.6
					c-14.2-7.4-21.3-13.9-21.3-19.3c0-7.1,3.5-10.7,10.5-10.7c2.5,0,6.9,0.9,13.5,2.7c8.2,2.3,14.5,3.5,18.9,3.5
					c5.7,0,9.2-3.3,10.5-9.9c2.5-13.5,3.7-41.8,3.7-84.7c0-4.5-0.7-7.1-2.2-7.9c-1-0.7-2.9-1-5.6-1c-1.1,0-1.9,0-2.2,0l-81.4,6.4
					v172.2c0,10.9-5.9,16.3-17.7,16.3c-7,0-12.1-2.6-15.2-7.9c-1.5-2.3-2.2-5.1-2.2-8.4V294.3H242.9z M289.3,79.8l40.2,12.6
					c14.7,4.8,22.9,7.6,24.5,8.4c6.7,3.6,10.1,8.9,10.1,15.9c0,3.8-0.9,7.4-2.7,10.7c-3.3,5.4-8.4,8.2-15.4,8.2
					c-4.4,0-13.4-2.7-27-8.2c-16.5-6.8-38.8-15-66.9-24.8l-2.2-0.7c-30.2,16-69.1,32.4-116.4,49.3c-13.2,4.6-20.9,6.9-23,6.9
					c-5.4,0-9.2-2.6-11.3-7.7c-0.8-2.1-1.2-4.1-1.2-5.9c0-4.6,2.5-8.3,7.4-10.9c1.1-0.7,6.5-2.8,15.9-6.4
					c25-9.2,53.9-22.4,86.5-39.4l-11-3.5l-15-4.7l-39-11.6c-9.8-3-14.7-8-14.7-15.1c0-8.1,4.5-12.1,13.5-12.1
					c3.8,0,38.2,8.8,103.2,26.3c22.4-13.5,41-26.6,55.9-39.1c6.2-5.3,11.9-7.9,17.2-7.9c4.4,0,8.1,1.4,11,4.2
					c4.1,3.8,6.1,8.3,6.1,13.4c0,5.4-2.5,10.4-7.6,14.9C318.1,60.4,305.5,69.6,289.3,79.8z"/>
			</g>
		</g>
		<g>
			<g>
				<path class="st0" d="M247.4,500C111,500,0,387.9,0,250S111,0,247.4,0s247.4,112.1,247.4,250S383.8,500,247.4,500z M247.4,23.5
					C123.8,23.5,23.3,125.1,23.3,250s100.5,226.5,224.1,226.5l0,0c123.6,0,224.1-101.6,224.1-226.5S371,23.5,247.4,23.5z"/>
			</g>
		</g>
	</g>
</g>
<g>
	<g>
		<g>
			<g>
				<g>
					<path class="st1" d="M621.8,311.6c-2.7,0-5.2-0.6-7.3-1.8c-2.3-1.2-3.3-3-3.3-5.3V196.9c0-2.3,1.2-4,3.3-5.2
						c2.3-1.2,4.8-1.7,7.3-1.7s4.9,0.3,6.6,0.8c1.7,0.5,3.3,1.7,4.8,3.2c1.5,1.5,3.1,4.1,4.8,7.3l32.1,62v-66.6
						c0-2.4,1.2-4.1,3.3-5.3c2.3-1,4.8-1.5,7.3-1.5c2.7,0,5.3,0.5,7.5,1.5s3.3,2.8,3.3,5.3v107.7c0,2.3-1.2,4.1-3.3,5.3
						c-2.2,1.2-4.8,1.8-7.5,1.8c-2.6,0-4.9-0.5-7.1-1.5c-2.2-1-3.9-2.7-5.3-5.3L632.6,238v66.6c0,2.3-1.2,4.1-3.3,5.3
						C627.1,311,624.5,311.6,621.8,311.6z"/>
				</g>
			</g>
			<g>
				<g>
					<path class="st1" d="M776,313.2c-6.4,0-12.4-1.5-17.8-4.8c-5.4-3.2-9.8-7.3-13.1-12.5c-3.3-5.2-5-10.8-5-16.7v-13.7
						c0-5.9,1.5-11.6,4.8-16.7c3.2-5.2,7.6-9.3,13-12.4c5.5-3.1,11.5-4.6,18-4.6c6.6,0,12.5,1.5,17.9,4.5c5.4,3.1,9.8,7.1,13.1,12.2
						c3.3,5.2,5,10.7,5,17v13.7c0,5.9-1.7,11.5-5,16.6c-3.3,5.2-7.7,9.4-13.3,12.6C788.4,311.5,782.4,313.2,776,313.2z M776,294.4
						c2.7,0,5.2-0.8,7.3-2.2c2.2-1.4,4-3.3,5.3-5.8c1.3-2.3,1.9-4.9,1.9-7.3v-13.7c0-2.6-0.6-4.9-1.9-7.1c-1.3-2.2-3.1-4.1-5.3-5.5
						c-2.2-1.5-4.6-2.2-7.3-2.2c-2.7,0-5.2,0.8-7.3,2.2c-2.2,1.4-4,3.3-5.3,5.5c-1.3,2.3-1.9,4.6-1.9,7.2v13.7c0,2.6,0.6,5,1.9,7.3
						c1.3,2.4,3,4.3,5.3,5.8C771,293.6,773.4,294.4,776,294.4z"/>
				</g>
			</g>
			<g>
				<g>
					<path class="st1" d="M860.2,311.6c-2.7,0-4.5-0.8-5.7-2.4c-1.2-1.5-1.7-3.3-1.7-5.3c0-1.7,0.4-3.2,1-4.8
						c0.8-1.5,1.5-2.8,2.6-4.1l32.6-45.1h-28.6c-1.8,0-3.3-0.9-4.5-2.6c-1.3-1.7-1.9-3.7-1.9-6.2c0-2.3,0.6-4.4,1.8-6.1
						c1.2-1.7,2.7-2.6,4.6-2.6h48.8c1.9,0,3.5,0.6,4.8,1.8c1.3,1.2,1.9,3.1,1.9,5.5c0,3-1.2,5.9-3.3,9L880,294h32.5
						c1.8,0,3.3,0.9,4.5,2.7c1.3,1.8,1.9,3.9,1.9,6.3c0,2.3-0.6,4.4-1.8,6.1c-1.2,1.7-2.7,2.6-4.8,2.6H860.2z"/>
				</g>
			</g>
			<g>
				<g>
					<path class="st1" d="M995.1,313.2c-6.4,0-12.4-1.5-17.8-4.8c-5.4-3.2-9.8-7.3-13.1-12.5c-3.3-5.2-5-10.8-5-16.7v-13.7
						c0-5.9,1.5-11.6,4.8-16.7c3.2-5.2,7.6-9.3,13-12.4c5.5-3.1,11.5-4.6,18-4.6s12.5,1.5,17.9,4.5c5.4,3.1,9.8,7.1,13.1,12.2
						c3.3,5.2,5,10.7,5,17v13.7c0,5.9-1.7,11.5-5,16.6c-3.3,5.2-7.7,9.4-13.3,12.6C1007.5,311.5,1001.6,313.2,995.1,313.2z
						 M995.1,294.4c2.7,0,5.2-0.8,7.3-2.2c2.2-1.4,4-3.3,5.3-5.8c1.3-2.3,1.9-4.9,1.9-7.3v-13.7c0-2.6-0.6-4.9-1.9-7.1
						s-3.1-4.1-5.3-5.5c-2.2-1.5-4.6-2.2-7.3-2.2c-2.7,0-5.2,0.8-7.3,2.2c-2.2,1.4-4,3.3-5.3,5.5c-1.3,2.3-1.9,4.6-1.9,7.2v13.7
						c0,2.6,0.6,5,1.9,7.3c1.3,2.4,3,4.3,5.3,5.8C990,293.6,992.4,294.4,995.1,294.4z"/>
				</g>
			</g>
			<g>
				<g>
					<path class="st1" d="M1088.7,311.6c-3.1,0-5.7-0.8-7.6-2.2c-1.9-1.4-3-3.1-3-4.8v-65.3c0-1.9,1-3.6,3-4.8
						c1.9-1.2,4.5-1.8,7.6-1.8c2.7,0,4.9,0.6,6.7,1.8c1.8,1.2,2.7,2.8,2.7,4.8v5c1.9-3.2,4.6-6.2,8.4-8.8c3.6-2.6,8.2-3.9,13.8-3.9
						c4.8,0,9,1.5,12.6,4.6c3.6,3.1,6.3,7.1,8.1,12c2.8-5.7,6.6-9.8,11.1-12.5c4.5-2.7,9.1-4.1,13.9-4.1c5.2,0,9.9,1.3,14.4,3.9
						s8.1,6.4,11,11.5c2.8,5,4.3,11.2,4.3,18.4v39.3c0,1.8-1,3.3-3.2,4.8c-2.1,1.4-4.6,2.2-7.6,2.2c-2.8,0-5.4-0.8-7.5-2.2
						c-2.1-1.4-3.2-3.1-3.2-4.8v-39.3c0-3.3-0.6-6.1-1.9-8.4c-1.3-2.2-3-3.9-5-5s-4.3-1.8-6.4-1.8c-2.1,0-4.1,0.6-6.2,1.8
						c-1.9,1.2-3.6,2.8-5,5c-1.3,2.2-1.9,4.9-1.9,8.1v39.6c0,2.4-1.2,4.1-3.3,5.3c-2.3,1-4.8,1.5-7.3,1.5c-2.4,0-4.8-0.5-7.1-1.5
						c-2.3-1-3.5-2.8-3.5-5.3v-39.4c0-3.1-0.6-5.8-1.9-8c-1.3-2.2-3-4-5-5.2s-4.3-1.8-6.6-1.8c-2.2,0-4.4,0.5-6.3,1.7
						c-1.9,1.2-3.6,2.7-4.9,5c-1.3,2.2-1.9,5-1.9,8.4v39.3c0,1.8-1,3.3-3.2,4.8C1094.2,310.9,1091.6,311.6,1088.7,311.6z"/>
				</g>
			</g>
			<g>
				<g>
					<path class="st1" d="M1255.4,215c-3.2,0-5.9-1-8.2-3.2c-2.3-2.2-3.5-4.5-3.5-7.2c0-2.8,1.2-5.3,3.5-7.3
						c2.3-2.1,5.2-3.1,8.2-3.1c3.3,0,6.1,1,8.4,3.1c2.2,2.1,3.3,4.5,3.3,7.3c0,2.7-1.2,5-3.3,7.2C1261.5,214,1258.7,215,1255.4,215z
						 M1255.4,311.6c-3.1,0-5.7-0.8-7.6-2.2c-1.9-1.4-3-3.1-3-4.8v-65.3c0-1.9,1-3.6,3-4.8c1.9-1.2,4.5-1.8,7.6-1.8
						c3,0,5.5,0.6,7.6,1.8c2.1,1.2,3.2,2.8,3.2,4.8v65.3c0,1.8-1,3.3-3.2,4.8C1260.9,310.9,1258.3,311.6,1255.4,311.6z"/>
				</g>
			</g>
		</g>
	</g>
	<g>
		<path class="st0" d="M1394.9,311.6c-2.7,0-5.2-0.6-7.3-1.8c-2.3-1.2-3.3-3-3.3-5.3V200.9c0-4,1.2-6.8,3.3-8.4
			c2.3-1.5,4.8-2.4,7.3-2.4c2.6,0,4.9,0.3,6.7,0.8c1.8,0.5,3.6,1.7,5.2,3.3s3.3,4.1,5,7.3l20.5,37.2l20.2-37.2
			c1.9-3.2,3.7-5.7,5.3-7.3s3.2-2.7,5-3.3s4.1-0.8,6.7-0.8c2.7,0,5.3,0.8,7.5,2.4c2.2,1.5,3.3,4.4,3.3,8.4v103.7
			c0,2.3-1.2,4.1-3.3,5.3c-2.3,1.2-4.8,1.8-7.3,1.8c-2.7,0-5.2-0.6-7.3-1.8c-2.3-1.2-3.3-3-3.3-5.3v-71.4l-19.3,34.5
			c-1,1.5-2.2,2.7-3.5,3.3c-1.3,0.8-2.7,1-4,1c-1.2,0-2.4-0.4-3.7-1s-2.4-1.8-3.3-3.5l-19.1-35.7v72.5c0,2.3-1.2,4.1-3.3,5.3
			C1400.2,311,1397.6,311.6,1394.9,311.6z"/>
		<path class="st0" d="M1548.8,313.2c-5.9,0-11-1.8-15.2-5.4c-4.3-3.6-6.4-9.1-6.4-16.7c0-6.3,1.7-11.2,4.9-14.8s7.9-6.1,13.7-7.5
			c5.8-1.4,12.5-2.2,20.2-2.2h6.8v-2.2c0-2.4-0.5-4.8-1.4-7.1c-0.9-2.3-2.4-4.3-4.5-5.8c-2.1-1.5-5-2.3-8.8-2.3
			c-4.3,0-7.5,0.4-9.7,1.3c-2.3,0.8-4,1.7-5.3,2.6c-1.2,0.9-2.6,1.3-4,1.3c-2.3,0-4.1-1.2-5.4-3.5c-1.3-2.3-1.9-4.8-1.9-7.1
			c0-2.3,1.4-4.4,4.3-6.2c2.8-1.8,6.3-3.2,10.4-4.3c4.1-1,8.1-1.5,12-1.5c8.6,0,15.6,1.5,20.7,4.6c5.2,3.1,9,7.1,11.3,12
			s3.6,10.2,3.6,15.8v40.6c0,1.9-1,3.6-3,5c-1.9,1.3-4.5,1.9-7.5,1.9c-2.7,0-5-0.6-7-1.9c-1.8-1.3-2.7-3-2.7-5v-4.6
			c-3,3.5-6.6,6.4-10.6,9.1C1559.4,311.8,1554.5,313.2,1548.8,313.2z M1557.5,297.2c2.3,0,4.6-0.8,7-2.3c2.3-1.5,4.3-3.6,5.9-5.9
			c1.5-2.4,2.4-5,2.4-7.6v-3.5h-2.4c-3.6,0-7.1,0.3-10.4,0.6c-3.3,0.4-6.1,1.4-8.1,3c-2.1,1.5-3.1,3.7-3.1,7c0,3.1,0.9,5.4,2.6,6.8
			C1553,296.4,1555,297.2,1557.5,297.2z"/>
		<path class="st0" d="M1653.8,311.6c-3,0-5.5-0.8-7.5-2.2c-1.9-1.4-3-3.1-3-4.8v-65.3c0-1.9,1-3.6,3-4.8c1.9-1.2,4.5-1.8,7.5-1.8
			c2.7,0,5,0.6,7,1.8c1.8,1.2,2.7,2.8,2.7,4.8v6.8c1.2-2.4,2.8-4.8,4.9-7c2.1-2.2,4.4-4,7.1-5.4c2.7-1.4,5.5-2.2,8.5-2.2h5.2
			c2.1,0,4,0.9,5.5,2.7c1.5,1.8,2.3,4,2.3,6.6c0,2.7-0.8,4.9-2.3,6.7c-1.5,1.8-3.3,2.7-5.5,2.7h-5.2c-3.1,0-6.2,1-9,3.1
			c-3,2.1-5.4,4.9-7.2,8.5c-1.9,3.6-2.8,8-2.8,13v29.6c0,1.8-1,3.3-3.2,4.8C1659.5,310.9,1656.9,311.6,1653.8,311.6z"/>
		<path class="st0" d="M1751.1,311.6c-3.1,0-5.7-0.8-7.6-2.2c-1.9-1.4-3-3.1-3-4.8V193.4c0-1.9,1-3.6,3-4.8c1.9-1.2,4.5-1.8,7.6-1.8
			c3,0,5.5,0.6,7.6,1.8c2.1,1.2,3.2,2.8,3.2,4.8v111.3c0,1.8-1,3.3-3.2,4.8C1756.6,310.9,1754.1,311.6,1751.1,311.6z"/>
		<path class="st0" d="M1846.2,313.2c-6.4,0-12.4-1.5-17.8-4.8c-5.4-3.2-9.8-7.3-13.1-12.5c-3.3-5.2-5-10.8-5-16.7v-13.7
			c0-5.9,1.5-11.6,4.8-16.7c3.2-5.2,7.6-9.3,13-12.4c5.5-3.1,11.5-4.6,18-4.6s12.5,1.5,17.9,4.5c5.4,3.1,9.8,7.1,13.1,12.2
			s5,10.7,5,17v13.7c0,5.9-1.7,11.5-5,16.6c-3.3,5.2-7.7,9.4-13.3,12.6C1858.5,311.5,1852.6,313.2,1846.2,313.2z M1846.2,294.4
			c2.7,0,5.2-0.8,7.3-2.2c2.2-1.4,4-3.3,5.3-5.8c1.3-2.3,1.9-4.9,1.9-7.3v-13.7c0-2.6-0.6-4.9-1.9-7.1s-3.1-4.1-5.3-5.5
			c-2.2-1.5-4.6-2.2-7.3-2.2c-2.7,0-5.2,0.8-7.3,2.2c-2.2,1.4-4,3.3-5.3,5.5c-1.3,2.3-1.9,4.6-1.9,7.2v13.7c0,2.6,0.6,5,1.9,7.3
			c1.3,2.4,3,4.3,5.3,5.8C1841,293.6,1843.5,294.4,1846.2,294.4z"/>
		<path class="st0" d="M1939.7,311.6c-3.1,0-5.7-0.8-7.6-2.2c-1.9-1.4-3-3.1-3-4.8v-65.3c0-1.9,1-3.6,3-4.8c1.9-1.2,4.5-1.8,7.6-1.8
			c2.7,0,4.9,0.6,6.7,1.8c1.8,1.2,2.7,2.8,2.7,4.8v5c1.7-3.2,4.4-6.2,8.2-8.8c3.9-2.6,8.5-3.9,14-3.9c5.2,0,9.9,1.5,14.3,4.5
			c4.4,3,7.7,7.1,10.4,12.2c2.6,5.2,3.9,10.7,3.9,17v39.3c0,2.3-1.2,4.1-3.3,5.3c-2.2,1.2-4.8,1.8-7.5,1.8c-2.4,0-4.8-0.6-7.1-1.8
			s-3.5-3-3.5-5.3v-39.3c0-2.6-0.6-4.9-1.9-7.1s-3-4.1-5.3-5.5c-2.2-1.5-4.6-2.2-7.3-2.2c-2.2,0-4.4,0.6-6.4,1.8s-3.9,3-5.2,5.2
			c-1.3,2.2-1.9,4.9-1.9,8v39.3c0,1.8-1,3.3-3.2,4.8C1945.2,310.9,1942.7,311.6,1939.7,311.6z"/>
	</g>
</g>
</svg>
