<?xml version="1.0" encoding="utf-8"?>
<!-- Generator: Adobe Illustrator 23.0.5, SVG Export Plug-In . SVG Version: 6.00 Build 0)  -->
<svg version="1.1" id="Layer_1" xmlns="http://www.w3.org/2000/svg" xmlns:xlink="http://www.w3.org/1999/xlink" x="0px" y="0px"
	 viewBox="0 0 32 32" style="enable-background:new 0 0 32 32;" xml:space="preserve">
<style type="text/css">
	.st0{fill:#100B1D;}
</style>
<g>
	<g>
		<g>
			<g>
				<path class="st0" d="M15.71,18.84l-4.97,0.38l0.19,6.99c0,0.69-0.39,1.03-1.16,1.03c-0.44,0-0.77-0.16-0.99-0.48
					c-0.1-0.17-0.16-0.35-0.17-0.55l-0.19-6.93c-2.85,2.48-4.59,3.73-5.22,3.73c-0.25,0-0.45-0.11-0.6-0.32
					c-0.12-0.17-0.17-0.34-0.17-0.51c0-0.24,0.11-0.47,0.33-0.68c0.05-0.04,0.38-0.29,0.97-0.73c2.37-1.8,4.73-4.2,7.06-7.21
					L2.86,14.1c-0.82,0.05-1.22-0.3-1.22-1.05c0-0.68,0.38-1.04,1.13-1.09l9.57-0.67c0.45-0.72,0.89-1.5,1.32-2.33
					c0.3-0.59,0.66-0.89,1.08-0.89c0.25,0,0.5,0.07,0.74,0.21c0.36,0.19,0.53,0.45,0.53,0.79c0,0.33-0.3,1-0.89,2.03l13.54-0.94
					c0.02,0,0.07,0,0.14,0c0.72,0,1.08,0.34,1.08,1.03c0,0.7-0.37,1.07-1.1,1.11l-15.05,1.05c-0.98,1.38-2.02,2.65-3.12,3.8
					l0.02-0.02l5.08-0.4v-1.81c0-0.33,0.11-0.59,0.35-0.78c0.22-0.17,0.48-0.25,0.78-0.25c0.39,0,0.68,0.13,0.89,0.4
					c0.15,0.17,0.22,0.38,0.22,0.63v1.62l5.59-0.44c0.25-0.02,0.48-0.03,0.69-0.03c0.82,0,1.35,0.21,1.6,0.63
					c0.19,0.31,0.28,0.96,0.28,1.97c0,3.29-0.12,5.49-0.35,6.61c-0.27,1.28-0.9,1.92-1.9,1.92c-0.55,0-1.34-0.27-2.35-0.81
					c-0.91-0.48-1.37-0.89-1.37-1.24c0-0.45,0.22-0.68,0.67-0.68c0.16,0,0.44,0.06,0.86,0.17c0.52,0.15,0.93,0.22,1.21,0.22
					c0.37,0,0.59-0.21,0.67-0.63c0.16-0.87,0.24-2.67,0.24-5.42c0-0.29-0.05-0.45-0.14-0.51c-0.06-0.04-0.18-0.06-0.36-0.06
					c-0.07,0-0.12,0-0.14,0l-5.21,0.41v11.02c0,0.7-0.38,1.05-1.13,1.05c-0.45,0-0.77-0.17-0.97-0.51
					c-0.09-0.15-0.14-0.33-0.14-0.54V18.84z M18.68,5.11l2.57,0.81c0.94,0.31,1.46,0.49,1.57,0.54c0.43,0.23,0.64,0.57,0.64,1.01
					c0,0.24-0.06,0.47-0.17,0.68c-0.21,0.35-0.54,0.52-0.99,0.52c-0.28,0-0.86-0.17-1.73-0.52c-1.06-0.43-2.48-0.96-4.28-1.59
					l-0.14-0.05C14.22,7.55,11.73,8.6,8.7,9.67c-0.85,0.3-1.34,0.44-1.47,0.44c-0.35,0-0.59-0.16-0.72-0.49
					C6.45,9.49,6.43,9.36,6.43,9.25c0-0.3,0.16-0.53,0.47-0.7c0.07-0.04,0.41-0.18,1.02-0.41c1.6-0.59,3.45-1.43,5.54-2.52
					l-0.71-0.22l-0.96-0.3L9.3,4.35C8.67,4.16,8.36,3.84,8.36,3.38c0-0.52,0.29-0.78,0.86-0.78c0.24,0,2.44,0.56,6.61,1.68
					c1.43-0.87,2.63-1.7,3.58-2.5c0.4-0.34,0.76-0.51,1.1-0.51c0.28,0,0.52,0.09,0.71,0.27c0.26,0.24,0.39,0.53,0.39,0.86
					c0,0.35-0.16,0.67-0.49,0.95C20.53,3.87,19.72,4.45,18.68,5.11z"/>
			</g>
		</g>
		<g>
			<g>
				<path class="st0" d="M16,32C7.27,32,0.16,24.82,0.16,16C0.16,7.18,7.27,0,16,0c8.73,0,15.84,7.18,15.84,16
					C31.84,24.82,24.73,32,16,32z M16,1.51C8.09,1.51,1.66,8.01,1.66,16S8.09,30.49,16,30.49h0c7.91,0,14.34-6.5,14.34-14.49
					S23.91,1.51,16,1.51z"/>
			</g>
		</g>
	</g>
</g>
</svg>
