<?xml version="1.0" encoding="utf-8"?>
<!-- Generator: Adobe Illustrator 23.0.5, SVG Export Plug-In . SVG Version: 6.00 Build 0)  -->
<svg version="1.1" id="Layer_1" xmlns="http://www.w3.org/2000/svg" xmlns:xlink="http://www.w3.org/1999/xlink" x="0px" y="0px"
	 viewBox="0 0 512 512" style="enable-background:new 0 0 512 512;" xml:space="preserve">
<style type="text/css">
	.st0{fill:#100B1D;}
</style>
<path class="st0" d="M160,96c0-53,43-96,96-96s96,43,96,96s-43,96-96,96S160,149,160,96z M240,248v264l-48.4-24.2
	c-20.9-10.4-43.5-17-66.8-19.3l-96-9.6C12.5,457.2,0,443.5,0,427V224c0-17.7,14.3-32,32-32h30.3C125.9,192,187.9,211.6,240,248z
	 M272,512V248c52.1-36.4,114.1-56,177.7-56H480c17.7,0,32,14.3,32,32v203c0,16.4-12.5,30.2-28.8,31.8l-96,9.6
	c-23.2,2.3-45.9,8.9-66.8,19.3L272,512z"/>
</svg>
