<?xml version="1.0" encoding="utf-8"?>
<!-- Generator: Adobe Illustrator 23.0.5, SVG Export Plug-In . SVG Version: 6.00 Build 0)  -->
<svg version="1.1" id="Layer_1" xmlns="http://www.w3.org/2000/svg" xmlns:xlink="http://www.w3.org/1999/xlink" x="0px" y="0px"
	 viewBox="0 0 448 512" style="enable-background:new 0 0 448 512;" xml:space="preserve">
<style type="text/css">
	.st0{fill:#F24EA4;}
</style>
<path class="st0" d="M416,38H31.9C14.3,38,0,52.5,0,70.3v383.4C0,471.5,14.3,486,31.9,486H416c17.6,0,32-14.5,32-32.3V70.3
	C448,52.5,433.6,38,416,38z M135.4,422H69V208.2h66.5V422H135.4z M102.2,179c-21.3,0-38.5-17.3-38.5-38.5S80.9,102,102.2,102
	c21.2,0,38.5,17.3,38.5,38.5C140.7,161.8,123.5,179,102.2,179z M384.3,422h-66.4V318c0-24.8-0.5-56.7-34.5-56.7
	c-34.6,0-39.9,27-39.9,54.9V422h-66.4V208.2h63.7v29.2h0.9c8.9-16.8,30.6-34.5,62.9-34.5c67.2,0,79.7,44.3,79.7,101.9V422z"/>
</svg>
